#N canvas 123 120 1309 988 12;
#X obj 450 389 bng 15 250 50 0 empty empty empty 17 7 0 10 #fcfcfc
#000000 #000000;
#X obj 492 389 bng 15 250 50 0 empty empty empty 17 7 0 10 #fcfcfc
#000000 #000000;
#X obj 409 416 instrument-notes-in-mode-by-interval-range;
#X obj 837 271 metro;
#X obj 844 446 line;
#X obj 419 204 metro;
#X obj 409 476 makenote;
#X msg 1005 241 2500;
#X msg 957 241 5000;
#X obj 165 416 loadbang;
#X obj 844 506 ctlout;
#X obj 409 506 noteout;
#X obj 888 356 random-around;
#X msg 975 331 0.5;
#X msg 945 331 20;
#X obj 888 386 min;
#X msg 914 386 127;
#X obj 944 386 max;
#X msg 970 386 0;
#X obj 844 416 pack;
#X obj 887 271 random-maxmin;
#X obj 837 301 t b f;
#X obj 527 295 random-maxmin;
#X msg 560 264 50;
#X msg 529 264 150;
#X obj 509 326 -;
#X obj 469 234 t b b f b;
#X msg 425 446 127;
#X obj 74 174 inlet;
#X obj 155 385 inlet;
#X obj 145 354 inlet;
#X obj 95 234 inlet;
#X obj 105 264 inlet;
#X obj 115 294 inlet;
#X obj 125 324 inlet;
#X msg 587 175 200;
#X msg 539 175 2000;
#X text 620 176 range de duracao das notas;
#X text 1046 219 range de tempo para chegar a uma nova intensidade
;
#X text 1129 299 a intensidade gira em torno de uma intensidade de
referencia;
#X text 548 239 range de pequeno silêncio entre notas;
#X text 515 446 velocity é sempre 127;
#X obj 469 204 random-updown-proportional;
#X obj 114 174 s \$0-start-stop;
#X obj 135 234 s \$0-tonica;
#X obj 145 264 s \$0-modo;
#X obj 155 294 s \$0-notas-range-max;
#X obj 165 324 s \$0-notas-range-min;
#X obj 185 354 s \$0-intensidade-de-referencia;
#X obj 195 385 s \$0-channel;
#X obj 226 416 s \$0-lb;
#X obj 419 175 r \$0-start-stop;
#X obj 575 386 r \$0-tonica;
#X obj 631 356 r \$0-modo;
#X obj 658 386 r \$0-notas-range-max;
#X obj 700 356 r \$0-notas-range-min;
#X obj 474 506 r \$0-channel;
#X obj 455 446 r \$0-lb;
#X obj 837 241 r \$0-start-stop;
#X obj 987 216 r \$0-lb;
#X obj 907 301 r \$0-intensidade-de-referencia;
#X obj 901 506 r \$0-channel;
#X obj 591 264 r \$0-lb;
#X obj 569 145 r \$0-lb;
#X obj 994 356 r \$0-lb;
#X text 991 499 intensidade é controla pelo MIDI CC 11 expression
para ter crescendo e descresndo após o note on;
#X floatatom 305 503 5 0 0 0 - - - 0;
#X floatatom 423 256 5 0 0 0 - - - 0;
#X floatatom 1074 340 5 0 0 0 - - - 0;
#X msg 880 476 7;
#X obj 844 476 f;
#X obj 911 476 r \$0-lb;
#X obj 84 204 inlet;
#X obj 124 204 s \$0-intervalo;
#X obj 527 356 r \$0-intervalo;
#X connect 0 0 2 1;
#X connect 1 0 2 2;
#X connect 2 0 6 0;
#X connect 3 0 20 0;
#X connect 4 0 70 0;
#X connect 5 0 42 0;
#X connect 6 0 11 0;
#X connect 6 0 66 0;
#X connect 6 1 11 1;
#X connect 7 0 20 2;
#X connect 8 0 20 1;
#X connect 9 0 50 0;
#X connect 12 0 15 0;
#X connect 13 0 12 3;
#X connect 14 0 12 2;
#X connect 15 0 17 0;
#X connect 16 0 15 1;
#X connect 17 0 19 0;
#X connect 18 0 17 1;
#X connect 19 0 4 0;
#X connect 20 0 3 1;
#X connect 20 0 21 0;
#X connect 21 0 12 0;
#X connect 21 1 19 1;
#X connect 22 0 25 1;
#X connect 23 0 22 2;
#X connect 24 0 22 1;
#X connect 25 0 6 2;
#X connect 26 0 2 0;
#X connect 26 2 25 0;
#X connect 26 3 22 0;
#X connect 27 0 6 1;
#X connect 28 0 43 0;
#X connect 29 0 49 0;
#X connect 30 0 48 0;
#X connect 31 0 44 0;
#X connect 32 0 45 0;
#X connect 33 0 46 0;
#X connect 34 0 47 0;
#X connect 35 0 42 2;
#X connect 36 0 42 1;
#X connect 42 0 5 1;
#X connect 42 0 26 0;
#X connect 42 0 67 0;
#X connect 51 0 5 0;
#X connect 52 0 2 4;
#X connect 53 0 2 5;
#X connect 54 0 2 6;
#X connect 55 0 2 7;
#X connect 56 0 11 2;
#X connect 57 0 27 0;
#X connect 58 0 3 0;
#X connect 59 0 8 0;
#X connect 59 0 7 0;
#X connect 60 0 12 1;
#X connect 60 0 68 0;
#X connect 61 0 10 2;
#X connect 62 0 23 0;
#X connect 62 0 24 0;
#X connect 63 0 36 0;
#X connect 63 0 35 0;
#X connect 64 0 13 0;
#X connect 64 0 14 0;
#X connect 64 0 18 0;
#X connect 64 0 16 0;
#X connect 69 0 10 1;
#X connect 70 0 10 0;
#X connect 71 0 69 0;
#X connect 72 0 73 0;
#X connect 74 0 2 3;
