#N canvas -80 294 1920 997 12;
#X obj 472 111 metro;
#X obj 522 304 makenote;
#X obj 522 151 t b b f;
#X obj 522 181 instrument-random-note;
#X obj 522 335 noteout 10;
#X floatatom 593 305 5 0 0 0 - - - 0;
#X floatatom 473 305 5 0 0 0 - - - 0;
#X obj 548 273 f;
#X obj 566 242 line 0;
#X obj 522 111 random-updown-proportional;
#X msg 640 81 200;
#X msg 592 81 2000;
#X text 673 82 range de duracao das notas;
#X obj 472 81 r \$0-start-stop;
#X obj 622 51 r \$0-lb;
#X obj 314 81 loadbang;
#X obj 375 81 s \$0-lb;
#X msg 566 212 127 240000;
#X obj 314 111 inlet;
#X obj 325 141 inlet;
#X obj 354 111 s \$0-start-stop;
#X obj 365 141 s \$0-notas;
#X obj 606 151 r \$0-notas;
#X obj 623 242 r \$0-start-stop;
#X obj 584 273 outlet;
#X connect 0 0 9 0;
#X connect 1 0 4 0;
#X connect 1 0 6 0;
#X connect 1 1 4 1;
#X connect 1 1 5 0;
#X connect 2 0 3 0;
#X connect 2 1 7 0;
#X connect 2 2 1 2;
#X connect 3 0 1 0;
#X connect 7 0 1 1;
#X connect 8 0 7 1;
#X connect 8 0 24 0;
#X connect 9 0 0 1;
#X connect 9 0 2 0;
#X connect 10 0 9 2;
#X connect 11 0 9 1;
#X connect 13 0 0 0;
#X connect 14 0 11 0;
#X connect 14 0 10 0;
#X connect 15 0 16 0;
#X connect 17 0 8 0;
#X connect 18 0 20 0;
#X connect 19 0 21 0;
#X connect 22 0 3 1;
#X connect 23 0 17 0;
