#N canvas 616 190 668 478 12;
#X obj 411 285 bng 15 250 50 0 empty empty empty 17 7 0 10 #fcfcfc
#000000 #000000;
#X floatatom 411 342 5 0 0 0 - - - 0;
#X floatatom 459 342 5 0 0 0 - - - 0;
#X floatatom 459 401 5 0 0 0 - - - 0;
#X obj 459 371 array get \$0-notes;
#X obj 411 312 array size \$0-notes;
#X text 390 266 temporary \, for debug of arrays;
#X obj 241 165 f;
#X obj 277 165 + 1;
#X msg 311 195 1;
#X msg 273 135 0;
#X obj 241 311 f;
#X obj 241 195 t f f;
#X obj 241 285 bng 15 250 50 0 empty empty empty 17 7 0 10 #fcfcfc
#000000 #000000;
#X obj 241 255 moses 0;
#X obj 241 138 bng 15 250 50 0 empty empty empty 17 7 0 10 #fcfcfc
#000000 #000000;
#X obj 241 105 t b b;
#X obj 241 225 array get \$0-notes;
#X obj 240 44 inlet;
#X msg 412 155 const -1;
#X obj 412 185 array define \$0-notes;
#X obj 411 215 array set \$0-notes;
#X obj 202 341 random;
#X obj 202 371 array get \$0-notes;
#X obj 190 311 inlet;
#X text 35 287 bang to get new random note;
#X text 239 24 list of midi notes;
#X floatatom 259 402 5 0 0 0 - - - 0;
#X obj 412 125 array size \$0-notes;
#X obj 241 75 t b a b b;
#X obj 311 165 loadbang;
#X msg 263 341 1;
#X obj 303 341 loadbang;
#X floatatom 277 312 5 0 0 0 - - - 0;
#X msg 412 95 128;
#X obj 202 401 outlet;
#X connect 0 0 5 0;
#X connect 2 0 4 0;
#X connect 4 0 3 0;
#X connect 5 0 1 0;
#X connect 7 0 8 0;
#X connect 7 0 12 0;
#X connect 8 0 7 1;
#X connect 9 0 17 1;
#X connect 10 0 7 1;
#X connect 11 0 22 1;
#X connect 11 0 33 0;
#X connect 12 0 17 0;
#X connect 12 1 11 1;
#X connect 13 0 11 0;
#X connect 14 0 13 0;
#X connect 14 1 15 0;
#X connect 15 0 7 0;
#X connect 16 0 15 0;
#X connect 16 1 10 0;
#X connect 17 0 14 0;
#X connect 18 0 29 0;
#X connect 19 0 20 0;
#X connect 22 0 23 0;
#X connect 23 0 27 0;
#X connect 23 0 35 0;
#X connect 24 0 22 0;
#X connect 29 0 16 0;
#X connect 29 1 21 0;
#X connect 29 2 19 0;
#X connect 29 3 34 0;
#X connect 30 0 9 0;
#X connect 31 0 23 1;
#X connect 32 0 31 0;
#X connect 34 0 28 0;
