#N canvas 788 -10 1920 997 12;
#X obj 702 1117 cordas-mov1;
#X obj 313 455 drums-mov1;
#X obj 434 1142 piano-mov1;
#X obj 928 897 + 7;
#X obj 892 897 f;
#X obj 992 927 - 12;
#X obj 343 961 - 12;
#X obj 314 1081 route 0 1 2 3;
#X obj 314 1021 f;
#X obj 314 991 t b f;
#X obj 314 1051 pack;
#X obj 278 901 f;
#X obj 314 901 f;
#X obj 350 901 f;
#X obj 386 901 f;
#X obj 278 845 route 0 1 2 3;
#X obj 278 785 f;
#X obj 314 785 + 1;
#X obj 350 785 % 4;
#X obj 278 815 t f f;
#X obj 278 885 bng 15 250 50 0 empty empty empty 17 7 0 10 #fcfcfc
#000000 #000000;
#X obj 314 885 bng 15 250 50 0 empty empty empty 17 7 0 10 #fcfcfc
#000000 #000000;
#X obj 350 885 bng 15 250 50 0 empty empty empty 17 7 0 10 #fcfcfc
#000000 #000000;
#X obj 386 885 bng 15 250 50 0 empty empty empty 17 7 0 10 #fcfcfc
#000000 #000000;
#X obj 278 931 + 7;
#X obj 434 991 f;
#X obj 470 991 f;
#X obj 506 991 f;
#X obj 542 991 f;
#X obj 488 931 + 4;
#X obj 524 931 + 7;
#X obj 560 931 + 11;
#X obj 488 901 r tonic;
#X obj 434 1051 - 12;
#X obj 498 1051 - 12;
#X obj 562 1051 - 12;
#X obj 626 1051 - 12;
#X obj 434 1081 pack f f f f f f f f, f 31;
#X obj 626 1021 t f f f;
#X obj 562 1021 t f f f;
#X obj 498 1021 t f f f;
#X obj 434 1021 t f f f;
#X obj 1209 418 s tonic;
#X msg 313 425 65 67 69 71 72;
#X obj 1209 354 loadbang;
#X obj 1270 354 s \$0-lb;
#X obj 744 545 metro 1000;
#X obj 872 575 + 1;
#X obj 836 635 /;
#X obj 890 725 bng 15 250 50 0 empty empty empty 17 7 0 10 #fcfcfc
#000000 #000000;
#X msg 916 715 stop;
#X obj 744 635 / 1000;
#X obj 836 575 f;
#X obj 744 575 t b b;
#X obj 818 665 <;
#X floatatom 795 636 5 0 0 0 - - - 0;
#X floatatom 865 636 5 0 0 0 - - - 0;
#X msg 854 546 0;
#X obj 822 515 t b b;
#X floatatom 799 576 5 0 0 0 - - - 0;
#X obj 744 605 random 1000;
#X obj 854 725 + 1;
#X obj 818 725 f;
#X obj 818 785 t b b;
#X obj 858 785 t b b;
#X obj 898 785 t b b;
#X obj 938 785 t b b;
#X obj 842 805 bng 15 250 50 0 empty empty empty 17 7 0 10 #fcfcfc
#000000 #000000;
#X obj 882 805 bng 15 250 50 0 empty empty empty 17 7 0 10 #fcfcfc
#000000 #000000;
#X obj 922 805 bng 15 250 50 0 empty empty empty 17 7 0 10 #fcfcfc
#000000 #000000;
#X obj 962 805 bng 15 250 50 0 empty empty empty 17 7 0 10 #fcfcfc
#000000 #000000;
#X msg 916 695 0;
#X obj 822 489 bng 15 250 50 0 empty empty empty 17 7 0 10 #fcfcfc
#000000 #000000;
#X floatatom 770 753 5 0 0 0 - - - 0;
#X obj 818 695 sel 1;
#X obj 1209 378 r \$0-lb;
#X msg 726 1067 2 2 1 2 2 2 1;
#X obj 702 1037 t b f;
#X obj 752 1037 r \$0-lb;
#X obj 832 1117 cordas-mov1;
#X msg 856 1067 2 2 1 2 2 2 1;
#X obj 832 1037 t b f;
#X obj 882 1037 r \$0-lb;
#X obj 962 1117 cordas-mov1;
#X msg 986 1067 2 2 1 2 2 2 1;
#X obj 962 1037 t b f;
#X obj 1012 1037 r \$0-lb;
#X obj 1092 1117 cordas-mov1;
#X msg 1116 1067 2 2 1 2 2 2 1;
#X obj 1092 1037 t b f;
#X obj 1142 1037 r \$0-lb;
#X obj 363 394 r \$0-lb;
#X obj 884 605 r \$0-lb;
#X obj 434 1112 t b a;
#X obj 702 1008 f;
#X obj 832 1008 f;
#X obj 962 1008 f;
#X obj 1092 1008 f;
#X msg 736 1087 96;
#X msg 766 1087 55;
#X msg 796 1087 1;
#X msg 866 1087 96;
#X msg 896 1087 55;
#X msg 926 1087 2;
#X msg 996 1087 89;
#X msg 1026 1087 48;
#X msg 1056 1087 3;
#X msg 1126 1087 81;
#X msg 1156 1087 36;
#X msg 1186 1087 4;
#X obj 204 545 metro 1000;
#X obj 332 575 + 1;
#X obj 296 635 /;
#X obj 204 635 / 1000;
#X obj 296 575 f;
#X obj 204 575 t b b;
#X obj 278 665 <;
#X floatatom 250 636 5 0 0 0 - - - 0;
#X floatatom 321 636 5 0 0 0 - - - 0;
#X msg 314 546 0;
#X obj 282 515 t b b;
#X floatatom 259 576 5 0 0 0 - - - 0;
#X obj 204 605 random 1000;
#X obj 278 695 sel 1;
#X obj 344 605 r \$0-lb;
#X msg 204 515 stop;
#X obj 282 395 t b b;
#X obj 313 485 s intensidade;
#X obj 818 755 route 0 1 2 3, f 23;
#X obj 703 1168 r intensidade;
#X obj 282 368 bng 15 250 50 0 empty empty empty 17 7 0 10 #fcfcfc
#000000 #000000;
#X obj 978 785 t b b;
#X msg 916 665 4;
#X floatatom 392 455 5 0 0 0 - - - 0;
#X msg 314 605 230;
#X msg 854 605 230;
#X text 865 972 acionar direto com delay;
#X floatatom 778 918 5 0 0 0 - - - 0;
#X obj 278 755 t b b b b b b b;
#X floatatom 593 1115 5 0 0 0 - - - 0;
#X obj 689 862 sel 0;
#X obj 689 833 f;
#X obj 725 833 + 1;
#X obj 761 833 % 2;
#X obj 689 891 bng 15 250 50 0 empty empty empty 17 7 0 10 #fcfcfc
#000000 #000000;
#X obj 593 1137 * 0.8;
#X obj 871 1165 * 0.8;
#X obj 1391 484 f;
#X obj 1491 514 - 12;
#X obj 1445 364 f;
#X obj 1481 364 + 1;
#X obj 1517 364 % 3;
#X obj 1445 394 route 0 1 2, f 12;
#X obj 1427 484 +;
#X obj 1391 364 t b b;
#X msg 1209 398 67;
#X msg 1475 424 6;
#X msg 1505 424 6;
#X obj 964 897 moses 72;
#X obj 1463 484 moses 72;
#X obj 910 867 r tonic;
#X obj 1409 454 r tonic;
#X msg 1445 424 11;
#X obj 1391 623 cordas-mov1;
#X obj 1391 543 t b f;
#X obj 1441 543 r \$0-lb;
#X obj 1391 514 f;
#X msg 1431 593 81;
#X msg 1461 593 36;
#X msg 1491 593 4;
#X obj 1391 348 bng 15 250 50 0 empty empty empty 17 7 0 10 #fcfcfc
#000000 #000000;
#X msg 1415 573 2 2 3 2 3;
#X msg 1401 593 5;
#X obj 1468 1065 piano-mov1;
#X obj 1366 914 f;
#X obj 1402 914 f;
#X obj 1372 838 + 1;
#X obj 1366 898 bng 15 250 50 0 empty empty empty 17 7 0 10 #fcfcfc
#000000 #000000;
#X obj 1402 898 bng 15 250 50 0 empty empty empty 17 7 0 10 #fcfcfc
#000000 #000000;
#X obj 1468 914 f;
#X obj 1504 914 f;
#X obj 1522 854 r tonic;
#X obj 1468 974 - 12;
#X obj 1532 974 - 12;
#X obj 1532 944 t f f f;
#X obj 1468 944 t f f f;
#X obj 1468 1035 t b a;
#X obj 1522 884 + 7;
#X obj 1468 1004 pack f f f f, f 16;
#X obj 314 931 moses 72;
#X obj 1402 944 - 1;
#X obj 1366 944 - 1;
#X obj 1445 808 t b b b;
#X obj 1366 868 route 0 1;
#X obj 1408 838 % 2;
#X obj 1419 1035 print;
#X obj 1336 838 f 1;
#X obj 1435 787 bng 15 250 50 0 empty empty empty 17 7 0 10 #fcfcfc
#000000 #000000;
#X text 1511 809 ciclo 2 piano;
#X text 1552 365 ciclo 2 cordas;
#X connect 1 0 127 0;
#X connect 1 0 133 0;
#X connect 3 0 158 0;
#X connect 4 0 3 0;
#X connect 4 0 94 0;
#X connect 4 0 95 0;
#X connect 4 0 96 0;
#X connect 4 0 97 0;
#X connect 4 0 137 0;
#X connect 5 0 4 1;
#X connect 5 0 158 0;
#X connect 6 0 9 0;
#X connect 7 0 25 1;
#X connect 7 1 26 1;
#X connect 7 2 27 1;
#X connect 7 3 28 1;
#X connect 8 0 10 0;
#X connect 9 0 8 0;
#X connect 9 1 10 1;
#X connect 10 0 7 0;
#X connect 11 0 24 0;
#X connect 12 0 24 0;
#X connect 13 0 24 0;
#X connect 14 0 24 0;
#X connect 15 0 22 0;
#X connect 15 1 23 0;
#X connect 15 2 20 0;
#X connect 15 3 21 0;
#X connect 16 0 17 0;
#X connect 16 0 19 0;
#X connect 17 0 18 0;
#X connect 18 0 16 1;
#X connect 19 0 15 0;
#X connect 19 1 8 1;
#X connect 20 0 11 0;
#X connect 21 0 12 0;
#X connect 22 0 13 0;
#X connect 23 0 14 0;
#X connect 24 0 189 0;
#X connect 25 0 41 0;
#X connect 26 0 40 0;
#X connect 27 0 39 0;
#X connect 28 0 38 0;
#X connect 29 0 26 1;
#X connect 30 0 27 1;
#X connect 31 0 28 1;
#X connect 32 0 29 0;
#X connect 32 0 30 0;
#X connect 32 0 31 0;
#X connect 32 0 25 1;
#X connect 33 0 37 0;
#X connect 34 0 37 2;
#X connect 35 0 37 4;
#X connect 36 0 37 6;
#X connect 37 0 93 0;
#X connect 38 0 36 0;
#X connect 38 1 37 7;
#X connect 38 2 14 1;
#X connect 39 0 35 0;
#X connect 39 1 37 5;
#X connect 39 2 13 1;
#X connect 40 0 34 0;
#X connect 40 1 37 3;
#X connect 40 2 12 1;
#X connect 41 0 33 0;
#X connect 41 1 37 1;
#X connect 41 2 11 1;
#X connect 43 0 1 1;
#X connect 44 0 45 0;
#X connect 46 0 53 0;
#X connect 47 0 52 1;
#X connect 48 0 54 1;
#X connect 48 0 56 0;
#X connect 49 0 58 0;
#X connect 50 0 46 0;
#X connect 51 0 55 0;
#X connect 51 0 54 0;
#X connect 52 0 47 0;
#X connect 52 0 48 0;
#X connect 52 0 59 0;
#X connect 53 0 60 0;
#X connect 53 1 52 0;
#X connect 54 0 74 0;
#X connect 57 0 52 1;
#X connect 58 0 46 0;
#X connect 58 1 57 0;
#X connect 60 0 51 0;
#X connect 61 0 62 1;
#X connect 62 0 61 0;
#X connect 62 0 73 0;
#X connect 62 0 128 0;
#X connect 63 0 49 0;
#X connect 63 1 67 0;
#X connect 64 0 49 0;
#X connect 64 1 68 0;
#X connect 65 0 49 0;
#X connect 65 1 69 0;
#X connect 66 0 49 0;
#X connect 66 1 70 0;
#X connect 71 0 62 1;
#X connect 72 0 58 0;
#X connect 74 0 62 0;
#X connect 75 0 155 0;
#X connect 76 0 0 3;
#X connect 77 0 0 0;
#X connect 77 1 0 2;
#X connect 78 0 76 0;
#X connect 78 0 98 0;
#X connect 78 0 99 0;
#X connect 78 0 100 0;
#X connect 80 0 79 2;
#X connect 81 0 79 0;
#X connect 81 1 79 1;
#X connect 82 0 80 0;
#X connect 82 0 101 0;
#X connect 82 0 102 0;
#X connect 82 0 103 0;
#X connect 84 0 83 2;
#X connect 85 0 83 0;
#X connect 85 1 83 1;
#X connect 86 0 84 0;
#X connect 86 0 104 0;
#X connect 86 0 105 0;
#X connect 86 0 106 0;
#X connect 88 0 87 2;
#X connect 89 0 87 0;
#X connect 89 1 87 1;
#X connect 90 0 88 0;
#X connect 90 0 107 0;
#X connect 90 0 108 0;
#X connect 90 0 109 0;
#X connect 91 0 43 0;
#X connect 92 0 135 0;
#X connect 93 0 2 0;
#X connect 93 1 2 1;
#X connect 94 0 77 0;
#X connect 95 0 81 0;
#X connect 96 0 85 0;
#X connect 97 0 89 0;
#X connect 98 0 0 4;
#X connect 99 0 0 5;
#X connect 100 0 0 7;
#X connect 101 0 79 3;
#X connect 102 0 79 4;
#X connect 103 0 79 6;
#X connect 104 0 83 3;
#X connect 105 0 83 4;
#X connect 106 0 83 6;
#X connect 107 0 87 3;
#X connect 108 0 87 4;
#X connect 109 0 87 6;
#X connect 110 0 115 0;
#X connect 111 0 114 1;
#X connect 112 0 116 1;
#X connect 112 0 118 0;
#X connect 113 0 117 0;
#X connect 113 0 116 0;
#X connect 114 0 111 0;
#X connect 114 0 112 0;
#X connect 114 0 121 0;
#X connect 115 0 122 0;
#X connect 115 1 114 0;
#X connect 116 0 123 0;
#X connect 119 0 114 1;
#X connect 120 0 110 0;
#X connect 120 1 119 0;
#X connect 122 0 113 0;
#X connect 123 0 138 0;
#X connect 124 0 134 0;
#X connect 125 0 110 0;
#X connect 126 0 120 0;
#X connect 126 1 1 0;
#X connect 128 0 63 0;
#X connect 128 1 64 0;
#X connect 128 2 65 0;
#X connect 128 3 66 0;
#X connect 128 4 131 0;
#X connect 129 0 145 0;
#X connect 130 0 126 0;
#X connect 131 1 50 0;
#X connect 131 1 71 0;
#X connect 131 1 132 0;
#X connect 132 0 48 1;
#X connect 134 0 112 1;
#X connect 135 0 48 1;
#X connect 138 0 16 0;
#X connect 138 1 141 0;
#X connect 138 2 25 0;
#X connect 138 3 26 0;
#X connect 138 4 27 0;
#X connect 138 5 28 0;
#X connect 138 6 119 0;
#X connect 140 0 4 0;
#X connect 140 0 144 0;
#X connect 141 0 142 0;
#X connect 141 0 140 0;
#X connect 142 0 143 0;
#X connect 143 0 141 1;
#X connect 145 0 2 2;
#X connect 145 0 139 0;
#X connect 145 0 146 0;
#X connect 146 0 0 6;
#X connect 146 0 87 5;
#X connect 146 0 79 5;
#X connect 146 0 83 5;
#X connect 147 0 153 0;
#X connect 147 0 166 0;
#X connect 148 0 147 1;
#X connect 148 0 159 0;
#X connect 149 0 150 0;
#X connect 149 0 152 0;
#X connect 150 0 151 0;
#X connect 151 0 149 1;
#X connect 152 0 162 0;
#X connect 152 1 156 0;
#X connect 152 2 157 0;
#X connect 153 0 159 0;
#X connect 154 0 147 0;
#X connect 154 1 149 0;
#X connect 155 0 42 0;
#X connect 156 0 153 1;
#X connect 157 0 153 1;
#X connect 158 0 4 1;
#X connect 158 1 5 0;
#X connect 159 0 147 1;
#X connect 159 1 148 0;
#X connect 160 0 4 1;
#X connect 161 0 147 1;
#X connect 162 0 153 1;
#X connect 164 0 163 0;
#X connect 164 1 163 2;
#X connect 165 0 171 0;
#X connect 165 0 167 0;
#X connect 165 0 168 0;
#X connect 165 0 169 0;
#X connect 165 0 172 0;
#X connect 166 0 164 0;
#X connect 167 0 163 4;
#X connect 168 0 163 5;
#X connect 169 0 163 7;
#X connect 170 0 154 0;
#X connect 171 0 163 3;
#X connect 172 0 163 1;
#X connect 174 0 191 0;
#X connect 175 0 190 0;
#X connect 176 0 194 0;
#X connect 177 0 174 0;
#X connect 178 0 175 0;
#X connect 179 0 185 0;
#X connect 180 0 184 0;
#X connect 181 0 179 1;
#X connect 181 0 187 0;
#X connect 182 0 188 0;
#X connect 183 0 188 2;
#X connect 184 0 183 0;
#X connect 184 1 188 3;
#X connect 184 2 175 1;
#X connect 185 0 182 0;
#X connect 185 1 188 1;
#X connect 185 2 174 1;
#X connect 186 0 173 0;
#X connect 186 1 173 1;
#X connect 187 0 180 1;
#X connect 188 0 195 0;
#X connect 189 0 9 0;
#X connect 189 1 6 0;
#X connect 190 0 180 1;
#X connect 191 0 179 1;
#X connect 192 0 196 0;
#X connect 192 1 179 0;
#X connect 192 2 180 0;
#X connect 193 0 177 0;
#X connect 193 1 178 0;
#X connect 194 0 196 1;
#X connect 196 0 176 0;
#X connect 196 0 193 0;
#X connect 197 0 192 0;
