#N canvas -487 -19 1920 997 12;
#X obj 946 5 inlet;
#X msg 1001 65 const -1;
#X msg 1038 245 1;
#X obj 964 215 f;
#X obj 1002 215 + 1;
#X msg 982 185 0;
#X obj 1002 325 bng 15 250 50 0 empty empty empty 17 7 0 10 #fcfcfc
#000000 #000000;
#X obj 964 351 f;
#X obj 964 245 t f f;
#X obj 966 325 bng 15 250 50 0 empty empty empty 17 7 0 10 #fcfcfc
#000000 #000000;
#X obj 964 155 t b b;
#X obj 964 305 moses 0;
#X obj 1038 216 loadbang;
#X obj 1001 95 array define -yrange 0 11 \$0-mode 12;
#X obj 983 125 array set \$0-mode;
#X obj 964 275 array get \$0-mode;
#X text 645 134 tonic;
#X obj 646 305 moses;
#X obj 646 380 moses;
#X obj 696 305 - 12;
#X msg 938 411 1;
#X obj 866 411 + 1;
#X obj 938 381 loadbang;
#X obj 678 471 moses, f 7;
#X obj 742 471 + 1;
#X obj 724 561 f;
#X obj 760 561 + 1;
#X obj 831 561 f;
#X obj 706 441 +;
#X obj 830 411 f;
#X obj 706 411 t f b;
#X msg 742 531 0;
#X text 793 133 min;
#X text 740 133 max;
#X obj 646 155 inlet;
#X obj 902 411 mod;
#X obj 824 214 max 0;
#X obj 742 215 min 127;
#X obj 792 154 inlet;
#X obj 742 154 inlet;
#X obj 695 68 bng 15 250 50 0 empty empty empty 17 7 0 10 #fcfcfc #000000
#000000;
#X obj 830 442 array get \$0-mode;
#X obj 701 591 array set \$0-notes;
#X obj 792 184 t b f;
#X obj 742 184 t b f;
#X obj 646 185 f;
#X floatatom 694 155 5 0 0 0 - - - 0;
#X floatatom 842 155 5 0 0 0 - - - 0;
#X obj 678 501 t f f b;
#X msg 678 245 const -1;
#X obj 678 275 array define -yrange 0 127 \$0-notes 128;
#X obj 646 215 t f b;
#X obj 380 748 f;
#X obj 448 778 random-maxmin;
#X obj 515 748 -;
#X obj 533 718 * 2;
#X obj 430 808 +;
#X obj 416 748 t f b;
#X obj 418 661 bng 15 250 50 0 empty empty empty 17 7 0 10 #fcfcfc
#000000 #000000;
#X obj 492 658 inlet;
#X text 533 659 interval range;
#X obj 306 561 inlet;
#X obj 380 621 f -1;
#X obj 380 641 moses 0;
#X obj 380 661 bng 15 250 50 0 empty empty empty 17 7 0 10 #fcfcfc
#000000 #000000;
#X obj 430 928 outlet;
#X obj 380 687 f;
#X text 64 560 bang for new note in a intervalar range of the last.
First ever note in middle of range, f 33;
#X msg 430 591 -1;
#X obj 398 501 / 2;
#X obj 430 838 moses;
#X obj 430 868 moses;
#X obj 430 898 array get \$0-notes;
#X msg 520 868 1;
#X msg 480 868 0;
#X obj 327 752 bng 15 250 50 0 empty empty empty 17 7 0 10 #fcfcfc
#000000 #000000;
#X obj 557 868 loadbang;
#X obj 398 561 t f b;
#X obj 398 531 i;
#X obj 380 717 t f f;
#X obj 306 591 spigot;
#X msg 353 591 0;
#X msg 382 591 1;
#X obj 831 502 t b b b;
#X obj 946 36 t b b l b b;
#X text 988 5 mode;
#X floatatom 486 929 5 0 0 0 - - - 0;
#X floatatom 873 600 5 0 0 0 - - - 0;
#X floatatom 289 729 5 0 0 0 - - - 0;
#X floatatom 509 818 5 0 0 0 - - - 0;
#X floatatom 357 788 5 0 0 0 - - - 0;
#X msg 595 133 60;
#X msg 749 90 80;
#X msg 799 87 30;
#X obj 492 688 t f f f;
#X connect 0 0 84 0;
#X connect 1 0 13 0;
#X connect 2 0 15 1;
#X connect 3 0 4 0;
#X connect 3 0 8 0;
#X connect 4 0 3 1;
#X connect 5 0 3 1;
#X connect 6 0 3 0;
#X connect 7 0 35 1;
#X connect 8 0 15 0;
#X connect 8 1 7 1;
#X connect 9 0 7 0;
#X connect 10 0 3 0;
#X connect 10 1 5 0;
#X connect 11 0 9 0;
#X connect 11 1 6 0;
#X connect 12 0 2 0;
#X connect 15 0 11 0;
#X connect 17 0 18 0;
#X connect 17 1 19 0;
#X connect 18 0 30 0;
#X connect 18 1 23 0;
#X connect 19 0 17 0;
#X connect 20 0 41 1;
#X connect 21 0 35 0;
#X connect 22 0 20 0;
#X connect 23 0 48 0;
#X connect 23 1 83 0;
#X connect 24 0 23 1;
#X connect 25 0 26 0;
#X connect 25 0 42 1;
#X connect 26 0 25 1;
#X connect 26 0 27 1;
#X connect 27 0 69 0;
#X connect 27 0 70 1;
#X connect 27 0 87 0;
#X connect 28 0 18 0;
#X connect 29 0 21 0;
#X connect 29 0 41 0;
#X connect 30 0 28 0;
#X connect 30 1 29 0;
#X connect 31 0 25 1;
#X connect 31 0 29 1;
#X connect 34 0 45 0;
#X connect 35 0 29 1;
#X connect 36 0 17 1;
#X connect 36 0 18 1;
#X connect 37 0 24 0;
#X connect 38 0 43 0;
#X connect 38 0 47 0;
#X connect 39 0 44 0;
#X connect 39 0 46 0;
#X connect 40 0 45 0;
#X connect 41 0 28 1;
#X connect 43 0 40 0;
#X connect 43 1 36 0;
#X connect 44 0 40 0;
#X connect 44 1 37 0;
#X connect 45 0 51 0;
#X connect 48 0 30 0;
#X connect 48 1 42 0;
#X connect 48 2 25 0;
#X connect 49 0 50 0;
#X connect 51 0 17 0;
#X connect 51 1 49 0;
#X connect 52 0 57 0;
#X connect 52 0 90 0;
#X connect 53 0 56 1;
#X connect 53 0 89 0;
#X connect 54 0 53 2;
#X connect 55 0 54 1;
#X connect 56 0 70 0;
#X connect 57 0 56 0;
#X connect 57 1 53 0;
#X connect 58 0 52 0;
#X connect 59 0 94 0;
#X connect 61 0 80 0;
#X connect 62 0 63 0;
#X connect 63 0 64 0;
#X connect 63 1 58 0;
#X connect 64 0 66 0;
#X connect 66 0 79 0;
#X connect 66 0 88 0;
#X connect 68 0 62 1;
#X connect 69 0 78 0;
#X connect 70 0 71 0;
#X connect 70 1 75 0;
#X connect 71 0 75 0;
#X connect 71 1 72 0;
#X connect 71 1 52 1;
#X connect 72 0 65 0;
#X connect 72 0 86 0;
#X connect 73 0 72 1;
#X connect 74 0 71 1;
#X connect 75 0 52 0;
#X connect 76 0 73 0;
#X connect 76 0 74 0;
#X connect 77 0 66 1;
#X connect 77 1 68 0;
#X connect 78 0 77 0;
#X connect 79 0 52 0;
#X connect 79 1 62 1;
#X connect 80 0 62 0;
#X connect 81 0 80 1;
#X connect 82 0 80 1;
#X connect 83 0 82 0;
#X connect 83 1 27 0;
#X connect 83 2 31 0;
#X connect 84 0 40 0;
#X connect 84 1 10 0;
#X connect 84 2 14 0;
#X connect 84 3 1 0;
#X connect 84 4 81 0;
#X connect 91 0 45 0;
#X connect 92 0 44 0;
#X connect 93 0 43 0;
#X connect 94 0 53 1;
#X connect 94 1 54 0;
#X connect 94 2 55 0;
