#N canvas 42 87 1920 938 12;
#X text 808 202 tonic;
#X obj 809 433 moses;
#X obj 809 463 moses;
#X obj 859 433 - 12;
#X msg 1101 494 1;
#X obj 1029 494 + 1;
#X obj 1101 464 loadbang;
#X obj 841 555 moses, f 7;
#X obj 905 555 + 1;
#X obj 841 585 t f f;
#X obj 905 644 f;
#X obj 941 644 + 1;
#X obj 873 614 t f b;
#X obj 1014 644 f;
#X obj 869 525 +;
#X obj 993 494 f;
#X obj 869 494 t f b;
#X obj 580 672 random;
#X obj 580 762 f;
#X obj 648 792 random-maxmin;
#X obj 736 762 -;
#X obj 736 702 t f f;
#X obj 754 732 * 2;
#X obj 630 822 +;
#X obj 616 762 t f b;
#X msg 923 614 0;
#X msg 1167 108 const 0;
#X msg 841 313 const 0;
#X text 956 231 min;
#X text 863 29 mode;
#X text 903 231 max;
#X obj 809 223 inlet;
#X obj 1012 138 unpack f f f f f f f;
#X obj 1012 158 bng 15 250 50 0 empty empty empty 17 7 0 10 #fcfcfc
#000000 #000000;
#X obj 1034 158 bng 15 250 50 0 empty empty empty 17 7 0 10 #fcfcfc
#000000 #000000;
#X obj 1057 158 bng 15 250 50 0 empty empty empty 17 7 0 10 #fcfcfc
#000000 #000000;
#X obj 1080 158 bng 15 250 50 0 empty empty empty 17 7 0 10 #fcfcfc
#000000 #000000;
#X obj 1103 158 bng 15 250 50 0 empty empty empty 17 7 0 10 #fcfcfc
#000000 #000000;
#X obj 1126 158 bng 15 250 50 0 empty empty empty 17 7 0 10 #fcfcfc
#000000 #000000;
#X obj 1149 157 bng 15 250 50 0 empty empty empty 17 7 0 10 #fcfcfc
#000000 #000000;
#X obj 1012 184 f;
#X obj 1047 184 + 1;
#X msg 1083 184 1;
#X obj 1012 108 t a b;
#X obj 1065 494 mod;
#X obj 858 78 t b a a b;
#X obj 987 312 max 0;
#X obj 905 313 min 127;
#X obj 858 48 inlet;
#X obj 955 252 inlet;
#X obj 905 252 inlet;
#X msg 832 373 128;
#X obj 858 226 bng 15 250 50 0 empty empty empty 17 7 0 10 #fcfcfc
#000000 #000000;
#X obj 73 95 bng 15 250 50 0 empty empty empty 17 7 0 10 #fcfcfc #000000
#000000;
#X floatatom 73 152 5 0 0 0 - - - 0;
#X obj 73 187 bng 15 250 50 0 empty empty empty 17 7 0 10 #fcfcfc #000000
#000000;
#X floatatom 73 244 5 0 0 0 - - - 0;
#X floatatom 224 94 5 0 0 0 - - - 0;
#X floatatom 224 153 5 0 0 0 - - - 0;
#X floatatom 226 186 5 0 0 0 - - - 0;
#X floatatom 226 245 5 0 0 0 - - - 0;
#X obj 809 283 t f b b;
#X obj 878 138 array set \$0-mode;
#X obj 993 525 array get \$0-mode;
#X obj 1012 213 array size \$0-mode;
#X obj 73 122 array size \$0-mode;
#X obj 1167 138 array define \$0-mode;
#X obj 224 123 array get \$0-mode;
#X obj 1014 674 array size \$0-notes;
#X obj 873 674 array set \$0-notes;
#X obj 619 638 array size \$0-notes;
#X obj 832 403 array size \$0-notes;
#X obj 226 215 array get \$0-notes;
#X obj 73 214 array size \$0-notes;
#X obj 841 343 array define \$0-notes;
#X obj 490 618 bng 15 250 50 0 empty empty empty 17 7 0 10 #fcfcfc
#000000 #000000;
#X obj 692 672 inlet;
#X text 733 673 interval range;
#X obj 392 538 inlet;
#X obj 452 568 f -1;
#X obj 452 598 moses 0;
#X obj 982 585 t b b;
#X obj 770 612 bng 15 250 50 0 empty empty empty 17 7 0 10 #fcfcfc
#000000 #000000;
#X obj 452 618 bng 15 250 50 0 empty empty empty 17 7 0 10 #fcfcfc
#000000 #000000;
#X obj 427 672 inlet;
#X obj 630 942 outlet;
#X obj 452 642 f;
#X text -23 533 bang for new note in a intervalar range of the last.
First ever note in middle of range;
#X text 63 663 bang for new random note in range this note becomes
reference for the nexts;
#X msg 477 538 -1;
#X obj 470 408 / 2;
#X obj 457 508 inlet;
#X text 250 507 bang to reset reference note;
#X obj 470 438 i;
#X obj 955 282 t b f;
#X obj 905 282 t b f;
#X obj 470 378 array size \$0-notes;
#X obj 630 852 moses;
#X obj 680 852 array size \$0-notes;
#X obj 630 882 moses;
#X obj 630 912 array get \$0-notes;
#X msg 720 882 1;
#X msg 680 882 0;
#X obj 593 738 bng 15 250 50 0 empty empty empty 17 7 0 10 #fcfcfc
#000000 #000000;
#X msg 504 755 0;
#X obj 757 882 loadbang;
#X text 75 63 for debug of arrays;
#X text 375 35 calcula todas as notas no range do instrumento em um
modo a partir de uma tonica dá uma nova nota baseado em um range de
intervalos possíveis sempre calcula a proxima a partir da anterior
, f 61;
#X obj 809 253 f;
#X floatatom 1027 290 5 0 0 0 - - - 0;
#X floatatom 1090 284 5 0 0 0 - - - 0;
#X connect 1 0 2 0;
#X connect 1 1 3 0;
#X connect 2 0 16 0;
#X connect 2 1 7 0;
#X connect 3 0 1 0;
#X connect 4 0 63 1;
#X connect 5 0 44 0;
#X connect 6 0 4 0;
#X connect 7 0 9 0;
#X connect 7 1 81 0;
#X connect 8 0 7 1;
#X connect 9 0 16 0;
#X connect 9 1 12 0;
#X connect 10 0 11 0;
#X connect 10 0 69 1;
#X connect 11 0 10 1;
#X connect 11 0 13 1;
#X connect 12 0 69 0;
#X connect 12 1 10 0;
#X connect 13 0 68 0;
#X connect 14 0 2 0;
#X connect 15 0 5 0;
#X connect 15 0 63 0;
#X connect 16 0 14 0;
#X connect 16 1 15 0;
#X connect 17 0 18 0;
#X connect 17 0 79 1;
#X connect 18 0 24 0;
#X connect 19 0 23 1;
#X connect 20 0 19 2;
#X connect 21 0 20 0;
#X connect 21 1 22 0;
#X connect 22 0 20 1;
#X connect 23 0 97 0;
#X connect 24 0 23 0;
#X connect 24 1 19 0;
#X connect 25 0 10 1;
#X connect 25 0 15 1;
#X connect 26 0 66 0;
#X connect 27 0 74 0;
#X connect 31 0 108 0;
#X connect 32 0 33 0;
#X connect 32 1 34 0;
#X connect 32 2 35 0;
#X connect 32 3 36 0;
#X connect 32 4 37 0;
#X connect 32 5 38 0;
#X connect 32 6 39 0;
#X connect 33 0 40 0;
#X connect 34 0 40 0;
#X connect 35 0 40 0;
#X connect 36 0 40 0;
#X connect 37 0 40 0;
#X connect 38 0 40 0;
#X connect 39 0 40 0;
#X connect 40 0 41 0;
#X connect 40 0 44 1;
#X connect 40 0 64 0;
#X connect 41 0 40 1;
#X connect 42 0 40 1;
#X connect 43 0 32 0;
#X connect 43 1 42 0;
#X connect 44 0 15 1;
#X connect 45 0 52 0;
#X connect 45 1 62 0;
#X connect 45 2 43 0;
#X connect 45 3 26 0;
#X connect 46 0 1 1;
#X connect 46 0 2 1;
#X connect 47 0 8 0;
#X connect 48 0 45 0;
#X connect 49 0 94 0;
#X connect 49 0 110 0;
#X connect 50 0 95 0;
#X connect 50 0 109 0;
#X connect 51 0 71 0;
#X connect 52 0 108 0;
#X connect 53 0 65 0;
#X connect 55 0 73 0;
#X connect 57 0 67 0;
#X connect 59 0 72 0;
#X connect 61 0 1 0;
#X connect 61 1 51 0;
#X connect 61 2 27 0;
#X connect 63 0 14 1;
#X connect 65 0 54 0;
#X connect 67 0 58 0;
#X connect 70 0 17 1;
#X connect 72 0 60 0;
#X connect 73 0 56 0;
#X connect 75 0 18 0;
#X connect 76 0 19 1;
#X connect 76 0 21 0;
#X connect 78 0 79 0;
#X connect 79 0 80 0;
#X connect 80 0 83 0;
#X connect 80 1 75 0;
#X connect 81 0 82 0;
#X connect 81 1 13 0;
#X connect 81 1 25 0;
#X connect 82 0 70 0;
#X connect 82 0 98 0;
#X connect 82 0 96 0;
#X connect 83 0 86 0;
#X connect 84 0 17 0;
#X connect 86 0 79 1;
#X connect 86 0 18 0;
#X connect 89 0 79 1;
#X connect 90 0 93 0;
#X connect 91 0 89 0;
#X connect 93 0 86 1;
#X connect 93 0 89 0;
#X connect 94 0 52 0;
#X connect 94 1 46 0;
#X connect 95 0 52 0;
#X connect 95 1 47 0;
#X connect 96 0 90 0;
#X connect 97 0 99 0;
#X connect 97 1 103 0;
#X connect 98 0 97 1;
#X connect 99 0 103 0;
#X connect 99 1 100 0;
#X connect 99 1 18 1;
#X connect 100 0 85 0;
#X connect 101 0 100 1;
#X connect 102 0 99 1;
#X connect 103 0 18 0;
#X connect 104 0 18 1;
#X connect 105 0 101 0;
#X connect 105 0 102 0;
#X connect 108 0 61 0;
