#N canvas 51 56 1920 997 12;
#X obj 307 496 f;
#X obj 307 587 -;
#X obj 306 617 moses, f 10;
#X obj 374 587 + 1;
#X floatatom 259 527 5 0 0 0 - - - 0;
#X floatatom 259 557 5 0 0 0 - - - 0;
#X floatatom 259 588 5 0 0 0 - - - 0;
#X obj 991 534 f;
#X obj 991 655 moses, f 10;
#X obj 1058 625 + 1;
#X floatatom 943 565 5 0 0 0 - - - 0;
#X floatatom 943 595 5 0 0 0 - - - 0;
#X floatatom 943 626 5 0 0 0 - - - 0;
#X obj 991 625 +;
#X floatatom 944 656 5 0 0 0 - - - 0;
#X floatatom 259 467 5 0 0 0 - - - 0;
#X floatatom 364 467 5 0 0 0 - - - 0;
#X floatatom 943 505 5 0 0 0 - - - 0;
#X floatatom 1048 505 5 0 0 0 - - - 0;
#X floatatom 392 618 5 0 0 0 - - - 0;
#X floatatom 1076 655 5 0 0 0 - - - 0;
#X floatatom 258 618 5 0 0 0 - - - 0;
#X obj 365 526 random-maxmin;
#X obj 409 465 loadbang;
#X obj 339 556 /;
#X obj 307 526 t f f b;
#X obj 1057 566 random-maxmin;
#X obj 1101 505 loadbang;
#X obj 991 564 t f f b;
#X obj 1023 594 /;
#X obj 298 395 random-maxmin;
#X obj 437 393 random-maxmin;
#X floatatom 438 428 5 0 0 0 - - - 0;
#X obj 176 510 bng 15 250 50 0 empty empty empty 17 7 0 10 #fcfcfc
#000000 #000000;
#X obj 718 416 random-around;
#X obj 1008 450 random-maxmin;
#X obj 985 399 bng 15 250 50 0 empty empty empty 17 7 0 10 #fcfcfc
#000000 #000000;
#X obj 365 297 t b b b;
#X msg 805 385 0.5;
#X obj 342 203 f;
#X obj 414 203 + 1;
#X obj 378 203 f;
#X obj 258 172 metro;
#X obj 217 143 bng 15 250 50 0 empty empty empty 17 7 0 10 #fcfcfc
#000000 #000000;
#X msg 251 134 stop;
#X obj 679 291 delay;
#X obj 679 261 random-maxmin;
#X msg 724 217 3000;
#X msg 773 216 2000;
#X obj 630 169 moses 0;
#X obj 630 188 bng 15 250 50 0 empty empty empty 17 7 0 10 #fcfcfc
#000000 #000000;
#X obj 668 188 bng 15 250 50 0 empty empty empty 17 7 0 10 #fcfcfc
#000000 #000000;
#X msg 662 150 0;
#X obj 630 214 t b b b;
#X obj 678 323 bng 15 250 50 0 empty empty empty 17 7 0 10 #fcfcfc
#000000 #000000;
#X floatatom 720 458 5 0 0 0 - - - 0;
#X msg 371 161 0;
#X obj 880 474 bng 15 250 50 0 empty empty empty 17 7 0 10 #fcfcfc
#000000 #000000;
#X obj 983 324 t b b b;
#X obj 342 233 route 0 1 2 3 4;
#X obj 1058 697 t b f;
#X obj 301 654 t f f b f;
#X obj 374 647 t f f f;
#X obj 658 782 makenote;
#X obj 634 700 t b b f;
#X msg 677 751 90;
#X obj 1407 378 inlet;
#X msg 1471 438 const -1;
#X obj 1281 438 array set \$0-notes;
#X obj 1407 408 t l b;
#X obj 1471 468 array define -yrange 0 127 \$0-notes 8;
#X obj 453 759 f;
#X obj 525 758 + 1;
#X obj 595 758 % 4;
#X obj 451 828 array get \$0-notes;
#X msg 511 790 1;
#X msg 1337 328 60 64 67 71;
#X obj 643 506 t f f f;
#X obj 988 699 t f f f;
#X floatatom 699 863 5 0 0 0 - - - 0;
#X floatatom 663 863 5 0 0 0 - - - 0;
#X obj 664 843 noteout 9;
#X obj 630 150 f -1;
#X msg 655 94 -1;
#X msg 314 342 1000;
#X msg 379 365 800;
#X msg 476 355 100;
#X msg 533 356 50;
#X msg 1024 397 1000;
#X msg 1089 420 800;
#X msg 764 386 25;
#X msg 409 496 5;
#X msg 453 496 5;
#X msg 1101 536 5;
#X msg 1144 535 5;
#X connect 0 0 25 0;
#X connect 1 0 2 0;
#X connect 1 0 6 0;
#X connect 2 0 21 0;
#X connect 2 0 61 0;
#X connect 2 1 19 0;
#X connect 2 1 62 0;
#X connect 3 0 2 1;
#X connect 7 0 28 0;
#X connect 8 0 14 0;
#X connect 8 0 78 0;
#X connect 8 1 20 0;
#X connect 8 1 60 0;
#X connect 9 0 8 1;
#X connect 13 0 8 0;
#X connect 13 0 12 0;
#X connect 22 0 24 1;
#X connect 23 0 91 0;
#X connect 23 0 92 0;
#X connect 24 0 5 0;
#X connect 24 0 1 1;
#X connect 25 0 1 0;
#X connect 25 1 4 0;
#X connect 25 1 24 0;
#X connect 25 2 22 0;
#X connect 26 0 29 1;
#X connect 27 0 93 0;
#X connect 27 0 94 0;
#X connect 28 0 13 0;
#X connect 28 1 10 0;
#X connect 28 1 29 0;
#X connect 28 2 26 0;
#X connect 29 0 11 0;
#X connect 29 0 13 1;
#X connect 30 0 0 0;
#X connect 31 0 32 0;
#X connect 31 0 3 0;
#X connect 33 0 0 0;
#X connect 34 0 55 0;
#X connect 34 0 77 0;
#X connect 35 0 9 0;
#X connect 36 0 35 0;
#X connect 37 0 41 0;
#X connect 37 1 30 0;
#X connect 37 2 31 0;
#X connect 38 0 34 3;
#X connect 39 0 41 1;
#X connect 39 0 59 0;
#X connect 40 0 39 1;
#X connect 41 0 40 0;
#X connect 42 0 39 0;
#X connect 43 0 42 0;
#X connect 44 0 42 0;
#X connect 45 0 54 0;
#X connect 46 0 45 0;
#X connect 47 0 46 1;
#X connect 48 0 46 2;
#X connect 49 0 50 0;
#X connect 49 1 51 0;
#X connect 50 0 53 0;
#X connect 51 0 34 0;
#X connect 52 0 82 1;
#X connect 53 0 34 0;
#X connect 53 1 46 0;
#X connect 53 2 52 0;
#X connect 54 0 41 0;
#X connect 56 0 39 1;
#X connect 58 0 41 0;
#X connect 58 1 7 0;
#X connect 58 2 35 0;
#X connect 59 0 37 0;
#X connect 59 1 0 0;
#X connect 59 2 82 0;
#X connect 59 3 7 0;
#X connect 60 0 41 0;
#X connect 60 1 64 0;
#X connect 61 0 42 1;
#X connect 61 1 34 1;
#X connect 61 2 41 0;
#X connect 61 3 64 0;
#X connect 62 0 42 1;
#X connect 62 1 0 1;
#X connect 62 2 64 0;
#X connect 63 0 81 0;
#X connect 63 1 81 1;
#X connect 64 0 71 0;
#X connect 64 1 65 0;
#X connect 64 2 63 2;
#X connect 65 0 63 1;
#X connect 66 0 69 0;
#X connect 67 0 70 0;
#X connect 69 0 68 0;
#X connect 69 1 67 0;
#X connect 71 0 72 0;
#X connect 71 0 74 0;
#X connect 72 0 73 0;
#X connect 73 0 71 1;
#X connect 74 0 63 0;
#X connect 75 0 74 1;
#X connect 76 0 69 0;
#X connect 77 0 42 1;
#X connect 77 1 7 1;
#X connect 77 2 64 0;
#X connect 78 0 42 1;
#X connect 78 1 7 1;
#X connect 78 2 64 0;
#X connect 82 0 49 0;
#X connect 83 0 82 1;
#X connect 84 0 30 1;
#X connect 85 0 30 2;
#X connect 86 0 31 1;
#X connect 87 0 31 2;
#X connect 88 0 35 1;
#X connect 89 0 35 2;
#X connect 90 0 34 2;
#X connect 91 0 22 1;
#X connect 92 0 22 2;
#X connect 93 0 26 1;
#X connect 94 0 26 2;
