#N canvas 408 284 332 376 12;
#X obj 227 14 loadbang;
#X obj 76 283 makenote;
#X floatatom 110 333 5 0 0 0 - - - 0;
#X floatatom 74 333 5 0 0 0 - - - 0;
#X obj 96 254 min;
#X msg 122 254 127;
#X obj 152 254 max;
#X msg 178 254 0;
#X obj 75 313 noteout 9;
#X obj 36 104 metro;
#X obj 60 254 f;
#X obj 86 134 t f b b f;
#X obj 45 224 inlet;
#X obj 36 14 inlet;
#X floatatom 12 269 5 0 0 0 - - - 0;
#X obj 101 223 random-updown-proportional;
#X obj 190 134 inlet;
#X floatatom 287 164 5 0 0 0 - - - 0;
#X floatatom 153 164 5 0 0 0 - - - 0;
#X floatatom 213 253 5 0 0 0 - - - 0;
#X obj 190 163 + 20;
#X obj 255 163 - 20;
#X obj 255 194 max;
#X msg 281 194 0;
#X obj 190 194 min;
#X msg 216 194 127;
#X floatatom 272 128 5 0 0 0 - - - 0;
#X obj 36 44 route 0 1;
#X msg 36 74 stop;
#X obj 80 78 bng 15 250 50 0 empty empty empty 17 7 0 10 #fcfcfc #000000
#000000;
#X msg 246 64 100;
#X msg 172 64 200;
#X obj 102 100 random-updown-proportional;
#X connect 0 0 5 0;
#X connect 0 0 30 0;
#X connect 0 0 31 0;
#X connect 0 0 23 0;
#X connect 0 0 25 0;
#X connect 0 0 7 0;
#X connect 1 0 3 0;
#X connect 1 0 8 0;
#X connect 1 1 2 0;
#X connect 1 1 8 1;
#X connect 4 0 6 0;
#X connect 5 0 4 1;
#X connect 6 0 1 1;
#X connect 7 0 6 1;
#X connect 9 0 32 0;
#X connect 10 0 1 0;
#X connect 11 0 9 1;
#X connect 11 1 10 0;
#X connect 11 2 15 0;
#X connect 11 3 1 2;
#X connect 12 0 10 1;
#X connect 12 0 14 0;
#X connect 13 0 27 0;
#X connect 15 0 4 0;
#X connect 15 0 19 0;
#X connect 16 0 20 0;
#X connect 16 0 21 0;
#X connect 16 0 26 0;
#X connect 20 0 18 0;
#X connect 20 0 24 0;
#X connect 21 0 17 0;
#X connect 21 0 22 0;
#X connect 22 0 15 2;
#X connect 23 0 22 1;
#X connect 24 0 15 1;
#X connect 25 0 24 1;
#X connect 27 0 28 0;
#X connect 27 1 29 0;
#X connect 28 0 9 0;
#X connect 29 0 9 0;
#X connect 30 0 32 2;
#X connect 31 0 32 1;
#X connect 32 0 11 0;
