#N canvas 652 156 623 416 12;
#X msg 128 253 all 0;
#X msg 179 253 all 1;
#X obj 83 44 inlet;
#X obj 83 223 route stop bang start;
#X obj 240 164 until;
#X obj 240 134 t f b;
#X obj 240 194 f;
#X obj 278 194 + 1;
#X msg 290 164 0;
#X msg 240 253 next \$1;
#X msg 302 253 all \$1;
#X msg 330 194 1;
#X obj 240 224 array get \$0-notes;
#X obj 330 164 loadbang;
#X obj 363 253 inlet;
#X obj 226 44 inlet;
#X msg 290 104 const -1;
#X obj 100 104 array set \$0-notes;
#X text 173 22 list of notes;
#X obj 226 74 t l b;
#X obj 290 134 array define -yrange 0 127 \$0-notes 8;
#X obj 83 74 t a b;
#X text 30 21 start-stop;
#X text 411 252 intensidade;
#X msg 104 283 vis \$1 1;
#X floatatom 56 284 5 0 0 0 - - - 0;
#X obj 179 283 clone piano-nota 4;
#X obj 240 104 f 4;
#X obj 40 84 bng 15 250 50 0 empty empty empty 17 7 0 10 #fcfcfc #000000
#000000;
#X msg 338 294 90;
#X msg 304 36 60 64 67 71;
#X connect 0 0 26 0;
#X connect 1 0 26 0;
#X connect 2 0 21 0;
#X connect 3 0 0 0;
#X connect 3 1 1 0;
#X connect 3 2 1 0;
#X connect 4 0 6 0;
#X connect 5 0 4 0;
#X connect 5 1 8 0;
#X connect 6 0 7 0;
#X connect 6 0 12 0;
#X connect 7 0 6 1;
#X connect 8 0 6 1;
#X connect 9 0 26 1;
#X connect 10 0 26 2;
#X connect 11 0 12 1;
#X connect 12 0 9 0;
#X connect 13 0 11 0;
#X connect 14 0 10 0;
#X connect 15 0 19 0;
#X connect 16 0 20 0;
#X connect 19 0 17 0;
#X connect 19 1 16 0;
#X connect 21 0 3 0;
#X connect 21 1 27 0;
#X connect 24 0 26 0;
#X connect 25 0 24 0;
#X connect 27 0 5 0;
#X connect 28 0 21 0;
#X connect 29 0 10 0;
#X connect 30 0 19 0;
