#N canvas 316 227 831 687 12;
#X text 167 29 random around;
#X obj 165 116 random;
#X obj 292 116 inlet;
#X text 336 113 grain;
#X obj 272 205 inlet;
#X text 316 204 number;
#X obj 222 264 -;
#X obj 166 263 +;
#X obj 166 233 i;
#X obj 165 56 inlet;
#X text 127 58 bang;
#X obj 166 293 outlet;
#X obj 204 86 + 1;
#X obj 222 176 * 0.5;
#X obj 328 82 inlet;
#X obj 222 234 i;
#X obj 222 146 i;
#X obj 222 116 t b f;
#X text 372 82 tendence: 1 to down 0 to up 0.5 to stay around;
#X obj 165 176 t b f;
#X obj 222 205 t b f;
#X connect 1 0 19 0;
#X connect 2 0 12 0;
#X connect 2 0 16 1;
#X connect 2 0 13 0;
#X connect 4 0 6 0;
#X connect 4 0 15 1;
#X connect 6 0 8 1;
#X connect 7 0 11 0;
#X connect 8 0 7 0;
#X connect 9 0 1 0;
#X connect 12 0 1 1;
#X connect 13 0 20 0;
#X connect 14 0 17 0;
#X connect 15 0 6 0;
#X connect 16 0 13 0;
#X connect 17 0 16 0;
#X connect 17 1 13 1;
#X connect 19 0 8 0;
#X connect 19 1 7 1;
#X connect 20 0 15 0;
#X connect 20 1 6 1;
