#N canvas 347 27 1351 988 12;
#X obj 964 7 inlet;
#X msg 1010 65 const -1;
#X msg 1038 245 1;
#X obj 964 215 f;
#X obj 1002 215 + 1;
#X msg 982 185 0;
#X obj 1002 325 bng 15 250 50 0 empty empty empty 17 7 0 10 #fcfcfc
#000000 #000000;
#X obj 964 351 f;
#X obj 964 245 t f f;
#X obj 966 325 bng 15 250 50 0 empty empty empty 17 7 0 10 #fcfcfc
#000000 #000000;
#X obj 964 155 t b b;
#X obj 964 305 moses 0;
#X obj 1038 216 loadbang;
#X obj 1010 95 array define -yrange 0 11 \$0-mode 12;
#X obj 987 125 array set \$0-mode;
#X obj 964 275 array get \$0-mode;
#X text 690 185 tonic;
#X obj 710 335 - 12;
#X msg 938 411 1;
#X obj 866 411 + 1;
#X obj 938 381 loadbang;
#X obj 724 561 f;
#X obj 760 561 + 1;
#X obj 904 561 f;
#X obj 706 441 +;
#X obj 830 411 f;
#X obj 706 411 t f b;
#X msg 742 531 0;
#X obj 646 185 inlet;
#X obj 902 411 mod;
#X obj 830 471 array get \$0-mode;
#X obj 701 591 array set \$0-notes;
#X obj 678 501 t f f b;
#X msg 678 245 const -1;
#X obj 678 275 array define -yrange 0 127 \$0-notes 128;
#X text 1006 7 mode;
#X obj 842 591 array get \$0-notes;
#X obj 842 501 t b b;
#X obj 646 215 t f b b;
#X obj 964 36 t b l b;
#X obj 830 441 t f f;
#X obj 842 621 outlet;
#X floatatom 624 140 5 0 0 0 - - - 0;
#X floatatom 625 416 5 0 0 0 - - - 0;
#X msg 570 197 60;
#X floatatom 626 500 5 0 0 0 - - - 0;
#X obj 646 335 moses 0;
#X obj 646 380 moses 0;
#X obj 678 471 moses 128;
#X connect 0 0 39 0;
#X connect 1 0 13 0;
#X connect 2 0 15 1;
#X connect 3 0 4 0;
#X connect 3 0 8 0;
#X connect 4 0 3 1;
#X connect 5 0 3 1;
#X connect 6 0 3 0;
#X connect 7 0 29 1;
#X connect 8 0 15 0;
#X connect 8 1 7 1;
#X connect 9 0 7 0;
#X connect 10 0 3 0;
#X connect 10 1 5 0;
#X connect 11 0 9 0;
#X connect 11 1 6 0;
#X connect 12 0 2 0;
#X connect 15 0 11 0;
#X connect 17 0 46 0;
#X connect 18 0 30 1;
#X connect 19 0 29 0;
#X connect 20 0 18 0;
#X connect 21 0 22 0;
#X connect 21 0 31 1;
#X connect 22 0 21 1;
#X connect 22 0 23 1;
#X connect 23 0 36 1;
#X connect 24 0 47 0;
#X connect 25 0 40 0;
#X connect 26 0 24 0;
#X connect 26 1 25 0;
#X connect 27 0 21 1;
#X connect 27 0 25 1;
#X connect 28 0 38 0;
#X connect 28 0 42 0;
#X connect 29 0 25 1;
#X connect 30 0 24 1;
#X connect 32 0 26 0;
#X connect 32 1 31 0;
#X connect 32 2 21 0;
#X connect 33 0 34 0;
#X connect 36 0 41 0;
#X connect 37 0 36 0;
#X connect 37 1 23 0;
#X connect 38 0 46 0;
#X connect 38 1 33 0;
#X connect 38 2 27 0;
#X connect 39 0 10 0;
#X connect 39 1 14 0;
#X connect 39 2 1 0;
#X connect 40 0 19 0;
#X connect 40 1 30 0;
#X connect 44 0 38 0;
#X connect 46 0 47 0;
#X connect 46 1 17 0;
#X connect 47 0 26 0;
#X connect 47 0 43 0;
#X connect 47 1 48 0;
#X connect 48 0 32 0;
#X connect 48 0 45 0;
#X connect 48 1 37 0;
