#N canvas 625 -16 1920 997 12;
#X obj 117 160 f;
#X obj 217 190 - 12;
#X obj 171 40 f;
#X obj 207 40 + 1;
#X obj 243 40 % 3;
#X obj 171 70 route 0 1 2, f 12;
#X obj 153 160 +;
#X obj 117 70 t b b;
#X msg 201 100 6;
#X msg 231 100 6;
#X obj 189 160 moses 72;
#X msg 171 100 11;
#X obj 117 190 f;
#X text 115 15 next tonic;
#X obj 135 130 inlet;
#X text 181 130 tonic;
#X obj 117 250 tonic-mode;
#X msg 184 220 2 2 3 2 3;
#X obj 123 220 loadbang;
#X obj 117 280 outlet;
#X obj 117 40 inlet;
#X connect 0 0 6 0;
#X connect 0 0 12 0;
#X connect 1 0 0 1;
#X connect 1 0 10 0;
#X connect 2 0 3 0;
#X connect 2 0 5 0;
#X connect 3 0 4 0;
#X connect 4 0 2 1;
#X connect 5 0 11 0;
#X connect 5 1 8 0;
#X connect 5 2 9 0;
#X connect 6 0 10 0;
#X connect 7 0 0 0;
#X connect 7 1 2 0;
#X connect 8 0 6 1;
#X connect 9 0 6 1;
#X connect 10 0 0 1;
#X connect 10 1 1 0;
#X connect 11 0 6 1;
#X connect 12 0 16 0;
#X connect 14 0 0 1;
#X connect 16 0 19 0;
#X connect 17 0 16 1;
#X connect 18 0 17 0;
#X connect 20 0 7 0;
