#N canvas 26 -28 1920 997 12;
#X obj 305 300 - 12;
#X obj 273 420 route 0 1 2 3;
#X obj 273 360 f;
#X obj 273 330 t b f;
#X obj 273 390 pack;
#X obj 237 240 f;
#X obj 273 240 f;
#X obj 309 240 f;
#X obj 345 240 f;
#X obj 237 184 route 0 1 2 3;
#X obj 237 124 f;
#X obj 273 124 + 1;
#X obj 309 124 % 4;
#X obj 237 224 bng 15 250 50 0 empty empty empty 17 7 0 10 #fcfcfc
#000000 #000000;
#X obj 273 224 bng 15 250 50 0 empty empty empty 17 7 0 10 #fcfcfc
#000000 #000000;
#X obj 309 224 bng 15 250 50 0 empty empty empty 17 7 0 10 #fcfcfc
#000000 #000000;
#X obj 345 224 bng 15 250 50 0 empty empty empty 17 7 0 10 #fcfcfc
#000000 #000000;
#X obj 237 270 + 7;
#X obj 273 270 moses;
#X obj 323 270 + 12;
#X obj 393 330 f;
#X obj 429 330 f;
#X obj 465 330 f;
#X obj 501 330 f;
#X obj 447 210 + 4;
#X obj 483 210 + 7;
#X obj 519 210 + 11;
#X obj 393 390 - 12;
#X obj 457 390 - 12;
#X obj 521 390 - 12;
#X obj 585 390 - 12;
#X obj 393 420 pack f f f f f f f f, f 31;
#X obj 585 360 t f f f;
#X obj 521 360 t f f f;
#X obj 457 360 t f f f;
#X obj 393 360 t f f f;
#X obj 393 240 t b b b b;
#X obj 237 154 t f f f b;
#X obj 393 180 t f f f f f;
#X obj 393 150 inlet;
#X obj 237 94 inlet;
#X text 435 150 tonic;
#X text 278 93 bang for next notes of cycle;
#X obj 393 450 outlet;
#X connect 0 0 3 0;
#X connect 1 0 20 1;
#X connect 1 1 21 1;
#X connect 1 2 22 1;
#X connect 1 3 23 1;
#X connect 2 0 4 0;
#X connect 3 0 2 0;
#X connect 3 1 4 1;
#X connect 4 0 1 0;
#X connect 5 0 17 0;
#X connect 6 0 17 0;
#X connect 7 0 17 0;
#X connect 8 0 17 0;
#X connect 9 0 15 0;
#X connect 9 1 16 0;
#X connect 9 2 13 0;
#X connect 9 3 14 0;
#X connect 10 0 37 0;
#X connect 11 0 12 0;
#X connect 12 0 10 1;
#X connect 13 0 5 0;
#X connect 14 0 6 0;
#X connect 15 0 7 0;
#X connect 16 0 8 0;
#X connect 17 0 18 0;
#X connect 18 0 3 0;
#X connect 18 1 0 0;
#X connect 19 0 18 1;
#X connect 20 0 35 0;
#X connect 21 0 34 0;
#X connect 22 0 33 0;
#X connect 23 0 32 0;
#X connect 24 0 21 1;
#X connect 25 0 22 1;
#X connect 26 0 23 1;
#X connect 27 0 31 0;
#X connect 28 0 31 2;
#X connect 29 0 31 4;
#X connect 30 0 31 6;
#X connect 31 0 43 0;
#X connect 32 0 8 1;
#X connect 32 1 30 0;
#X connect 32 2 31 7;
#X connect 33 0 7 1;
#X connect 33 1 29 0;
#X connect 33 2 31 5;
#X connect 34 0 6 1;
#X connect 34 1 28 0;
#X connect 34 2 31 3;
#X connect 35 0 5 1;
#X connect 35 1 27 0;
#X connect 35 2 31 1;
#X connect 36 0 20 0;
#X connect 36 1 21 0;
#X connect 36 2 22 0;
#X connect 36 3 23 0;
#X connect 37 0 11 0;
#X connect 37 1 9 0;
#X connect 37 2 2 1;
#X connect 37 3 36 0;
#X connect 38 0 19 0;
#X connect 38 1 20 1;
#X connect 38 2 24 0;
#X connect 38 3 25 0;
#X connect 38 4 26 0;
#X connect 39 0 38 0;
#X connect 40 0 10 0;
