#N canvas 953 412 958 576 12;
#X obj 201 79 moses;
#X obj 251 79 + 12;
#X obj 165 79 + 7;
#X obj 129 79 f;
#X obj 233 109 - 12;
#X obj 179 49 t f f;
#X obj 179 19 inlet;
#X obj 129 169 outlet;
#X obj 129 109 t f f;
#X obj 129 49 inlet;
#X text 47 46 next tonic;
#X text 222 17 tonic;
#X obj 129 139 allrange-tonicmode;
#X msg 214 139 2 2 1 2 2 2 1;
#X obj 253 169 loadbang;
#X floatatom 47 119 5 0 0 0 - - - 0;
#X connect 0 0 3 1;
#X connect 0 1 4 0;
#X connect 1 0 0 1;
#X connect 2 0 0 0;
#X connect 3 0 8 0;
#X connect 4 0 0 0;
#X connect 5 0 3 1;
#X connect 5 1 1 0;
#X connect 6 0 5 0;
#X connect 8 0 2 0;
#X connect 8 1 12 0;
#X connect 8 1 15 0;
#X connect 9 0 3 0;
#X connect 12 0 7 0;
#X connect 13 0 12 1;
#X connect 14 0 13 0;
