#N canvas 345 361 1920 997 12;
#X obj 38 218 f;
#X obj 138 248 - 12;
#X obj 92 98 f;
#X obj 128 98 + 1;
#X obj 164 98 % 3;
#X obj 92 128 route 0 1 2, f 12;
#X obj 74 218 +;
#X obj 38 128 t b b;
#X msg 122 158 6;
#X msg 152 158 6;
#X obj 110 218 moses 72;
#X msg 92 158 11;
#X obj 38 248 f;
#X text 36 13 next tonic;
#X obj 66 188 inlet;
#X text 112 188 tonic;
#X obj 38 308 allrange-tonicmode;
#X msg 105 278 2 2 3 2 3;
#X obj 44 278 loadbang;
#X obj 38 338 outlet;
#X obj 38 38 inlet;
#X msg 110 68 0;
#X obj 110 38 inlet;
#X text 152 39 reset;
#X connect 0 0 6 0;
#X connect 0 0 12 0;
#X connect 1 0 0 1;
#X connect 1 0 10 0;
#X connect 2 0 3 0;
#X connect 2 0 5 0;
#X connect 3 0 4 0;
#X connect 4 0 2 1;
#X connect 5 0 11 0;
#X connect 5 1 8 0;
#X connect 5 2 9 0;
#X connect 6 0 10 0;
#X connect 7 0 0 0;
#X connect 7 1 2 0;
#X connect 8 0 6 1;
#X connect 9 0 6 1;
#X connect 10 0 0 1;
#X connect 10 1 1 0;
#X connect 11 0 6 1;
#X connect 12 0 16 0;
#X connect 14 0 0 1;
#X connect 16 0 19 0;
#X connect 17 0 16 1;
#X connect 18 0 17 0;
#X connect 20 0 7 0;
#X connect 21 0 2 1;
#X connect 22 0 21 0;
