#N canvas 402 219 958 988 12;
#X obj 334 247 f;
#X obj 370 247 f;
#X obj 338 141 + 1;
#X obj 334 231 bng 15 250 50 0 empty empty empty 17 7 0 10 #fcfcfc
#000000 #000000;
#X obj 370 231 bng 15 250 50 0 empty empty empty 17 7 0 10 #fcfcfc
#000000 #000000;
#X obj 406 231 f;
#X obj 442 231 f;
#X obj 456 201 + 7;
#X obj 370 277 - 1;
#X obj 334 277 - 1;
#X obj 383 111 t b b b;
#X obj 334 201 route 0 1;
#X obj 374 141 % 2;
#X obj 302 171 t f f;
#X obj 424 141 inlet;
#X obj 424 171 t f f;
#X text 467 140 tonic;
#X obj 406 321 outlet;
#X text 454 321 list of notes;
#X obj 280 51 inlet;
#X text 321 51 bang for next notes of cycle;
#X obj 406 291 pack f f, f 16;
#X obj 470 261 t f f;
#X obj 406 261 t f f;
#X obj 510 81 inlet;
#X text 555 83 reset;
#X obj 302 141 f;
#X msg 320 111 1;
#X connect 0 0 9 0;
#X connect 1 0 8 0;
#X connect 2 0 12 0;
#X connect 3 0 0 0;
#X connect 4 0 1 0;
#X connect 5 0 23 0;
#X connect 6 0 22 0;
#X connect 7 0 6 1;
#X connect 8 0 6 1;
#X connect 9 0 5 1;
#X connect 10 0 26 0;
#X connect 10 1 5 0;
#X connect 10 2 6 0;
#X connect 11 0 3 0;
#X connect 11 1 4 0;
#X connect 12 0 26 1;
#X connect 13 0 2 0;
#X connect 13 1 11 0;
#X connect 14 0 15 0;
#X connect 15 0 5 1;
#X connect 15 1 7 0;
#X connect 19 0 10 0;
#X connect 21 0 17 0;
#X connect 22 0 1 1;
#X connect 22 1 21 1;
#X connect 23 0 0 1;
#X connect 23 1 21 0;
#X connect 24 0 27 0;
#X connect 26 0 13 0;
#X connect 27 0 26 1;
