#N canvas 191 216 654 531 12;
#X obj 42 99 f;
#X obj 78 99 + 1;
#X msg 92 69 0;
#X obj 42 159 array get \$0-notes;
#X obj 42 219 moses;
#X obj 42 309 moses;
#X obj 74 279 + 1;
#X obj 88 399 f;
#X obj 124 399 + 1;
#X obj 287 399 f;
#X msg 106 369 0;
#X obj 42 339 t f f b;
#X obj 255 339 t b b;
#X obj 42 129 t f f;
#X obj 143 129 loadbang;
#X msg 103 129 1;
#X msg 191 249 const -1;
#X obj 168 309 array set \$0-notes;
#X msg 144 69 const -1;
#X obj 191 279 array define -yrange 0 127 \$0-notes 128;
#X obj 114 99 array define -yrange 0 127 \$0-notesinrange 128;
#X obj 42 39 t b b b b;
#X obj 65 429 array set \$0-notesinrange;
#X obj 255 429 array get \$0-notesinrange;
#X obj 94 219 inlet;
#X obj 156 188 inlet;
#X obj 114 249 inlet;
#X obj 42 69 until;
#X obj 255 459 t l b;
#X obj 255 489 outlet;
#X obj 145 219 t b l b;
#X connect 0 0 13 0;
#X connect 1 0 0 1;
#X connect 2 0 0 1;
#X connect 3 0 4 0;
#X connect 4 1 5 0;
#X connect 5 0 11 0;
#X connect 5 1 12 0;
#X connect 6 0 5 1;
#X connect 7 0 8 0;
#X connect 7 0 22 1;
#X connect 8 0 7 1;
#X connect 8 0 9 1;
#X connect 9 0 23 1;
#X connect 10 0 7 1;
#X connect 11 1 22 0;
#X connect 11 2 7 0;
#X connect 12 0 23 0;
#X connect 12 1 9 0;
#X connect 13 0 1 0;
#X connect 13 1 3 0;
#X connect 14 0 15 0;
#X connect 15 0 3 1;
#X connect 16 0 19 0;
#X connect 18 0 20 0;
#X connect 21 0 27 0;
#X connect 21 1 2 0;
#X connect 21 2 10 0;
#X connect 21 3 18 0;
#X connect 23 0 28 0;
#X connect 24 0 30 0;
#X connect 25 0 4 1;
#X connect 26 0 6 0;
#X connect 27 0 0 0;
#X connect 28 0 29 0;
#X connect 28 1 27 1;
#X connect 30 0 21 0;
#X connect 30 1 17 0;
#X connect 30 2 16 0;
