#N canvas 494 273 1273 355 12;
#X obj 544 75 metro;
#X obj 551 250 line;
#X msg 712 45 2500;
#X msg 664 45 5000;
#X obj 551 310 ctlout;
#X obj 595 160 random-around;
#X msg 682 135 0.5;
#X obj 595 190 min;
#X msg 621 190 127;
#X obj 651 190 max;
#X msg 677 190 0;
#X obj 551 220 pack;
#X obj 594 75 random-maxmin;
#X obj 544 105 t b f;
#X text 753 23 range de tempo para chegar a uma nova intensidade;
#X text 719 135 a intensidade gira em torno de uma intensidade de referencia
;
#X obj 694 20 r \$0-lb;
#X obj 701 160 r \$0-lb;
#X msg 587 280 7;
#X obj 551 280 f;
#X obj 618 280 r \$0-lb;
#X obj 276 280 makenote;
#X obj 276 310 noteout;
#X msg 292 250 127;
#X text 382 250 velocity é sempre 127;
#X obj 322 250 r \$0-lb;
#X obj 226 100 metro;
#X text 405 40 range de duracao das notas;
#X obj 285 135 loadbang;
#X obj 226 46 inlet;
#X obj 834 310 inlet;
#X obj 624 107 inlet;
#X obj 413 190 inlet;
#X obj 346 135 s \$0-lb;
#X obj 734 220 inlet;
#X obj 276 100 random-updown-proportional;
#X msg 424 70 10;
#X msg 462 70 5;
#X msg 387 70 200;
#X msg 350 70 2000;
#X obj 350 40 r \$0-lb;
#X text 681 269 intensidade é controla pelo MIDI CC 7 volume para
ter crescendo e descresndo após o note on;
#X obj 276 220 noteslist-bydistance;
#X text 733 191 distancia;
#X text 432 166 notas;
#X text 669 106 intensidade;
#X text 879 308 channel;
#X text 230 23 start-stop;
#X obj 276 190 t b f f;
#X floatatom 225 180 5 0 0 0 - - - 0;
#X floatatom 228 252 5 0 0 0 - - - 0;
#X msg 652 135 30;
#X connect 0 0 12 0;
#X connect 1 0 19 0;
#X connect 2 0 12 2;
#X connect 3 0 12 1;
#X connect 5 0 7 0;
#X connect 6 0 5 3;
#X connect 7 0 9 0;
#X connect 8 0 7 1;
#X connect 9 0 11 0;
#X connect 10 0 9 1;
#X connect 11 0 1 0;
#X connect 12 0 0 1;
#X connect 12 0 13 0;
#X connect 13 0 5 0;
#X connect 13 1 11 1;
#X connect 16 0 3 0;
#X connect 16 0 2 0;
#X connect 17 0 6 0;
#X connect 17 0 51 0;
#X connect 17 0 10 0;
#X connect 17 0 8 0;
#X connect 18 0 4 1;
#X connect 19 0 4 0;
#X connect 20 0 18 0;
#X connect 21 0 22 0;
#X connect 21 1 22 1;
#X connect 23 0 21 1;
#X connect 25 0 23 0;
#X connect 26 0 35 0;
#X connect 28 0 33 0;
#X connect 29 0 26 0;
#X connect 29 0 0 0;
#X connect 30 0 22 2;
#X connect 30 0 4 2;
#X connect 31 0 5 1;
#X connect 32 0 42 2;
#X connect 34 0 42 1;
#X connect 35 0 48 0;
#X connect 35 0 49 0;
#X connect 36 0 35 4;
#X connect 37 0 35 5;
#X connect 38 0 35 3;
#X connect 39 0 35 2;
#X connect 40 0 39 0;
#X connect 40 0 38 0;
#X connect 40 0 36 0;
#X connect 40 0 37 0;
#X connect 42 0 21 0;
#X connect 42 0 50 0;
#X connect 48 0 42 0;
#X connect 48 1 21 2;
#X connect 48 2 26 1;
#X connect 51 0 5 2;
