#N canvas 343 364 349 434 12;
#X obj 44 351 makenote;
#X obj 178 156 inlet;
#X obj 159 51 loadbang;
#X obj 44 21 inlet;
#X obj 188 292 inlet;
#X msg 141 156 90;
#X obj 44 51 metro;
#X obj 44 81 t b b b;
#X obj 44 381 noteout 9;
#X msg 159 81 130;
#X msg 189 81 70;
#X obj 141 185 + 30;
#X obj 178 185 - 30;
#X obj 44 322 noteslist-randomorder;
#X obj 67 215 random-updown-proportional;
#X obj 158 247 bng 15 250 50 0 empty empty empty 17 7 0 10 #fcfcfc
#000000 #000000;
#X obj 256 245 bng 15 250 50 0 empty empty empty 17 7 0 10 #fcfcfc
#000000 #000000;
#X obj 90 111 random-updown-proportional;
#X msg 233 178 100;
#X obj 183 131 bng 15 250 50 0 empty empty empty 17 7 0 10 #fcfcfc
#000000 #000000;
#X obj 276 137 bng 15 250 50 0 empty empty empty 17 7 0 10 #fcfcfc
#000000 #000000;
#X msg 236 79 50;
#X msg 278 80 80;
#X text 88 17 start-stop;
#X text 230 292 notas;
#X text 219 156 intensidade;
#X connect 0 0 8 0;
#X connect 0 1 8 1;
#X connect 1 0 11 0;
#X connect 1 0 12 0;
#X connect 2 0 9 0;
#X connect 2 0 10 0;
#X connect 2 0 21 0;
#X connect 2 0 22 0;
#X connect 2 0 18 0;
#X connect 2 0 5 0;
#X connect 3 0 6 0;
#X connect 4 0 13 1;
#X connect 5 0 11 0;
#X connect 5 0 12 0;
#X connect 6 0 7 0;
#X connect 7 0 13 0;
#X connect 7 1 14 0;
#X connect 7 2 17 0;
#X connect 9 0 17 2;
#X connect 10 0 17 3;
#X connect 11 0 14 2;
#X connect 12 0 14 3;
#X connect 13 0 0 0;
#X connect 14 0 0 1;
#X connect 14 1 15 0;
#X connect 14 2 16 0;
#X connect 17 0 0 2;
#X connect 17 0 6 1;
#X connect 17 1 19 0;
#X connect 17 2 20 0;
#X connect 18 0 14 4;
#X connect 18 0 14 5;
#X connect 21 0 17 4;
#X connect 22 0 17 5;
