#N canvas 460 196 690 560 12;
#X obj 44 385 makenote;
#X obj 178 156 inlet;
#X obj 159 51 loadbang;
#X obj 44 21 inlet;
#X obj 98 326 inlet;
#X msg 141 156 90;
#X obj 44 51 metro;
#X obj 44 81 t b b b;
#X obj 44 415 noteout 9;
#X obj 141 185 + 30;
#X obj 178 185 - 30;
#X obj 44 356 noteslist-byrandomorder;
#X obj 67 249 random-updown-proportional;
#X obj 158 281 bng 15 250 50 0 empty empty empty 17 7 0 10 #fcfcfc
#000000 #000000;
#X obj 256 279 bng 15 250 50 0 empty empty empty 17 7 0 10 #fcfcfc
#000000 #000000;
#X obj 90 111 random-updown-proportional;
#X msg 233 178 100;
#X obj 183 131 bng 15 250 50 0 empty empty empty 17 7 0 10 #fcfcfc
#000000 #000000;
#X obj 276 137 bng 15 250 50 0 empty empty empty 17 7 0 10 #fcfcfc
#000000 #000000;
#X msg 236 79 50;
#X msg 278 80 80;
#X text 88 17 start-stop, f 14;
#X text 140 326 notas;
#X text 219 156 intensidade;
#X msg 159 81 160;
#X msg 189 81 90;
#X floatatom 113 286 5 0 0 0 - - - 0;
#X floatatom 141 406 5 0 0 0 - - - 0;
#X floatatom 303 205 5 0 0 0 - - - 0;
#X floatatom 294 226 5 0 0 0 - - - 0;
#X obj 123 219 min 127;
#X obj 187 219 max 1;
#X floatatom 316 278 5 0 0 0 - - - 0;
#X floatatom 385 270 5 0 0 0 - - - 0;
#X connect 0 0 8 0;
#X connect 0 1 8 1;
#X connect 0 1 27 0;
#X connect 1 0 9 0;
#X connect 1 0 10 0;
#X connect 2 0 24 0;
#X connect 2 0 25 0;
#X connect 2 0 19 0;
#X connect 2 0 20 0;
#X connect 2 0 16 0;
#X connect 2 0 5 0;
#X connect 3 0 6 0;
#X connect 4 0 11 1;
#X connect 5 0 9 0;
#X connect 5 0 10 0;
#X connect 6 0 7 0;
#X connect 7 0 11 0;
#X connect 7 1 12 0;
#X connect 7 2 15 0;
#X connect 9 0 29 0;
#X connect 9 0 30 0;
#X connect 10 0 28 0;
#X connect 10 0 31 0;
#X connect 11 0 0 0;
#X connect 12 0 0 1;
#X connect 12 0 26 0;
#X connect 12 1 13 0;
#X connect 12 2 14 0;
#X connect 15 0 0 2;
#X connect 15 0 6 1;
#X connect 15 1 17 0;
#X connect 15 2 18 0;
#X connect 16 0 12 4;
#X connect 16 0 12 5;
#X connect 19 0 15 4;
#X connect 20 0 15 5;
#X connect 24 0 15 2;
#X connect 25 0 15 3;
#X connect 30 0 12 2;
#X connect 30 0 32 0;
#X connect 31 0 12 3;
#X connect 31 0 33 0;
