#N canvas 678 131 1920 997 12;
#X obj 457 341 makenote;
#X obj 457 372 noteout 10;
#X floatatom 528 342 5 0 0 0 - - - 0;
#X floatatom 408 342 5 0 0 0 - - - 0;
#X obj 457 281 noteslist-bychord;
#X msg 559 251 40 49;
#X obj 362 191 f;
#X obj 398 191 + 1;
#X obj 434 191 sel 5;
#X obj 362 131 metro;
#X msg 510 101 1000;
#X obj 510 71 loadbang;
#X obj 483 311 inlet;
#X obj 362 101 inlet;
#X obj 404 251 outlet;
#X obj 498 221 t b f;
#X msg 447 311 46;
#X msg 480 161 0;
#X obj 328 125 bng 15 250 50 0 empty empty empty 17 7 0 10 #fcfcfc
#000000 #000000;
#X obj 367 245 bng 15 250 50 0 empty empty empty 17 7 0 10 #fcfcfc
#000000 #000000;
#X msg 412 101 stop;
#X obj 434 221 t b b b;
#X connect 0 0 1 0;
#X connect 0 0 3 0;
#X connect 0 1 1 1;
#X connect 0 1 2 0;
#X connect 4 0 0 0;
#X connect 5 0 4 1;
#X connect 6 0 7 0;
#X connect 7 0 8 0;
#X connect 8 0 21 0;
#X connect 8 1 15 0;
#X connect 9 0 6 0;
#X connect 10 0 9 1;
#X connect 10 0 0 2;
#X connect 11 0 10 0;
#X connect 11 0 5 0;
#X connect 12 0 0 1;
#X connect 13 0 9 0;
#X connect 15 0 16 0;
#X connect 15 1 6 1;
#X connect 16 0 0 0;
#X connect 17 0 6 1;
#X connect 18 0 9 0;
#X connect 20 0 9 0;
#X connect 21 0 14 0;
#X connect 21 0 19 0;
#X connect 21 1 4 0;
#X connect 21 2 17 0;
#X connect 21 2 20 0;
