#N canvas 602 256 308 232 12;
#X obj 44 165 makenote;
#X obj 44 21 inlet;
#X obj 98 45 inlet;
#X text 88 17 start-stop;
#X text 140 45 notas;
#X obj 44 75 noteslist-bychord;
#X obj 151 135 inlet;
#X msg 97 135 20000;
#X obj 97 105 loadbang;
#X text 193 135 intensidade;
#X floatatom 148 169 5 0 0 0 - - - 0;
#X obj 16 209 print;
#X obj 44 195 noteout 11;
#X connect 0 0 11 0;
#X connect 0 0 12 0;
#X connect 0 1 12 1;
#X connect 1 0 5 0;
#X connect 2 0 5 1;
#X connect 5 0 0 0;
#X connect 6 0 0 1;
#X connect 6 0 10 0;
#X connect 7 0 0 2;
#X connect 8 0 7 0;
