#N canvas 692 165 370 344 12;
#X obj 92 79 metro;
#X obj 142 270 makenote;
#X obj 142 301 noteout 10;
#X floatatom 213 271 5 0 0 0 - - - 0;
#X floatatom 93 271 5 0 0 0 - - - 0;
#X msg 249 49 200;
#X msg 213 49 2000;
#X obj 263 19 loadbang;
#X obj 92 49 inlet;
#X obj 251 119 inlet;
#X obj 142 149 noteslist-random;
#X obj 142 119 t b f;
#X obj 142 79 random-updown-proportional;
#X msg 285 49 10;
#X msg 321 49 5;
#X obj 168 240 inlet;
#X text 211 240 intensidade;
#X text 12 48 start-stop;
#X text 253 100 notas;
#X connect 0 0 12 0;
#X connect 1 0 2 0;
#X connect 1 0 4 0;
#X connect 1 1 2 1;
#X connect 1 1 3 0;
#X connect 5 0 12 3;
#X connect 6 0 12 2;
#X connect 7 0 6 0;
#X connect 7 0 5 0;
#X connect 7 0 13 0;
#X connect 7 0 14 0;
#X connect 8 0 0 0;
#X connect 9 0 10 1;
#X connect 10 0 1 0;
#X connect 11 0 10 0;
#X connect 11 1 1 2;
#X connect 12 0 0 1;
#X connect 12 0 11 0;
#X connect 13 0 12 4;
#X connect 14 0 12 5;
#X connect 15 0 1 1;
