#N canvas 14 119 1714 446 12;
#X obj 158 198 makenote;
#X obj 158 228 noteout;
#X obj 158 107 metro;
#X obj 198 168 f;
#X obj 234 168 + 1;
#X obj 158 137 t b b;
#X msg 158 167 60;
#X msg 158 47 2000;
#X obj 158 77 t b f f b;
#X msg 216 138 0;
#X obj 270 168 sel 128;
#X obj 316 197 t f f;
#X msg 236 77 stop;
#X floatatom 237 238 5 0 0 0 - - - 0;
#X obj 727 335 ctlout;
#X msg 763 305 7;
#X obj 558 242 makenote;
#X obj 558 272 noteout;
#X obj 558 121 metro;
#X obj 598 182 f;
#X obj 634 182 + 1;
#X obj 558 151 t b b;
#X msg 558 182 60;
#X msg 558 61 2000;
#X obj 558 91 t b f f b;
#X msg 616 152 0;
#X obj 670 182 sel 128;
#X obj 716 211 t f f;
#X msg 636 91 stop;
#X obj 763 275 loadbang;
#X msg 584 212 127;
#X floatatom 681 274 5 0 0 0 - - - 0;
#X obj 1113 361 ctlout;
#X msg 1173 331 7;
#X obj 969 247 makenote;
#X obj 969 277 noteout;
#X obj 969 126 metro;
#X obj 1009 187 f;
#X obj 1045 187 + 1;
#X msg 969 187 60;
#X msg 969 66 2000;
#X obj 969 96 t b f f b;
#X msg 1027 157 0;
#X msg 1047 96 stop;
#X obj 1173 301 loadbang;
#X msg 995 217 127;
#X msg 1113 331 100;
#X msg 1143 331 127;
#X obj 1113 267 bng 15 250 50 0 empty empty empty 17 7 0 10 #fcfcfc
#000000 #000000;
#X obj 1143 267 bng 15 250 50 0 empty empty empty 17 7 0 10 #fcfcfc
#000000 #000000;
#X floatatom 1050 369 5 0 0 0 - - - 0;
#X obj 1113 247 route 1 2;
#X floatatom 1053 236 5 0 0 0 - - - 0;
#X obj 1081 187 sel 3;
#X obj 1113 217 t b f f;
#X obj 1437 362 ctlout;
#X msg 1497 332 7;
#X obj 1293 248 makenote;
#X obj 1293 278 noteout;
#X obj 1293 127 metro;
#X obj 1333 188 f;
#X obj 1369 188 + 1;
#X msg 1293 188 60;
#X msg 1293 67 2000;
#X obj 1293 97 t b f f b;
#X msg 1351 158 0;
#X msg 1371 97 stop;
#X obj 1497 302 loadbang;
#X msg 1319 218 127;
#X obj 1437 268 bng 15 250 50 0 empty empty empty 17 7 0 10 #fcfcfc
#000000 #000000;
#X obj 1467 268 bng 15 250 50 0 empty empty empty 17 7 0 10 #fcfcfc
#000000 #000000;
#X floatatom 1374 370 5 0 0 0 - - - 0;
#X obj 1437 248 route 1 2;
#X floatatom 1377 237 5 0 0 0 - - - 0;
#X obj 1405 188 sel 3;
#X obj 1437 218 t b f f;
#X msg 1437 332 50;
#X msg 1467 332 77;
#X connect 0 0 1 0;
#X connect 0 1 1 1;
#X connect 2 0 5 0;
#X connect 3 0 4 0;
#X connect 4 0 10 0;
#X connect 5 0 6 0;
#X connect 5 1 3 0;
#X connect 6 0 0 0;
#X connect 7 0 8 0;
#X connect 8 0 2 0;
#X connect 8 1 2 1;
#X connect 8 2 0 2;
#X connect 8 3 9 0;
#X connect 9 0 3 1;
#X connect 10 0 12 0;
#X connect 10 1 11 0;
#X connect 11 0 0 1;
#X connect 11 0 13 0;
#X connect 11 1 3 1;
#X connect 12 0 2 0;
#X connect 15 0 14 1;
#X connect 16 0 17 0;
#X connect 16 1 17 1;
#X connect 18 0 21 0;
#X connect 19 0 20 0;
#X connect 20 0 26 0;
#X connect 21 0 22 0;
#X connect 21 1 19 0;
#X connect 22 0 16 0;
#X connect 23 0 24 0;
#X connect 24 0 18 0;
#X connect 24 1 18 1;
#X connect 24 2 16 2;
#X connect 24 3 25 0;
#X connect 25 0 19 1;
#X connect 26 0 28 0;
#X connect 26 1 27 0;
#X connect 27 0 14 0;
#X connect 27 0 31 0;
#X connect 27 1 19 1;
#X connect 28 0 18 0;
#X connect 29 0 15 0;
#X connect 29 0 30 0;
#X connect 30 0 16 1;
#X connect 33 0 32 1;
#X connect 34 0 35 0;
#X connect 34 1 35 1;
#X connect 36 0 37 0;
#X connect 37 0 38 0;
#X connect 38 0 52 0;
#X connect 38 0 53 0;
#X connect 39 0 34 0;
#X connect 40 0 41 0;
#X connect 41 0 36 0;
#X connect 41 1 36 1;
#X connect 41 2 34 2;
#X connect 41 3 42 0;
#X connect 42 0 37 1;
#X connect 43 0 36 0;
#X connect 44 0 33 0;
#X connect 44 0 45 0;
#X connect 45 0 34 1;
#X connect 46 0 32 0;
#X connect 46 0 50 0;
#X connect 47 0 32 0;
#X connect 48 0 46 0;
#X connect 49 0 47 0;
#X connect 51 0 48 0;
#X connect 51 1 49 0;
#X connect 53 0 43 0;
#X connect 53 1 54 0;
#X connect 54 0 39 0;
#X connect 54 1 51 0;
#X connect 54 2 37 1;
#X connect 56 0 55 1;
#X connect 57 0 58 0;
#X connect 57 1 58 1;
#X connect 59 0 60 0;
#X connect 60 0 61 0;
#X connect 61 0 73 0;
#X connect 61 0 74 0;
#X connect 62 0 57 0;
#X connect 63 0 64 0;
#X connect 64 0 59 0;
#X connect 64 1 59 1;
#X connect 64 2 57 2;
#X connect 64 3 65 0;
#X connect 65 0 60 1;
#X connect 66 0 59 0;
#X connect 67 0 56 0;
#X connect 67 0 68 0;
#X connect 68 0 57 1;
#X connect 69 0 76 0;
#X connect 70 0 77 0;
#X connect 72 0 69 0;
#X connect 72 1 70 0;
#X connect 74 0 66 0;
#X connect 74 1 75 0;
#X connect 75 0 62 0;
#X connect 75 1 72 0;
#X connect 75 2 60 1;
#X connect 76 0 55 0;
#X connect 76 0 71 0;
#X connect 77 0 55 0;
