#N canvas -234 204 1920 997 12;
#X obj 644 713 cycle1-piano-mao;
#X obj 771 713 cycle1-piano-mao;
#X obj 698 653 - 12;
#X obj 898 713 cycle1-strings;
#X obj 698 623 t f f f;
#X obj 913 470 moses;
#X obj 963 470 + 12;
#X obj 877 470 + 7;
#X obj 841 470 f;
#X obj 945 499 - 12;
#X obj 836 409 r tonica;
#X obj 698 593 f;
#X obj 841 499 t f f f;
#X obj 1280 592 f;
#X obj 698 563 r tonica;
#X obj 1065 683 - 12;
#X obj 1011 713 cycle2-piano-mao;
#X obj 1138 713 cycle2-piano-mao;
#X obj 1265 713 cycle2-strings;
#X obj 1192 653 - 1;
#X obj 1312 683 + 1;
#X obj 1280 562 r tonica;
#X obj 644 324 f;
#X obj 680 324 + 1;
#X obj 644 354 t f f;
#X obj 644 384 route 0 1;
#X obj 739 414 t b b;
#X obj 716 324 % 2;
#X obj 644 414 t b b b b;
#X msg 662 294 0;
#X obj 1011 324 f;
#X obj 1047 324 + 1;
#X obj 1011 354 t f f;
#X obj 1083 324 % 3;
#X obj 1011 384 route 0 1 2;
#X msg 1029 294 0;
#X obj 836 439 t f f;
#X obj 644 128 metro;
#X obj 694 128 random-maxmin;
#X obj 701 67 loadbang;
#X obj 644 218 route 0 1;
#X obj 644 158 t b b;
#X obj 644 188 f;
#X msg 670 188 0;
#X msg 700 188 1;
#X obj 644 238 bng 15 250 50 0 empty empty empty 17 7 0 10 #fcfcfc
#000000 #000000;
#X obj 674 238 bng 15 250 50 0 empty empty empty 17 7 0 10 #fcfcfc
#000000 #000000;
#X obj 590 883 instrument-piano;
#X obj 717 883 instrument-piano;
#X obj 898 883 instrument-string;
#X obj 898 853 noteslist-inrange;
#X obj 993 793 loadbang;
#X msg 1022 853 1;
#X obj 1063 883 instrument-string;
#X obj 1063 853 noteslist-inrange;
#X msg 1086 823 96;
#X msg 1123 823 55;
#X obj 1158 793 loadbang;
#X obj 1228 883 instrument-string;
#X obj 1228 853 noteslist-inrange;
#X obj 1323 793 loadbang;
#X obj 1393 883 instrument-string;
#X obj 1393 853 noteslist-inrange;
#X obj 1488 793 loadbang;
#X msg 1251 823 89;
#X msg 1288 823 48;
#X msg 1416 823 81;
#X msg 1453 823 36;
#X msg 1187 853 2;
#X msg 1352 853 3;
#X msg 1517 853 4;
#X obj 898 913 r vol;
#X obj 699 800 r vol;
#X obj 975 943 r distance;
#X msg 559 294 7;
#X obj 559 324 s distance;
#X obj 1520 239 s tonica;
#X obj 122 271 t b b b;
#X obj 231 331 line;
#X msg 231 301 0 \, 127 150000;
#X obj 122 361 instrument-drums;
#X msg 145 331 41 43 47 50;
#X msg 1520 209 60;
#X obj 352 -18 route 0 1 2 3 4 5 6 7 8;
#X obj 284 358 s vol;
#X obj 559 264 t b b;
#X floatatom 797 493 5 0 0 0 - - - 0;
#X obj 1119 324 s distance;
#X msg 1119 294 5;
#X obj 753 683 t b;
#X obj 1520 179 loadbang;
#X floatatom 814 675 5 0 0 0 - - - 0;
#X obj 898 763 t l l l l;
#X obj 380 200 t b b b;
#X obj 590 827 bng 15 250 50 0 empty empty empty 17 7 0 10 #fcfcfc
#000000 #000000;
#X obj 1068 104 instrument-drumssignal;
#X obj 1187 74 r vol;
#X obj 352 -173 metro;
#X obj 402 -173 random-maxmin;
#X obj 409 -234 loadbang;
#X obj 352 -83 f;
#X obj 385 -83 + 1;
#X obj 352 -53 t f f;
#X msg 370 -113 0;
#X obj 352 -234 t b b;
#X msg 304 -203 stop;
#X obj 300 -169 bng 15 250 50 0 empty empty empty 17 7 0 10 #fcfcfc
#000000 #000000;
#X obj 352 -261 bng 15 250 50 0 empty empty empty 17 7 0 10 #fcfcfc
#000000 #000000;
#X floatatom 288 -44 5 0 0 0 - - - 0;
#X obj 352 -143 t b b;
#X floatatom 420 -133 5 0 0 0 - - - 0;
#X floatatom 265 386 5 0 0 0 - - - 0;
#X obj 564 225 bng 15 250 50 0 empty empty empty 17 7 0 10 #fcfcfc
#000000 #000000;
#X obj 601 82 bng 15 250 50 0 empty empty empty 17 7 0 10 #fcfcfc #000000
#000000;
#X msg 326 333 96;
#X msg 921 823 96;
#X msg 958 823 55;
#X msg 644 96 stop;
#X obj 1068 74 t b b;
#X obj 332 301 loadbang;
#X msg 701 97 30000;
#X msg 746 97 15000;
#X msg 454 -204 20000;
#X msg 171 301 49 55 57;
#X msg 73 337 stop;
#X msg 409 -204 30000;
#X obj 1120 683 t b b b;
#X obj 1068 224 t b b b b b b b b;
#X obj 1068 134 f;
#X obj 1104 134 + 1;
#X obj 1068 194 route 0 1;
#X obj 1068 164 t f f;
#X obj 1454 622 - 1;
#X obj 1486 622 + 6;
#X obj 1454 652 pack f f;
#X obj 1011 414 t b b b;
#X obj 1454 562 f;
#X obj 1280 623 t f f f f;
#X msg 1336 320 stop;
#X obj 1454 682 instrument-pianochord;
#X obj 1011 444 t b b b;
#X obj 1513 346 until;
#X msg 1513 316 128;
#X obj 1513 376 f;
#X obj 1549 376 + 1;
#X obj 1513 406 t f f f f f f;
#X obj 1583 436 noteout 1;
#X obj 1565 466 noteout 2;
#X obj 1548 496 noteout 3;
#X msg 1665 497 0;
#X obj 1530 526 noteout 4;
#X msg 1564 346 0;
#X obj 1513 286 t b b b;
#X obj 1455 401 print;
#X obj 1513 556 noteout 9;
#X obj 1614 652 pack f f;
#X obj 1614 682 instrument-pianochord;
#X obj 1614 622 - 13;
#X obj 1657 622 - 6;
#X obj 1454 592 t f f f f;
#X obj 1265 211 t b b b b;
#X obj 699 830 - 15;
#X obj 898 943 - 25;
#X connect 0 0 47 1;
#X connect 1 0 48 1;
#X connect 2 0 0 1;
#X connect 3 0 92 0;
#X connect 4 0 2 0;
#X connect 4 1 1 1;
#X connect 4 2 3 1;
#X connect 4 2 91 0;
#X connect 5 0 8 1;
#X connect 5 1 9 0;
#X connect 6 0 5 1;
#X connect 7 0 5 0;
#X connect 8 0 12 0;
#X connect 8 0 86 0;
#X connect 9 0 5 0;
#X connect 10 0 36 0;
#X connect 11 0 4 0;
#X connect 12 0 11 1;
#X connect 12 1 13 1;
#X connect 12 2 7 0;
#X connect 13 0 137 0;
#X connect 14 0 11 0;
#X connect 15 0 16 1;
#X connect 16 0 47 1;
#X connect 17 0 48 1;
#X connect 18 0 92 0;
#X connect 19 0 15 0;
#X connect 19 0 17 1;
#X connect 20 0 18 1;
#X connect 21 0 13 0;
#X connect 22 0 24 0;
#X connect 23 0 27 0;
#X connect 24 0 23 0;
#X connect 24 1 25 0;
#X connect 25 0 28 0;
#X connect 25 1 26 0;
#X connect 26 0 0 0;
#X connect 26 1 1 0;
#X connect 27 0 22 1;
#X connect 28 0 0 0;
#X connect 28 1 1 0;
#X connect 28 2 3 0;
#X connect 28 3 8 0;
#X connect 29 0 22 1;
#X connect 30 0 32 0;
#X connect 31 0 33 0;
#X connect 32 0 31 0;
#X connect 32 1 34 0;
#X connect 33 0 30 1;
#X connect 34 0 135 0;
#X connect 34 1 140 0;
#X connect 34 2 18 0;
#X connect 35 0 30 1;
#X connect 36 0 8 1;
#X connect 36 1 6 0;
#X connect 37 0 41 0;
#X connect 38 0 37 1;
#X connect 39 0 121 0;
#X connect 39 0 120 0;
#X connect 40 0 45 0;
#X connect 40 1 46 0;
#X connect 41 0 42 0;
#X connect 41 1 38 0;
#X connect 42 0 40 0;
#X connect 43 0 42 1;
#X connect 44 0 42 1;
#X connect 45 0 22 0;
#X connect 46 0 30 0;
#X connect 50 0 49 1;
#X connect 51 0 115 0;
#X connect 51 0 52 0;
#X connect 51 0 116 0;
#X connect 52 0 49 4;
#X connect 54 0 53 1;
#X connect 55 0 54 1;
#X connect 56 0 54 2;
#X connect 57 0 55 0;
#X connect 57 0 56 0;
#X connect 57 0 68 0;
#X connect 59 0 58 1;
#X connect 60 0 64 0;
#X connect 60 0 65 0;
#X connect 60 0 69 0;
#X connect 62 0 61 1;
#X connect 63 0 66 0;
#X connect 63 0 67 0;
#X connect 63 0 70 0;
#X connect 64 0 59 1;
#X connect 65 0 59 2;
#X connect 66 0 62 1;
#X connect 67 0 62 2;
#X connect 68 0 53 4;
#X connect 69 0 58 4;
#X connect 70 0 61 4;
#X connect 71 0 162 0;
#X connect 72 0 161 0;
#X connect 73 0 49 3;
#X connect 73 0 53 3;
#X connect 73 0 58 3;
#X connect 73 0 61 3;
#X connect 74 0 75 0;
#X connect 77 0 80 0;
#X connect 77 1 81 0;
#X connect 77 2 79 0;
#X connect 78 0 80 2;
#X connect 78 0 84 0;
#X connect 78 0 111 0;
#X connect 79 0 78 0;
#X connect 81 0 80 1;
#X connect 82 0 76 0;
#X connect 83 0 77 0;
#X connect 83 1 93 0;
#X connect 83 2 49 0;
#X connect 83 3 53 0;
#X connect 83 4 58 0;
#X connect 83 5 61 0;
#X connect 83 6 118 0;
#X connect 83 9 118 0;
#X connect 85 0 43 0;
#X connect 85 1 11 0;
#X connect 85 1 74 0;
#X connect 85 1 29 0;
#X connect 85 1 89 0;
#X connect 88 0 87 0;
#X connect 89 0 0 2;
#X connect 89 0 1 2;
#X connect 90 0 82 0;
#X connect 92 0 50 0;
#X connect 92 1 54 0;
#X connect 92 2 59 0;
#X connect 92 3 62 0;
#X connect 93 0 94 0;
#X connect 93 1 37 0;
#X connect 93 2 85 0;
#X connect 94 0 47 0;
#X connect 94 0 48 0;
#X connect 95 0 128 0;
#X connect 96 0 95 1;
#X connect 97 0 109 0;
#X connect 98 0 97 1;
#X connect 98 0 110 0;
#X connect 99 0 122 0;
#X connect 99 0 125 0;
#X connect 100 0 102 0;
#X connect 100 0 108 0;
#X connect 101 0 100 1;
#X connect 102 0 83 0;
#X connect 102 1 101 0;
#X connect 103 0 100 1;
#X connect 104 0 97 0;
#X connect 104 1 103 0;
#X connect 105 0 97 0;
#X connect 106 0 97 0;
#X connect 107 0 104 0;
#X connect 109 0 100 0;
#X connect 109 1 98 0;
#X connect 112 0 85 0;
#X connect 113 0 37 0;
#X connect 114 0 84 0;
#X connect 115 0 50 1;
#X connect 116 0 50 2;
#X connect 117 0 37 0;
#X connect 118 0 95 0;
#X connect 118 1 117 0;
#X connect 118 1 124 0;
#X connect 119 0 114 0;
#X connect 120 0 38 1;
#X connect 121 0 38 2;
#X connect 122 0 98 2;
#X connect 123 0 80 1;
#X connect 124 0 80 0;
#X connect 125 0 98 1;
#X connect 126 0 16 2;
#X connect 126 1 17 2;
#X connect 126 2 18 2;
#X connect 127 0 37 0;
#X connect 127 1 80 0;
#X connect 127 2 123 0;
#X connect 127 3 44 0;
#X connect 127 4 35 0;
#X connect 127 5 88 0;
#X connect 127 6 126 0;
#X connect 127 7 13 0;
#X connect 128 0 131 0;
#X connect 129 0 128 1;
#X connect 130 0 127 0;
#X connect 130 1 160 0;
#X connect 131 0 130 0;
#X connect 131 1 129 0;
#X connect 132 0 134 0;
#X connect 133 0 134 1;
#X connect 134 0 139 1;
#X connect 135 0 140 0;
#X connect 135 1 8 0;
#X connect 135 2 136 0;
#X connect 136 0 159 0;
#X connect 137 0 19 0;
#X connect 137 1 20 0;
#X connect 137 3 136 1;
#X connect 138 0 47 0;
#X connect 138 0 48 0;
#X connect 138 0 49 0;
#X connect 138 0 53 0;
#X connect 138 0 58 0;
#X connect 138 0 61 0;
#X connect 138 0 117 0;
#X connect 140 0 16 0;
#X connect 140 1 17 0;
#X connect 140 2 18 0;
#X connect 141 0 143 0;
#X connect 142 0 141 0;
#X connect 143 0 145 0;
#X connect 143 0 153 0;
#X connect 144 0 143 1;
#X connect 145 0 154 0;
#X connect 145 1 150 0;
#X connect 145 2 148 0;
#X connect 145 3 147 0;
#X connect 145 4 146 0;
#X connect 145 5 144 0;
#X connect 149 0 146 1;
#X connect 149 0 147 1;
#X connect 149 0 148 1;
#X connect 149 0 150 1;
#X connect 149 0 154 1;
#X connect 151 0 143 1;
#X connect 152 0 142 0;
#X connect 152 1 151 0;
#X connect 152 2 149 0;
#X connect 155 0 156 1;
#X connect 157 0 155 0;
#X connect 158 0 155 1;
#X connect 159 0 132 0;
#X connect 159 1 133 0;
#X connect 159 2 157 0;
#X connect 159 3 158 0;
#X connect 160 0 139 0;
#X connect 160 1 156 0;
#X connect 160 3 138 0;
#X connect 161 0 47 2;
#X connect 161 0 48 2;
#X connect 162 0 49 2;
#X connect 162 0 53 2;
#X connect 162 0 58 2;
#X connect 162 0 61 2;
#X connect 162 0 139 2;
#X connect 162 0 156 2;
