#N canvas -145 -24 1920 997 12;
#X obj 453 307 cycle1-strings;
#X obj 453 427 instrument-string;
#X obj 453 397 noteslist-inrange;
#X msg 476 367 96;
#X msg 513 367 55;
#X obj 540 337 loadbang;
#X obj 199 337 instrument-piano;
#X obj 445 139 moses;
#X obj 495 139 + 12;
#X obj 409 139 + 7;
#X obj 373 139 f;
#X obj 477 169 - 12;
#X obj 423 109 t f f;
#X obj 228 113 f;
#X obj 264 113 + 1;
#X obj 228 143 t f f;
#X obj 228 173 route 0 1;
#X msg 748 508 7;
#X msg 569 397 1;
#X obj 609 427 instrument-string;
#X obj 609 397 noteslist-inrange;
#X msg 632 367 96;
#X msg 669 367 55;
#X obj 696 337 loadbang;
#X obj 765 427 instrument-string;
#X obj 765 397 noteslist-inrange;
#X obj 852 337 loadbang;
#X obj 921 427 instrument-string;
#X obj 921 397 noteslist-inrange;
#X obj 1008 337 loadbang;
#X msg 788 367 89;
#X msg 825 367 48;
#X msg 944 367 81;
#X msg 981 367 36;
#X obj 199 307 cycle1-piano-mao;
#X obj 326 337 instrument-piano;
#X obj 326 307 cycle1-piano-mao;
#X obj 295 277 - 12;
#X obj 1145 178 s tonica;
#X msg 1145 148 60;
#X msg 725 397 2;
#X msg 881 397 3;
#X msg 1037 397 4;
#X obj 365 86 r tonica;
#X obj 1222 178 s intensidade;
#X msg 1222 148 90;
#X obj 1198 94 loadbang;
#X obj 544 502 r intensidade;
#X obj 306 203 t b b;
#X obj 228 203 t b b b b;
#X obj 1239 341 s start-stop;
#X obj 300 113 % 2;
#X obj 604 65 f;
#X obj 640 65 + 1;
#X obj 604 95 t f f;
#X obj 659 229 - 12;
#X obj 604 155 t b b b b;
#X obj 575 259 cycle2-piano-mao;
#X obj 702 259 cycle2-piano-mao;
#X obj 829 259 cycle2-strings;
#X obj 773 187 - 1;
#X obj 868 199 + 1;
#X obj 676 65 % 3;
#X obj 604 125 route 0 1 2;
#X obj 682 155 t b b b;
#X msg 700 505 5;
#X text 1429 526 iniciobateria ciclo1 sinalbateria ciclo2 sinalbateria
final sinalbateria ciclo2 sinalbateria ciclo1 finalbateria, f 13;
#X obj 575 36 bng 15 250 50 0 empty empty empty 17 7 0 10 #fcfcfc #000000
#000000;
#X floatatom 430 179 5 0 0 0 - - - 0;
#X obj 1198 681 route 0 1 2 3 4;
#X text 1317 681 entradas;
#X obj 1041 627 t b b;
#X obj 1029 662 bng 15 250 50 0 empty empty empty 17 7 0 10 #fcfcfc
#000000 #000000;
#X obj 1084 664 bng 15 250 50 0 empty empty empty 17 7 0 10 #fcfcfc
#000000 #000000;
#X text 1012 680 ciclo1;
#X text 1073 679 entradas;
#X obj 1047 583 bng 15 250 50 0 empty empty empty 17 7 0 10 #fcfcfc
#000000 #000000;
#X text 1007 603 iniciobateria;
#X obj 1024 716 bng 15 250 50 0 empty empty empty 17 7 0 10 #fcfcfc
#000000 #000000;
#X text 1049 714 sinalbateria;
#X obj 1019 767 bng 15 250 50 0 empty empty empty 17 7 0 10 #fcfcfc
#000000 #000000;
#X text 1045 769 ciclo2;
#X obj 1018 808 bng 15 250 50 0 empty empty empty 17 7 0 10 #fcfcfc
#000000 #000000;
#X text 1043 806 sinalbateria;
#X obj 1021 847 bng 15 250 50 0 empty empty empty 17 7 0 10 #fcfcfc
#000000 #000000;
#X text 1044 841 ataquefinalpianobateria;
#X obj 1052 555 route 0 1 2 3 4 5;
#X obj 286 690 instrument-drums;
#X msg 322 648 41 43 47 50;
#X msg 333 598 49 55 57;
#X obj 374 791 instrument-drumssignal;
#X obj 500 668 line;
#X obj 377 760 bng 15 250 50 0 empty empty empty 17 7 0 10 #fcfcfc
#000000 #000000;
#X obj 500 698 sel 127;
#X obj 448 730 t b b;
#X obj 386 854 t b b b b;
#X floatatom 558 735 5 0 0 0 - - - 0;
#X obj 223 73 bng 15 250 50 0 empty empty empty 17 7 0 10 #fcfcfc #000000
#000000;
#X obj 772 734 random-maxmin;
#X msg 860 704 30000;
#X obj 720 684 bng 15 250 50 0 empty empty empty 17 7 0 10 #fcfcfc
#000000 #000000;
#X floatatom 785 763 5 0 0 0 - - - 0;
#X msg 649 703 stop;
#X obj 708 734 metro 0;
#X obj 708 764 t b b;
#X obj 708 794 f;
#X obj 744 794 + 1;
#X obj 708 824 t f f;
#X obj 726 884 t b b;
#X obj 708 854 route 0 1 2 3 4 5;
#X obj 654 897 t b b;
#X obj 790 900 bng 15 250 50 0 empty empty empty 17 7 0 10 #fcfcfc
#000000 #000000;
#X obj 682 760 bng 15 250 50 0 empty empty empty 17 7 0 10 #fcfcfc
#000000 #000000;
#X msg 816 704 10000;
#X obj 102 944 t b b b;
#X obj 211 1044 line;
#X msg 503 623 0 \, 127 150000;
#X msg 211 1014 0 \, 127 150000;
#X obj 102 1074 instrument-drums;
#X msg 125 1044 41 43 47 50;
#X obj 363 1667 instrument-piano;
#X obj 887 1259 moses;
#X obj 937 1259 + 12;
#X obj 851 1259 + 7;
#X obj 815 1259 f;
#X obj 919 1288 - 12;
#X obj 403 1277 f;
#X obj 439 1277 + 1;
#X obj 403 1307 t f f;
#X obj 403 1337 route 0 1;
#X obj 403 1507 cycle1-piano-mao;
#X obj 490 1667 instrument-piano;
#X obj 530 1507 cycle1-piano-mao;
#X obj 487 1477 - 12;
#X obj 810 1198 r tonica;
#X obj 498 1367 t b b;
#X obj 475 1277 % 2;
#X obj 1759 3073 f;
#X obj 792 1318 f;
#X obj 657 1507 cycle1-strings;
#X obj 657 1667 instrument-string;
#X obj 657 1637 noteslist-inrange;
#X msg 680 1607 96;
#X msg 717 1607 55;
#X obj 744 1577 loadbang;
#X msg 773 1637 1;
#X obj 813 1667 instrument-string;
#X obj 813 1637 noteslist-inrange;
#X msg 836 1607 96;
#X msg 873 1607 55;
#X obj 900 1577 loadbang;
#X obj 969 1667 instrument-string;
#X obj 969 1637 noteslist-inrange;
#X obj 1056 1577 loadbang;
#X obj 1125 1667 instrument-string;
#X obj 1125 1637 noteslist-inrange;
#X obj 1212 1577 loadbang;
#X msg 992 1607 89;
#X msg 1029 1607 48;
#X msg 1148 1607 81;
#X msg 1185 1607 36;
#X msg 929 1637 2;
#X msg 1085 1637 3;
#X msg 1241 1637 4;
#X obj 578 1397 t f f f;
#X obj 657 1537 t l l l l;
#X obj 1065 1537 t l l l l;
#X obj 810 1228 t f f f;
#X obj 403 1107 metro;
#X obj 453 1107 random-maxmin;
#X obj 460 1046 loadbang;
#X obj 403 1367 t b b b b;
#X msg 567 1807 7;
#X msg 557 1787 5;
#X obj 587 1787 f;
#X obj 403 1197 route 0 1;
#X obj 403 1137 t b b;
#X obj 403 1167 f;
#X msg 429 1167 0;
#X msg 459 1167 1;
#X obj 335 1702 f;
#X obj 604 1125 bng 15 250 50 0 empty empty empty 17 7 0 10 #fcfcfc
#000000 #000000;
#X obj 353 1098 bng 15 250 50 0 empty empty empty 17 7 0 10 #fcfcfc
#000000 #000000;
#X msg 329 1614 bang;
#X obj 359 1159 bng 15 250 50 0 empty empty empty 17 7 0 10 #fcfcfc
#000000 #000000;
#X msg 305 1702 96;
#X listbox 434 1559 20 0 0 0 - - - 0;
#X msg 460 1076 10000;
#X msg 505 1076 5000;
#X listbox 486 1587 20 0 0 0 - - - 0;
#X obj 403 1217 bng 15 250 50 0 empty empty empty 17 7 0 10 #fcfcfc
#000000 #000000;
#X obj 433 1217 bng 15 250 50 0 empty empty empty 17 7 0 10 #fcfcfc
#000000 #000000;
#X obj 528 1190 t b b b b;
#X msg 421 1247 0;
#X obj 369 1332 bng 15 250 50 0 empty empty empty 17 7 0 10 #fcfcfc
#000000 #000000;
#X obj 485 1337 bng 15 250 50 0 empty empty empty 17 7 0 10 #fcfcfc
#000000 #000000;
#X listbox 746 1547 20 0 0 0 - - - 0;
#X listbox 909 1549 20 0 0 0 - - - 0;
#X obj 1300 1283 f;
#X obj 1336 1283 + 1;
#X obj 1300 1313 t f f;
#X obj 1384 1483 - 12;
#X obj 1300 1513 cycle2-piano-mao;
#X obj 1427 1513 cycle2-piano-mao;
#X obj 1554 1513 cycle2-strings;
#X obj 1384 1453 - 1;
#X obj 1631 1483 + 1;
#X obj 1372 1283 % 3;
#X obj 1300 1343 route 0 1 2;
#X obj 1300 1403 t b b b;
#X obj 1300 1373 t b b;
#X obj 1350 1373 t b b;
#X obj 1599 1403 f;
#X obj 1599 1433 t f f;
#X msg 1318 1253 0;
#X obj 1553 1183 t b b b b;
#X floatatom 1460 1471 5 0 0 0 - - - 0;
#X floatatom 1325 1465 5 0 0 0 - - - 0;
#X obj 815 1288 t f f f;
#X obj 820 1318 f;
#X connect 0 0 2 0;
#X connect 0 0 20 0;
#X connect 0 0 25 0;
#X connect 0 0 28 0;
#X connect 2 0 1 1;
#X connect 3 0 2 1;
#X connect 4 0 2 2;
#X connect 5 0 3 0;
#X connect 5 0 4 0;
#X connect 5 0 18 0;
#X connect 7 0 10 1;
#X connect 7 1 11 0;
#X connect 8 0 7 1;
#X connect 9 0 7 0;
#X connect 10 0 9 0;
#X connect 10 0 60 0;
#X connect 10 0 61 0;
#X connect 10 0 0 1;
#X connect 10 0 68 0;
#X connect 10 0 37 0;
#X connect 10 0 36 1;
#X connect 11 0 7 0;
#X connect 12 0 10 1;
#X connect 12 1 8 0;
#X connect 13 0 15 0;
#X connect 14 0 51 0;
#X connect 15 0 14 0;
#X connect 15 1 16 0;
#X connect 16 0 49 0;
#X connect 16 1 48 0;
#X connect 17 0 1 3;
#X connect 17 0 19 3;
#X connect 17 0 24 3;
#X connect 17 0 27 3;
#X connect 18 0 1 4;
#X connect 20 0 19 1;
#X connect 21 0 20 1;
#X connect 22 0 20 2;
#X connect 23 0 21 0;
#X connect 23 0 22 0;
#X connect 23 0 40 0;
#X connect 25 0 24 1;
#X connect 26 0 30 0;
#X connect 26 0 31 0;
#X connect 26 0 41 0;
#X connect 28 0 27 1;
#X connect 29 0 32 0;
#X connect 29 0 33 0;
#X connect 29 0 42 0;
#X connect 30 0 25 1;
#X connect 31 0 25 2;
#X connect 32 0 28 1;
#X connect 33 0 28 2;
#X connect 34 0 6 1;
#X connect 36 0 35 1;
#X connect 37 0 34 1;
#X connect 39 0 38 0;
#X connect 40 0 19 4;
#X connect 41 0 24 4;
#X connect 42 0 27 4;
#X connect 43 0 12 0;
#X connect 45 0 44 0;
#X connect 46 0 39 0;
#X connect 46 0 45 0;
#X connect 47 0 1 2;
#X connect 47 0 6 2;
#X connect 47 0 19 2;
#X connect 47 0 24 2;
#X connect 47 0 27 2;
#X connect 47 0 35 2;
#X connect 48 0 34 0;
#X connect 48 1 36 0;
#X connect 49 0 34 0;
#X connect 49 1 36 0;
#X connect 49 2 0 0;
#X connect 49 3 10 0;
#X connect 51 0 13 1;
#X connect 52 0 54 0;
#X connect 53 0 62 0;
#X connect 54 0 53 0;
#X connect 54 1 63 0;
#X connect 55 0 57 1;
#X connect 56 0 57 0;
#X connect 56 1 58 0;
#X connect 56 2 59 0;
#X connect 56 3 10 0;
#X connect 57 0 6 1;
#X connect 58 0 35 1;
#X connect 59 0 2 0;
#X connect 59 0 20 0;
#X connect 59 0 25 0;
#X connect 59 0 28 0;
#X connect 60 0 55 0;
#X connect 60 0 58 1;
#X connect 61 0 59 1;
#X connect 62 0 52 1;
#X connect 63 0 56 0;
#X connect 63 1 64 0;
#X connect 63 2 59 0;
#X connect 64 0 57 0;
#X connect 64 1 58 0;
#X connect 64 2 59 0;
#X connect 65 0 1 3;
#X connect 65 0 19 3;
#X connect 65 0 24 3;
#X connect 65 0 27 3;
#X connect 67 0 52 0;
#X connect 71 0 72 0;
#X connect 71 1 73 0;
#X connect 73 0 69 0;
#X connect 86 0 76 0;
#X connect 86 1 71 0;
#X connect 86 2 78 0;
#X connect 86 3 80 0;
#X connect 86 4 82 0;
#X connect 86 5 84 0;
#X connect 88 0 87 1;
#X connect 89 0 87 1;
#X connect 90 0 95 0;
#X connect 91 0 90 1;
#X connect 91 0 93 0;
#X connect 91 0 96 0;
#X connect 91 0 1 2;
#X connect 91 0 19 2;
#X connect 91 0 24 2;
#X connect 91 0 27 2;
#X connect 91 0 35 2;
#X connect 91 0 6 2;
#X connect 91 0 87 2;
#X connect 92 0 90 0;
#X connect 93 0 94 0;
#X connect 94 1 92 0;
#X connect 95 0 89 0;
#X connect 95 2 65 0;
#X connect 95 3 52 0;
#X connect 97 0 13 0;
#X connect 98 0 101 0;
#X connect 98 0 103 1;
#X connect 99 0 98 2;
#X connect 100 0 103 0;
#X connect 102 0 103 0;
#X connect 103 0 104 0;
#X connect 103 0 112 0;
#X connect 104 0 105 0;
#X connect 104 1 98 0;
#X connect 105 0 107 0;
#X connect 106 0 105 1;
#X connect 107 0 109 0;
#X connect 107 1 106 0;
#X connect 108 0 6 0;
#X connect 108 1 35 0;
#X connect 109 0 110 0;
#X connect 109 1 108 0;
#X connect 109 2 1 0;
#X connect 109 3 19 0;
#X connect 109 4 24 0;
#X connect 109 5 27 0;
#X connect 110 1 116 0;
#X connect 113 0 98 1;
#X connect 114 0 118 0;
#X connect 114 1 119 0;
#X connect 114 2 117 0;
#X connect 115 0 118 2;
#X connect 116 0 91 0;
#X connect 117 0 115 0;
#X connect 119 0 118 1;
#X connect 121 0 124 1;
#X connect 121 1 125 0;
#X connect 122 0 121 1;
#X connect 123 0 121 0;
#X connect 124 0 218 0;
#X connect 125 0 121 0;
#X connect 126 0 128 0;
#X connect 127 0 136 0;
#X connect 128 0 127 0;
#X connect 128 1 129 0;
#X connect 129 0 171 0;
#X connect 129 0 194 0;
#X connect 129 1 135 0;
#X connect 129 1 195 0;
#X connect 130 0 120 1;
#X connect 130 0 186 0;
#X connect 132 0 131 1;
#X connect 132 0 189 0;
#X connect 133 0 130 2;
#X connect 134 0 167 0;
#X connect 135 0 130 0;
#X connect 135 1 132 0;
#X connect 136 0 126 1;
#X connect 139 0 165 0;
#X connect 141 0 140 1;
#X connect 142 0 141 1;
#X connect 143 0 141 2;
#X connect 144 0 142 0;
#X connect 144 0 143 0;
#X connect 144 0 145 0;
#X connect 145 0 140 4;
#X connect 147 0 146 1;
#X connect 148 0 147 1;
#X connect 149 0 147 2;
#X connect 150 0 148 0;
#X connect 150 0 149 0;
#X connect 150 0 161 0;
#X connect 152 0 151 1;
#X connect 153 0 157 0;
#X connect 153 0 158 0;
#X connect 153 0 162 0;
#X connect 155 0 154 1;
#X connect 156 0 159 0;
#X connect 156 0 160 0;
#X connect 156 0 163 0;
#X connect 157 0 152 1;
#X connect 158 0 152 2;
#X connect 159 0 155 1;
#X connect 160 0 155 2;
#X connect 161 0 146 4;
#X connect 162 0 151 4;
#X connect 163 0 154 4;
#X connect 164 0 133 0;
#X connect 164 1 132 2;
#X connect 164 2 139 1;
#X connect 165 0 141 0;
#X connect 165 1 147 0;
#X connect 165 2 152 0;
#X connect 165 3 155 0;
#X connect 166 0 141 0;
#X connect 166 1 147 0;
#X connect 166 2 152 0;
#X connect 166 3 155 0;
#X connect 167 0 138 1;
#X connect 167 1 124 1;
#X connect 167 2 122 0;
#X connect 168 0 176 0;
#X connect 168 0 184 0;
#X connect 169 0 168 1;
#X connect 170 0 188 0;
#X connect 170 0 187 0;
#X connect 171 0 130 0;
#X connect 171 1 132 0;
#X connect 171 2 139 0;
#X connect 172 0 174 0;
#X connect 173 0 174 0;
#X connect 174 0 140 3;
#X connect 174 0 146 3;
#X connect 174 0 151 3;
#X connect 174 0 154 3;
#X connect 175 0 190 0;
#X connect 175 1 191 0;
#X connect 176 0 177 0;
#X connect 176 1 169 0;
#X connect 177 0 175 0;
#X connect 178 0 177 1;
#X connect 179 0 177 1;
#X connect 180 0 120 2;
#X connect 180 0 131 2;
#X connect 180 0 140 2;
#X connect 180 0 146 2;
#X connect 180 0 151 2;
#X connect 180 0 154 2;
#X connect 181 0 192 0;
#X connect 182 0 168 0;
#X connect 183 0 120 0;
#X connect 183 0 131 0;
#X connect 183 0 140 0;
#X connect 183 0 146 0;
#X connect 183 0 151 0;
#X connect 183 0 154 0;
#X connect 185 0 180 0;
#X connect 187 0 169 1;
#X connect 188 0 169 2;
#X connect 190 0 126 0;
#X connect 192 0 178 0;
#X connect 192 1 193 0;
#X connect 192 2 172 0;
#X connect 193 0 126 1;
#X connect 198 0 200 0;
#X connect 199 0 207 0;
#X connect 200 0 199 0;
#X connect 200 1 208 0;
#X connect 201 0 202 2;
#X connect 201 0 217 0;
#X connect 205 0 201 0;
#X connect 205 0 216 0;
#X connect 205 0 203 1;
#X connect 206 0 204 1;
#X connect 207 0 198 1;
#X connect 208 0 210 0;
#X connect 208 1 209 0;
#X connect 208 2 211 0;
#X connect 209 0 202 0;
#X connect 209 1 203 0;
#X connect 209 2 204 0;
#X connect 210 0 209 0;
#X connect 211 0 203 0;
#X connect 211 1 204 0;
#X connect 212 0 213 0;
#X connect 213 0 205 0;
#X connect 213 1 206 0;
#X connect 214 0 198 1;
#X connect 215 1 214 0;
#X connect 215 3 212 0;
#X connect 218 0 138 1;
#X connect 218 1 219 1;
#X connect 218 2 123 0;
