#N canvas -7 0 1099 988 12;
#X obj 725 18 inlet;
#X msg 771 76 const -1;
#X msg 799 256 1;
#X obj 725 226 f;
#X obj 763 226 + 1;
#X msg 743 196 0;
#X obj 763 336 bng 15 250 50 0 empty empty empty 17 7 0 10 #fcfcfc
#000000 #000000;
#X obj 725 362 f;
#X obj 725 336 bng 15 250 50 0 empty empty empty 17 7 0 10 #fcfcfc
#000000 #000000;
#X obj 725 166 t b b;
#X obj 725 316 moses 0;
#X obj 799 227 loadbang;
#X obj 771 106 array define -yrange 0 11 \$0-mode 12;
#X obj 748 136 array set \$0-mode;
#X obj 725 286 array get \$0-mode;
#X text 767 18 mode;
#X obj 725 47 t b l b;
#X obj 725 256 t f f f;
#X obj 716 452 array get \$0-mode;
#X msg 774 422 1;
#X obj 774 393 loadbang;
#X obj 716 422 - 1;
#X obj 798 561 f;
#X text 847 454 last note in list;
#X text 781 501 count how many octaves down to reach 0;
#X obj 748 561 - 12;
#X obj 748 531 t f b;
#X obj 798 591 t f f;
#X obj 834 561 - 1;
#X msg 824 533 0;
#X floatatom 716 472 5 0 0 0 - - - 0;
#X obj 716 501 moses 0;
#X obj 560 561 f;
#X obj 592 621 + 1;
#X obj 592 651 %;
#X obj 428 681 array get \$0-mode;
#X floatatom 428 701 5 0 0 0 - - - 0;
#X obj 592 711 sel 0;
#X obj 560 591 t f f;
#X msg 486 651 1;
#X obj 486 622 loadbang;
#X obj 588 832 *;
#X obj 660 772 + 1;
#X obj 624 772 f;
#X obj 428 859 +;
#X obj 428 889 moses 0;
#X obj 428 919 moses 128;
#X msg 428 471 const -1;
#X obj 428 501 array define -yrange 0 127 \$0-notes 128;
#X obj 489 979 f;
#X obj 525 979 + 1;
#X msg 507 949 0;
#X obj 428 1009 array set \$0-notes;
#X obj 592 681 f;
#X obj 428 949 t b f b;
#X obj 592 741 t f b;
#X floatatom 593 871 5 0 0 0 - - - 0;
#X msg 588 802 12;
#X obj 553 772 loadbang;
#X msg 529 62 62 64 67 71;
#X msg 578 531 0;
#X obj 624 802 t b f f;
#X obj 428 441 t b b b;
#X obj 631 979 f;
#X obj 569 1009 array get \$0-notes;
#X obj 569 1039 outlet;
#X obj 569 949 t b b;
#X obj 693 392 t b f f b;
#X obj 634 1040 print;
#X connect 0 0 16 0;
#X connect 1 0 12 0;
#X connect 2 0 14 1;
#X connect 3 0 17 0;
#X connect 4 0 3 1;
#X connect 5 0 3 1;
#X connect 6 0 3 0;
#X connect 7 0 67 0;
#X connect 8 0 7 0;
#X connect 9 0 3 0;
#X connect 9 1 5 0;
#X connect 10 0 8 0;
#X connect 10 1 6 0;
#X connect 11 0 2 0;
#X connect 14 0 10 0;
#X connect 16 0 9 0;
#X connect 16 1 13 0;
#X connect 16 2 1 0;
#X connect 17 0 14 0;
#X connect 17 1 7 1;
#X connect 17 2 4 0;
#X connect 18 0 30 0;
#X connect 19 0 18 1;
#X connect 20 0 19 0;
#X connect 21 0 18 0;
#X connect 22 0 27 0;
#X connect 25 0 31 0;
#X connect 26 0 25 0;
#X connect 26 1 22 0;
#X connect 27 0 43 0;
#X connect 27 1 28 0;
#X connect 28 0 22 1;
#X connect 29 0 22 1;
#X connect 30 0 31 0;
#X connect 31 1 26 0;
#X connect 32 0 38 0;
#X connect 33 0 34 0;
#X connect 34 0 53 1;
#X connect 35 0 36 0;
#X connect 36 0 44 0;
#X connect 37 0 55 0;
#X connect 37 1 32 0;
#X connect 38 0 35 0;
#X connect 38 1 33 0;
#X connect 39 0 35 1;
#X connect 40 0 39 0;
#X connect 41 0 44 1;
#X connect 41 0 56 0;
#X connect 42 0 43 1;
#X connect 43 0 61 0;
#X connect 44 0 45 0;
#X connect 45 1 46 0;
#X connect 46 0 54 0;
#X connect 46 1 66 0;
#X connect 47 0 48 0;
#X connect 49 0 50 0;
#X connect 49 0 52 1;
#X connect 50 0 49 1;
#X connect 50 0 63 1;
#X connect 51 0 49 1;
#X connect 53 0 37 0;
#X connect 54 0 53 0;
#X connect 54 1 52 0;
#X connect 54 2 49 0;
#X connect 55 0 32 0;
#X connect 55 1 43 0;
#X connect 57 0 41 0;
#X connect 58 0 57 0;
#X connect 59 0 16 0;
#X connect 60 0 32 1;
#X connect 61 0 57 0;
#X connect 61 1 41 1;
#X connect 61 2 42 0;
#X connect 62 0 32 0;
#X connect 62 1 47 0;
#X connect 62 2 60 0;
#X connect 62 2 51 0;
#X connect 63 0 64 1;
#X connect 64 0 65 0;
#X connect 64 0 68 0;
#X connect 66 0 64 0;
#X connect 66 1 63 0;
#X connect 67 0 62 0;
#X connect 67 1 34 1;
#X connect 67 2 21 0;
#X connect 67 3 29 0;
