#N canvas -18 -23 1920 997 12;
#X obj 814 80 inlet;
#X msg 869 140 const -1;
#X obj 851 200 array set \$0-notes;
#X obj 832 350 array get \$0-notes;
#X msg 906 320 1;
#X obj 832 290 f;
#X obj 870 290 + 1;
#X msg 850 260 0;
#X obj 870 409 bng 15 250 50 0 empty empty empty 17 7 0 10 #fcfcfc
#000000 #000000;
#X obj 832 435 f;
#X obj 832 320 t f f;
#X obj 832 409 bng 15 250 50 0 empty empty empty 17 7 0 10 #fcfcfc
#000000 #000000;
#X obj 832 230 t b b;
#X obj 869 170 array define -yrange 0 127 \$0-notes 128;
#X obj 814 110 t b b l b b;
#X obj 906 290 loadbang;
#X obj 650 575 array get \$0-notes;
#X obj 650 395 inlet;
#X msg 711 545 1;
#X obj 751 545 loadbang;
#X obj 650 605 outlet;
#X obj 650 425 spigot;
#X msg 697 425 1;
#X msg 727 425 0;
#X text 855 82 list of notes;
#X obj 686 515 + 1;
#X obj 650 515 f;
#X obj 650 455 t b b;
#X msg 668 485 0;
#X obj 650 545 t f f;
#X obj 722 515 sel;
#X text 650 372 bang to get all notes;
#X obj 807 211 bng 15 250 50 0 empty empty empty 17 7 0 10 #fcfcfc
#000000 #000000;
#X floatatom 832 370 5 0 0 0 - - - 0;
#X obj 832 389 moses 0;
#X connect 0 0 14 0;
#X connect 1 0 13 0;
#X connect 3 0 33 0;
#X connect 4 0 3 1;
#X connect 5 0 6 0;
#X connect 5 0 10 0;
#X connect 6 0 5 1;
#X connect 7 0 5 1;
#X connect 8 0 5 0;
#X connect 9 0 30 1;
#X connect 10 0 3 0;
#X connect 10 1 9 1;
#X connect 11 0 9 0;
#X connect 12 0 5 0;
#X connect 12 1 7 0;
#X connect 14 0 22 0;
#X connect 14 1 12 0;
#X connect 14 2 2 0;
#X connect 14 3 1 0;
#X connect 14 4 23 0;
#X connect 15 0 4 0;
#X connect 16 0 20 0;
#X connect 17 0 21 0;
#X connect 18 0 16 1;
#X connect 19 0 18 0;
#X connect 21 0 27 0;
#X connect 22 0 21 1;
#X connect 23 0 21 1;
#X connect 25 0 30 0;
#X connect 26 0 29 0;
#X connect 27 0 26 0;
#X connect 27 1 28 0;
#X connect 28 0 26 1;
#X connect 29 0 25 0;
#X connect 29 1 16 0;
#X connect 30 1 26 0;
#X connect 32 0 12 0;
#X connect 33 0 34 0;
#X connect 34 0 11 0;
#X connect 34 1 8 0;
