#N canvas 48 -8 1920 997 12;
#X obj 362 911 f;
#X obj 92 562 f;
#X obj 130 562 + 1;
#X obj 346 622 array get \$0-notesthatwent;
#X msg 435 592 1;
#X obj 135 641 bng 15 250 50 0 empty empty empty 17 7 0 10 #fcfcfc
#000000 #000000;
#X obj 522 528 bng 15 250 50 0 empty empty empty 17 7 0 10 #fcfcfc
#000000 #000000;
#X msg 110 532 0;
#X msg 310 791 const -1;
#X obj 362 941 array set \$0-notesthatwent;
#X obj 201 751 f;
#X obj 239 751 + 1;
#X obj 310 751 sel 0;
#X floatatom 346 652 5 0 0 0 - - - 0;
#X obj 346 711 moses 1;
#X obj 360 761 loadbang;
#X obj 346 681 ==;
#X obj 59 537 bng 15 250 50 0 empty empty empty 17 7 0 10 #fcfcfc #000000
#000000;
#X obj 346 592 - 1;
#X obj 201 562 sel 0;
#X msg 219 721 0;
#X obj 419 851 - 1;
#X obj 419 881 t b f;
#X obj 201 797 f;
#X obj 201 781 bng 15 250 50 0 empty empty empty 17 7 0 10 #fcfcfc
#000000 #000000;
#X obj 32 443 == -1;
#X obj 92 443 f;
#X obj 32 493 bng 15 250 50 0 empty empty empty 17 7 0 10 #fcfcfc #000000
#000000;
#X obj 32 473 moses 1;
#X obj 32 413 t f f;
#X obj 274 8 inlet;
#X msg 329 68 const -1;
#X obj 311 128 array set \$0-notes;
#X msg 291 911 1;
#X obj 201 941 array get \$0-notes;
#X obj 291 881 loadbang;
#X obj 32 323 inlet;
#X obj 92 473 t b b f f f f;
#X obj 292 278 array get \$0-notes;
#X msg 366 248 1;
#X obj 292 218 f;
#X obj 330 218 + 1;
#X msg 310 188 0;
#X obj 330 328 bng 15 250 50 0 empty empty empty 17 7 0 10 #fcfcfc
#000000 #000000;
#X obj 292 354 f;
#X obj 292 248 t f f;
#X obj 292 328 bng 15 250 50 0 empty empty empty 17 7 0 10 #fcfcfc
#000000 #000000;
#X obj 292 158 t b b;
#X obj 183 532 + 1;
#X obj 165 562 %;
#X obj 273 751 %;
#X obj 310 821 array define -yrange 0 127 \$0-notesthatwent 127;
#X obj 32 383 random;
#X floatatom 385 384 5 0 0 0 - - - 0;
#X obj 292 308 moses 0;
#X obj 329 98 array define -yrange 0 127 \$0-notes 128;
#X obj 32 353 spigot;
#X msg 109 353 0;
#X msg 79 353 1;
#X obj 274 38 t b b l b b;
#X obj 366 219 loadbang;
#X obj 292 383 t f f f b;
#X obj 201 971 outlet;
#X floatatom 154 972 5 0 0 0 - - - 0;
#X obj 435 562 loadbang;
#X connect 0 0 9 0;
#X connect 1 0 2 0;
#X connect 2 0 49 0;
#X connect 3 0 13 0;
#X connect 4 0 3 1;
#X connect 5 0 1 0;
#X connect 6 0 52 0;
#X connect 7 0 1 1;
#X connect 8 0 51 0;
#X connect 10 0 11 0;
#X connect 10 0 24 0;
#X connect 11 0 50 0;
#X connect 12 0 8 0;
#X connect 12 0 20 0;
#X connect 12 1 21 0;
#X connect 12 1 10 1;
#X connect 13 0 16 0;
#X connect 14 0 5 0;
#X connect 14 1 6 0;
#X connect 15 0 8 0;
#X connect 16 0 14 0;
#X connect 17 0 1 0;
#X connect 18 0 3 0;
#X connect 19 0 10 0;
#X connect 19 1 1 1;
#X connect 19 1 18 0;
#X connect 20 0 10 1;
#X connect 21 0 22 0;
#X connect 22 0 0 0;
#X connect 22 1 9 1;
#X connect 23 0 34 0;
#X connect 24 0 23 0;
#X connect 25 0 28 0;
#X connect 26 0 37 0;
#X connect 27 0 26 0;
#X connect 28 0 27 0;
#X connect 28 1 6 0;
#X connect 29 0 25 0;
#X connect 29 1 26 1;
#X connect 30 0 59 0;
#X connect 31 0 55 0;
#X connect 33 0 34 1;
#X connect 34 0 62 0;
#X connect 34 0 63 0;
#X connect 35 0 33 0;
#X connect 36 0 56 0;
#X connect 37 0 1 0;
#X connect 37 1 7 0;
#X connect 37 2 23 1;
#X connect 37 3 0 1;
#X connect 37 4 16 1;
#X connect 37 5 25 1;
#X connect 38 0 54 0;
#X connect 39 0 38 1;
#X connect 40 0 41 0;
#X connect 40 0 45 0;
#X connect 41 0 40 1;
#X connect 42 0 40 1;
#X connect 43 0 40 0;
#X connect 44 0 53 0;
#X connect 44 0 61 0;
#X connect 45 0 38 0;
#X connect 45 1 44 1;
#X connect 46 0 44 0;
#X connect 47 0 40 0;
#X connect 47 1 42 0;
#X connect 48 0 49 1;
#X connect 49 0 19 0;
#X connect 50 0 12 0;
#X connect 52 0 29 0;
#X connect 54 0 46 0;
#X connect 54 1 43 0;
#X connect 56 0 52 0;
#X connect 57 0 56 1;
#X connect 58 0 56 1;
#X connect 59 0 58 0;
#X connect 59 1 47 0;
#X connect 59 2 32 0;
#X connect 59 3 31 0;
#X connect 59 4 57 0;
#X connect 60 0 39 0;
#X connect 61 0 50 1;
#X connect 61 1 48 0;
#X connect 61 2 52 1;
#X connect 61 3 20 0;
#X connect 64 0 4 0;
