#N canvas 539 238 687 732 12;
#X msg 384 87 const -1;
#X obj 235 472 f;
#X obj 303 502 random-maxmin;
#X obj 370 472 -;
#X obj 388 442 * 2;
#X obj 285 532 +;
#X obj 271 472 t f b;
#X obj 347 382 inlet;
#X obj 235 442 inlet;
#X obj 285 682 outlet;
#X obj 285 562 moses;
#X obj 285 592 moses;
#X obj 285 652 array get \$0-notes;
#X msg 375 592 1;
#X msg 335 592 0;
#X obj 213 550 bng 15 250 50 0 empty empty empty 17 7 0 10 #fcfcfc
#000000 #000000;
#X obj 412 592 loadbang;
#X obj 285 442 i;
#X obj 347 412 t f f f;
#X obj 384 117 array define -yrange 0 127 \$0-notes 128;
#X obj 361 147 array set \$0-notes;
#X obj 338 58 t b l b;
#X obj 303 352 t f f;
#X text 32 426 bang for new note in a range of the last. First ever
note is in middle of list, f 28;
#X text 389 382 distance range;
#X obj 418 28 inlet;
#X text 461 28 list of notes;
#X obj 285 622 t f f;
#X obj 303 237 array get \$0-notes;
#X msg 365 177 1;
#X obj 398 177 loadbang;
#X obj 303 177 f;
#X obj 334 177 + 1;
#X obj 342 296 bng 15 250 50 0 empty empty empty 17 7 0 10 #fcfcfc
#000000 #000000;
#X obj 303 117 t b b;
#X msg 321 147 0;
#X obj 303 207 t f f f;
#X obj 303 322 f;
#X obj 303 296 bng 15 250 50 0 empty empty empty 17 7 0 10 #fcfcfc
#000000 #000000;
#X floatatom 303 257 5 0 0 0 - - - 0;
#X obj 303 276 moses 0;
#X floatatom 432 443 5 0 0 0 - - - 0;
#X floatatom 355 356 5 0 0 0 - - - 0;
#X floatatom 239 518 5 0 0 0 - - - 0;
#X floatatom 213 374 5 0 0 0 - - - 0;
#X obj 285 412 / 2;
#X connect 0 0 19 0;
#X connect 1 0 6 0;
#X connect 2 0 5 1;
#X connect 3 0 2 2;
#X connect 4 0 3 1;
#X connect 5 0 10 0;
#X connect 6 0 5 0;
#X connect 6 0 43 0;
#X connect 6 1 2 0;
#X connect 7 0 18 0;
#X connect 7 0 41 0;
#X connect 8 0 1 0;
#X connect 10 0 11 0;
#X connect 10 1 15 0;
#X connect 11 0 15 0;
#X connect 11 1 27 0;
#X connect 12 0 9 0;
#X connect 13 0 12 1;
#X connect 14 0 11 1;
#X connect 15 0 1 0;
#X connect 16 0 13 0;
#X connect 16 0 14 0;
#X connect 17 0 1 1;
#X connect 17 0 44 0;
#X connect 18 0 2 1;
#X connect 18 1 3 0;
#X connect 18 2 4 0;
#X connect 21 0 34 0;
#X connect 21 1 20 0;
#X connect 21 2 0 0;
#X connect 22 0 45 0;
#X connect 22 1 10 1;
#X connect 22 1 42 0;
#X connect 25 0 21 0;
#X connect 27 0 1 1;
#X connect 27 1 12 0;
#X connect 28 0 39 0;
#X connect 29 0 28 1;
#X connect 30 0 29 0;
#X connect 31 0 36 0;
#X connect 32 0 31 1;
#X connect 33 0 31 0;
#X connect 34 0 31 0;
#X connect 34 1 35 0;
#X connect 35 0 31 1;
#X connect 36 0 28 0;
#X connect 36 1 37 1;
#X connect 36 2 32 0;
#X connect 37 0 22 0;
#X connect 38 0 37 0;
#X connect 39 0 40 0;
#X connect 40 0 38 0;
#X connect 40 1 33 0;
#X connect 45 0 17 0;
