#N canvas 135 92 1920 997 12;
#X obj 289 464 route 0 1 2;
#X obj 289 434 pack f f f;
#X obj 322 374 random-maxmin;
#X obj 356 404 random-maxmin;
#X obj 388 434 random-maxmin;
#X text 420 374 onde estou;
#X text 455 404 para onde vou;
#X obj 171 152 moses 0;
#X obj 209 172 bng 15 250 50 0 empty empty empty 17 7 0 10 #fcfcfc
#000000 #000000;
#X obj 171 172 bng 15 250 50 0 empty empty empty 17 7 0 10 #fcfcfc
#000000 #000000;
#X obj 171 102 inlet;
#X msg 249 384 2;
#X msg 189 324 0;
#X msg 219 354 1;
#X obj 119 525 >;
#X obj 169 525 <;
#X obj 119 495 unpack;
#X obj 219 525 ==;
#X obj 119 545 sel 1;
#X obj 169 545 sel 1;
#X obj 219 545 sel 1;
#X text 70 315 descobrir se vou descer ou subir, f 16;
#X obj 323 544 unpack;
#X obj 323 635 -;
#X obj 323 665 moses, f 10;
#X obj 390 635 + 1;
#X floatatom 391 605 5 0 0 0 - - - 0;
#X floatatom 275 545 5 0 0 0 - - - 0;
#X floatatom 381 544 5 0 0 0 - - - 0;
#X floatatom 408 666 5 0 0 0 - - - 0;
#X floatatom 274 666 5 0 0 0 - - - 0;
#X obj 355 604 /;
#X obj 323 574 t f f;
#X obj 535 544 unpack;
#X obj 535 665 moses, f 10;
#X floatatom 603 605 5 0 0 0 - - - 0;
#X floatatom 487 545 5 0 0 0 - - - 0;
#X floatatom 593 544 5 0 0 0 - - - 0;
#X floatatom 620 666 5 0 0 0 - - - 0;
#X floatatom 486 666 5 0 0 0 - - - 0;
#X obj 567 604 /;
#X obj 535 574 t f f;
#X obj 535 635 +;
#X text 270 686 cheguei;
#X text 604 685 cheguei;
#X obj 123 109 bng 15 250 50 0 empty empty empty 17 7 0 10 #fcfcfc
#000000 #000000;
#X floatatom 176 496 5 0 0 0 - - - 0;
#X floatatom 71 496 5 0 0 0 - - - 0;
#X obj 171 132 -1;
#X msg 197 132 -1;
#X obj 289 414 f;
#X obj 289 218 t b b b b;
#X obj 323 735 outlet;
#X text 313 524 descer >;
#X text 532 524 subir <;
#X text 154 363 descer >;
#X text 191 395 subir <;
#X obj 400 189 inlet;
#X obj 400 279 *;
#X obj 400 308 /;
#X obj 436 279 + 1;
#X obj 472 189 inlet;
#X obj 472 279 *;
#X obj 472 308 /;
#X obj 508 279 - 1;
#X obj 400 249 f;
#X obj 472 249 f;
#X text 528 300 Para garantir que o Max e o Min estajam corretos o
Random-maxmin não pode ir até os limites: RandomMax = (max . Proporcao)
/ (Proporcao + 1) RandomMin = (max . Proporcao) / (Proporcao - 1),
f 48;
#X obj 171 218 t b b b b b;
#X obj 443 735 outlet;
#X obj 450 695 t f f;
#X obj 561 734 outlet;
#X text 416 756 bang em baixo;
#X text 542 756 bang em cima;
#X text 326 757 numero;
#X obj 434 219 t b f f f f;
#X obj 472 338 t f f;
#X obj 400 338 t f f;
#X obj 388 464 t f f f;
#X obj 171 188 t b f;
#X obj 322 308 -1;
#X obj 308 248 inlet;
#X obj 322 328 moses 0;
#X obj 322 348 bng 15 250 50 0 empty empty empty 17 7 0 10 #fcfcfc
#000000 #000000;
#X obj 323 695 t b f b f;
#X obj 555 696 t b f b f;
#X obj 494 434 inlet;
#X obj 544 434 inlet;
#X text 586 433 proporção que vou max min;
#X obj 308 278 t b f;
#X text 319 113 one random proportional to rule then all;
#X connect 0 0 16 0;
#X connect 0 1 22 0;
#X connect 0 2 33 0;
#X connect 1 0 0 0;
#X connect 2 0 1 1;
#X connect 3 0 1 2;
#X connect 4 0 78 0;
#X connect 7 0 9 0;
#X connect 7 1 8 0;
#X connect 8 0 50 0;
#X connect 9 0 79 0;
#X connect 10 0 48 0;
#X connect 11 0 50 1;
#X connect 12 0 50 1;
#X connect 13 0 50 1;
#X connect 14 0 18 0;
#X connect 15 0 19 0;
#X connect 16 0 17 0;
#X connect 16 0 15 0;
#X connect 16 0 14 0;
#X connect 16 0 47 0;
#X connect 16 1 17 1;
#X connect 16 1 15 1;
#X connect 16 1 14 1;
#X connect 16 1 46 0;
#X connect 17 0 20 0;
#X connect 18 0 13 0;
#X connect 19 0 11 0;
#X connect 20 0 51 0;
#X connect 22 0 27 0;
#X connect 22 0 32 0;
#X connect 22 1 28 0;
#X connect 22 1 25 0;
#X connect 23 0 24 0;
#X connect 24 0 30 0;
#X connect 24 0 84 0;
#X connect 24 1 29 0;
#X connect 24 1 70 0;
#X connect 25 0 24 1;
#X connect 31 0 26 0;
#X connect 31 0 23 1;
#X connect 32 0 23 0;
#X connect 32 1 31 0;
#X connect 33 0 36 0;
#X connect 33 0 41 0;
#X connect 33 1 37 0;
#X connect 33 1 34 1;
#X connect 34 0 39 0;
#X connect 34 0 70 0;
#X connect 34 1 38 0;
#X connect 34 1 85 0;
#X connect 40 0 35 0;
#X connect 40 0 42 1;
#X connect 41 0 42 0;
#X connect 41 1 40 0;
#X connect 42 0 34 0;
#X connect 45 0 48 0;
#X connect 48 0 7 0;
#X connect 49 0 48 1;
#X connect 50 0 1 0;
#X connect 51 0 50 0;
#X connect 51 1 12 0;
#X connect 51 2 3 0;
#X connect 51 3 4 0;
#X connect 57 0 65 0;
#X connect 58 0 59 0;
#X connect 59 0 77 0;
#X connect 60 0 59 1;
#X connect 61 0 66 0;
#X connect 62 0 63 0;
#X connect 63 0 76 0;
#X connect 64 0 63 1;
#X connect 65 0 58 0;
#X connect 66 0 62 0;
#X connect 68 0 50 0;
#X connect 68 1 12 0;
#X connect 68 2 80 0;
#X connect 68 3 3 0;
#X connect 68 4 4 0;
#X connect 70 0 1 1;
#X connect 70 1 52 0;
#X connect 75 0 66 0;
#X connect 75 0 65 0;
#X connect 75 1 58 1;
#X connect 75 2 60 0;
#X connect 75 3 62 1;
#X connect 75 4 64 0;
#X connect 76 0 2 2;
#X connect 76 1 3 2;
#X connect 77 0 2 1;
#X connect 77 1 3 1;
#X connect 78 0 31 1;
#X connect 78 1 40 1;
#X connect 78 2 75 0;
#X connect 79 0 68 0;
#X connect 79 1 48 1;
#X connect 80 0 82 0;
#X connect 81 0 89 0;
#X connect 82 0 83 0;
#X connect 82 1 1 1;
#X connect 83 0 2 0;
#X connect 84 0 51 0;
#X connect 84 1 1 1;
#X connect 84 2 69 0;
#X connect 84 3 52 0;
#X connect 85 0 51 0;
#X connect 85 1 1 1;
#X connect 85 2 71 0;
#X connect 85 3 52 0;
#X connect 86 0 4 1;
#X connect 87 0 4 2;
#X connect 89 0 49 0;
#X connect 89 1 80 1;
