#N canvas 350 -17 1920 997 12;
#X obj 289 288 route 0 1 2;
#X obj 289 258 pack f f f;
#X obj 323 198 random-maxmin;
#X obj 356 228 random-maxmin;
#X obj 388 288 random-maxmin;
#X text 420 198 onde estou;
#X text 455 228 para onde vou;
#X obj 289 72 moses 0;
#X obj 327 92 bng 15 250 50 0 empty empty empty 17 7 0 10 #fcfcfc #000000
#000000;
#X obj 289 92 bng 15 250 50 0 empty empty empty 17 7 0 10 #fcfcfc #000000
#000000;
#X obj 289 22 inlet;
#X text 489 289 proporção que vou;
#X msg 249 238 2;
#X msg 189 178 0;
#X msg 219 208 1;
#X obj 289 138 t b b;
#X msg 432 258 10;
#X msg 476 258 5;
#X obj 517 258 loadbang;
#X obj 70 408 >;
#X obj 120 408 <;
#X obj 70 378 unpack;
#X obj 170 408 ==;
#X obj 70 428 sel 1;
#X obj 120 428 sel 1;
#X obj 170 428 sel 1;
#X text 70 169 descobrir se vou descer ou subir, f 16;
#X obj 298 378 unpack;
#X obj 298 469 -;
#X obj 298 499 moses, f 10;
#X obj 365 469 + 1;
#X floatatom 366 439 5 0 0 0 - - - 0;
#X floatatom 250 379 5 0 0 0 - - - 0;
#X floatatom 356 378 5 0 0 0 - - - 0;
#X floatatom 383 500 5 0 0 0 - - - 0;
#X floatatom 249 500 5 0 0 0 - - - 0;
#X obj 330 438 /;
#X obj 298 408 t f f;
#X obj 510 378 unpack;
#X obj 510 499 moses, f 10;
#X floatatom 578 439 5 0 0 0 - - - 0;
#X floatatom 462 379 5 0 0 0 - - - 0;
#X floatatom 568 378 5 0 0 0 - - - 0;
#X floatatom 595 500 5 0 0 0 - - - 0;
#X floatatom 461 500 5 0 0 0 - - - 0;
#X obj 542 438 /;
#X obj 510 408 t f f;
#X obj 510 469 +;
#X text 245 520 cheguei;
#X text 579 519 cheguei;
#X obj 239 138 t b f;
#X obj 241 29 bng 15 250 50 0 empty empty empty 17 7 0 10 #fcfcfc #000000
#000000;
#X floatatom 127 379 5 0 0 0 - - - 0;
#X floatatom 22 379 5 0 0 0 - - - 0;
#X obj 289 108 0;
#X obj 289 52 -1;
#X msg 315 52 -1;
#X floatatom 398 318 5 0 0 0 - - - 0;
#X obj 289 238 f;
#X obj 289 168 t b b b b;
#X obj 440 539 outlet;
#X text 288 358 descer >;
#X text 507 358 subir <;
#X text 154 207 descer >;
#X text 191 239 subir <;
#X obj 367 79 inlet;
#X obj 367 139 *;
#X obj 367 168 /;
#X obj 403 139 + 1;
#X obj 467 79 inlet;
#X obj 467 139 *;
#X obj 467 168 /;
#X obj 503 139 - 1;
#X obj 367 109 f;
#X obj 467 109 f;
#X obj 417 79 t b f;
#X text 536 84 Para garantir que o Max e o Min estajam corretos o Random-maxmin
não pode ir até os limites: RandomMax = (max . MinProporcao) / (MinProporcao
+ 1) RandomMin = (max . MinProporcao) / (MinProporcao - 1), f 54;
#X connect 0 0 21 0;
#X connect 0 1 27 0;
#X connect 0 2 38 0;
#X connect 1 0 0 0;
#X connect 2 0 1 1;
#X connect 3 0 1 2;
#X connect 4 0 36 1;
#X connect 4 0 45 1;
#X connect 4 0 57 0;
#X connect 7 0 9 0;
#X connect 7 1 8 0;
#X connect 8 0 58 0;
#X connect 9 0 54 0;
#X connect 10 0 55 0;
#X connect 12 0 58 1;
#X connect 13 0 58 1;
#X connect 14 0 58 1;
#X connect 15 0 59 0;
#X connect 15 1 2 0;
#X connect 16 0 4 1;
#X connect 17 0 4 2;
#X connect 17 0 75 0;
#X connect 18 0 16 0;
#X connect 18 0 17 0;
#X connect 19 0 23 0;
#X connect 20 0 24 0;
#X connect 21 0 22 0;
#X connect 21 0 20 0;
#X connect 21 0 19 0;
#X connect 21 0 53 0;
#X connect 21 1 22 1;
#X connect 21 1 20 1;
#X connect 21 1 19 1;
#X connect 21 1 52 0;
#X connect 22 0 25 0;
#X connect 23 0 14 0;
#X connect 24 0 12 0;
#X connect 25 0 59 0;
#X connect 27 0 32 0;
#X connect 27 0 37 0;
#X connect 27 1 33 0;
#X connect 27 1 30 0;
#X connect 28 0 29 0;
#X connect 29 0 35 0;
#X connect 29 0 50 0;
#X connect 29 0 60 0;
#X connect 29 1 34 0;
#X connect 29 1 1 1;
#X connect 29 1 60 0;
#X connect 30 0 29 1;
#X connect 36 0 31 0;
#X connect 36 0 28 1;
#X connect 37 0 28 0;
#X connect 37 1 36 0;
#X connect 38 0 41 0;
#X connect 38 0 46 0;
#X connect 38 1 42 0;
#X connect 38 1 39 1;
#X connect 39 0 44 0;
#X connect 39 0 1 1;
#X connect 39 0 60 0;
#X connect 39 1 43 0;
#X connect 39 1 50 0;
#X connect 39 1 60 0;
#X connect 45 0 40 0;
#X connect 45 0 47 1;
#X connect 46 0 47 0;
#X connect 46 1 45 0;
#X connect 47 0 39 0;
#X connect 50 0 59 0;
#X connect 50 1 1 1;
#X connect 51 0 55 0;
#X connect 54 0 15 0;
#X connect 54 0 55 1;
#X connect 55 0 7 0;
#X connect 56 0 55 1;
#X connect 58 0 1 0;
#X connect 59 0 58 0;
#X connect 59 1 13 0;
#X connect 59 2 3 0;
#X connect 59 3 4 0;
#X connect 65 0 73 0;
#X connect 66 0 67 0;
#X connect 67 0 2 1;
#X connect 67 0 3 1;
#X connect 68 0 67 1;
#X connect 69 0 74 0;
#X connect 70 0 71 0;
#X connect 71 0 2 2;
#X connect 71 0 3 2;
#X connect 72 0 71 1;
#X connect 73 0 66 0;
#X connect 74 0 70 0;
#X connect 75 0 74 0;
#X connect 75 0 73 0;
#X connect 75 1 72 0;
#X connect 75 1 70 1;
#X connect 75 1 68 0;
#X connect 75 1 66 1;
