#N canvas 415 234 1920 1041 12;
#X obj 850 502 / 1000;
#X obj 629 270 min;
#X obj 647 300 max;
#X floatatom 850 532 5 0 0 0 - - - 0;
#X floatatom 590 214 5 0 0 0 - - - 0;
#X obj 667 151 random-maxmin;
#X obj 638 214 random-around;
#X obj 647 366 maxmin;
#X obj 565 470 random-maxmin;
#X obj 719 473 random-maxmin;
#X obj 582 395 bng 15 250 50 0 empty empty empty 17 7 0 10 #fcfcfc
#000000 #000000;
#X obj 725 395 bng 15 250 50 0 empty empty empty 17 7 0 10 #fcfcfc
#000000 #000000;
#X msg 609 440 900;
#X msg 807 442 100;
#X obj 782 403 loadbang;
#X msg 766 204 0.3;
#X obj 786 174 inlet;
#X text 838 174 grain;
#X obj 711 91 inlet;
#X obj 755 91 inlet;
#X text 714 65 max;
#X text 761 65 min;
#X obj 591 332 outlet;
#X obj 638 184 inlet;
#X text 452 185 bang to get random number;
#X floatatom 664 330 5 0 0 0 - - - 0;
#X obj 711 121 t b f;
#X obj 755 121 t b f;
#X obj 825 121 bng 15 250 50 0 empty empty empty 17 7 0 10 #fcfcfc
#000000 #000000;
#X obj 645 123 bng 15 250 50 0 empty empty empty 17 7 0 10 #fcfcfc
#000000 #000000;
#X msg 653 440 800;
#X msg 763 442 200;
#X connect 0 0 3 0;
#X connect 0 0 6 3;
#X connect 1 0 2 0;
#X connect 2 0 7 0;
#X connect 2 0 22 0;
#X connect 2 0 25 0;
#X connect 4 0 6 1;
#X connect 5 0 6 1;
#X connect 6 0 4 0;
#X connect 6 0 1 0;
#X connect 7 0 8 0;
#X connect 7 0 10 0;
#X connect 7 1 9 0;
#X connect 7 1 11 0;
#X connect 8 0 0 0;
#X connect 9 0 0 0;
#X connect 12 0 8 1;
#X connect 13 0 9 2;
#X connect 14 0 12 0;
#X connect 14 0 30 0;
#X connect 14 0 31 0;
#X connect 14 0 13 0;
#X connect 14 0 15 0;
#X connect 15 0 6 3;
#X connect 16 0 6 2;
#X connect 18 0 26 0;
#X connect 18 0 29 0;
#X connect 19 0 27 0;
#X connect 19 0 28 0;
#X connect 23 0 6 0;
#X connect 26 0 5 0;
#X connect 26 1 7 1;
#X connect 26 1 5 1;
#X connect 26 1 1 1;
#X connect 27 0 5 0;
#X connect 27 1 5 2;
#X connect 27 1 7 2;
#X connect 27 1 2 1;
#X connect 30 0 8 2;
#X connect 31 0 9 1;
