#N canvas 324 186 450 434 12;
#X obj 178 259 random;
#X obj 178 289 +;
#X obj 168 199 inlet;
#X text 130 201 bang;
#X obj 178 319 outlet;
#X obj 217 199 -;
#X obj 217 110 inlet;
#X obj 265 110 inlet;
#X obj 235 139 t b f;
#X obj 217 229 + 1;
#X text 311 111 random min;
#X text 192 85 random max;
#X obj 217 169 f;
#X connect 0 0 1 0;
#X connect 1 0 4 0;
#X connect 2 0 0 0;
#X connect 5 0 9 0;
#X connect 6 0 12 0;
#X connect 7 0 8 0;
#X connect 7 0 1 1;
#X connect 8 0 12 0;
#X connect 8 1 5 1;
#X connect 9 0 0 1;
#X connect 12 0 5 0;
