#N canvas 106 30 1920 997 12;
#X text 779 88 onde estou;
#X text 932 94 para onde vou;
#X obj 873 420 route 0 1 2;
#X obj 1090 220 >;
#X obj 1090 250 moses 1;
#X obj 1154 250 moses 1;
#X obj 1154 220 <;
#X obj 1218 250 f;
#X obj 1254 250 + 1;
#X obj 1254 280 == 2;
#X msg 1236 220 0;
#X obj 1254 309 moses 1;
#X obj 1090 190 f;
#X obj 1154 190 f;
#X obj 1232 191 bng 15 250 50 0 empty empty empty 17 7 0 10 #fcfcfc
#000000 #000000;
#X obj 1218 224 bng 15 250 50 0 empty empty empty 17 7 0 10 #fcfcfc
#000000 #000000;
#X obj 333 108 unpack;
#X obj 1113 160 unpack;
#X obj 333 138 f;
#X obj 333 229 -;
#X obj 333 259 moses, f 10;
#X obj 400 229 + 1;
#X floatatom 285 169 5 0 0 0 - - - 0;
#X floatatom 285 199 5 0 0 0 - - - 0;
#X floatatom 285 230 5 0 0 0 - - - 0;
#X obj 940 360 f;
#X obj 906 360 f;
#X obj 873 390 pack f f f;
#X obj 873 230 t b b b;
#X obj 1090 128 t b l b;
#X msg 833 360 2;
#X obj 873 360 f 2;
#X msg 753 360 0;
#X msg 793 360 1;
#X floatatom 285 109 5 0 0 0 - - - 0;
#X floatatom 390 109 5 0 0 0 - - - 0;
#X floatatom 1170 161 5 0 0 0 - - - 0;
#X floatatom 1064 161 5 0 0 0 - - - 0;
#X floatatom 418 260 5 0 0 0 - - - 0;
#X floatatom 284 260 5 0 0 0 - - - 0;
#X obj 1300 532 random-maxmin;
#X obj 1300 396 == 0;
#X obj 1300 425 moses 1;
#X obj 1300 366 f;
#X obj 1300 339 bng 15 250 50 0 empty empty empty 17 7 0 10 #fcfcfc
#000000 #000000;
#X obj 1300 622 pack;
#X obj 1300 651 route 0 1;
#X msg 1221 592 0;
#X msg 1262 592 1;
#X obj 1300 592 f;
#X obj 1300 562 t b f;
#X obj 1221 425 t b b b b;
#X floatatom 1252 652 5 0 0 0 - - - 0;
#X floatatom 1378 652 5 0 0 0 - - - 0;
#X obj 873 94 f -1;
#X obj 873 123 moses 0;
#X obj 873 200 t b b;
#X floatatom 1177 642 5 0 0 0 - - - 0;
#X obj 911 143 bng 15 250 50 0 empty empty empty 17 7 0 10 #fcfcfc
#000000 #000000;
#X obj 873 143 bng 15 250 50 0 empty empty empty 17 7 0 10 #fcfcfc
#000000 #000000;
#X obj 873 170 f;
#X obj 1330 711 t b b f;
#X obj 1364 473 inlet;
#X obj 813 814 outlet;
#X floatatom 1413 503 5 0 0 0 - - - 0;
#X floatatom 1307 503 5 0 0 0 - - - 0;
#X obj 873 64 inlet;
#X obj 783 53 bng 15 250 50 0 empty empty empty 17 7 0 10 #fcfcfc #000000
#000000;
#X obj 1377 426 bng 15 250 50 0 empty empty empty 17 7 0 10 #fcfcfc
#000000 #000000;
#X obj 391 168 random-maxmin;
#X obj 435 107 loadbang;
#X obj 365 198 /;
#X obj 333 168 t f f b;
#X obj 1344 502 f;
#X obj 1414 473 inlet;
#X obj 1388 502 f;
#X obj 1300 473 t b b b;
#X obj 1460 534 max 0;
#X msg 435 138 10;
#X msg 479 138 10;
#X obj 639 470 unpack;
#X obj 639 589 f;
#X obj 639 680 -;
#X obj 639 710 moses, f 10;
#X obj 706 680 + 1;
#X floatatom 591 620 5 0 0 0 - - - 0;
#X floatatom 591 650 5 0 0 0 - - - 0;
#X floatatom 591 681 5 0 0 0 - - - 0;
#X floatatom 591 471 5 0 0 0 - - - 0;
#X floatatom 697 470 5 0 0 0 - - - 0;
#X floatatom 724 711 5 0 0 0 - - - 0;
#X floatatom 590 711 5 0 0 0 - - - 0;
#X obj 697 619 random-maxmin;
#X obj 741 559 loadbang;
#X obj 671 649 /;
#X msg 741 589 10;
#X obj 697 529 spigot;
#X obj 729 503 tgl 15 0 empty empty empty 17 7 0 10 #fcfcfc #000000
#000000 0 1;
#X obj 639 619 t f f;
#X msg 785 589 10;
#X obj 697 559 t b b;
#X obj 665 500 t f b;
#X floatatom 724 651 5 0 0 0 - - - 0;
#X obj 629 739 t f f b b;
#X obj 926 472 unpack;
#X obj 926 591 f;
#X obj 926 712 moses, f 10;
#X obj 993 682 + 1;
#X floatatom 878 622 5 0 0 0 - - - 0;
#X floatatom 878 652 5 0 0 0 - - - 0;
#X floatatom 878 683 5 0 0 0 - - - 0;
#X floatatom 878 473 5 0 0 0 - - - 0;
#X floatatom 984 472 5 0 0 0 - - - 0;
#X floatatom 1011 713 5 0 0 0 - - - 0;
#X floatatom 877 713 5 0 0 0 - - - 0;
#X obj 984 621 random-maxmin;
#X obj 1028 561 loadbang;
#X obj 958 651 /;
#X msg 1028 591 10;
#X obj 984 531 spigot;
#X obj 1016 505 tgl 15 0 empty empty empty 17 7 0 10 #fcfcfc #000000
#000000 0 1;
#X obj 926 621 t f f;
#X msg 1072 591 10;
#X obj 984 561 t b b;
#X obj 952 502 t f b;
#X floatatom 1011 653 5 0 0 0 - - - 0;
#X obj 926 682 +;
#X obj 706 740 t f f f;
#X obj 993 742 t f b f f b;
#X obj 916 741 t f f;
#X connect 2 0 80 0;
#X connect 2 1 104 0;
#X connect 2 2 29 0;
#X connect 3 0 4 0;
#X connect 4 0 15 0;
#X connect 4 1 32 0;
#X connect 5 0 15 0;
#X connect 5 1 33 0;
#X connect 6 0 5 0;
#X connect 7 0 8 0;
#X connect 8 0 7 1;
#X connect 8 0 9 0;
#X connect 9 0 11 0;
#X connect 10 0 7 1;
#X connect 11 1 44 0;
#X connect 12 0 6 0;
#X connect 12 0 3 0;
#X connect 13 0 6 1;
#X connect 13 0 3 1;
#X connect 14 0 10 0;
#X connect 15 0 7 0;
#X connect 16 0 18 0;
#X connect 16 0 34 0;
#X connect 16 1 21 0;
#X connect 16 1 35 0;
#X connect 17 0 12 1;
#X connect 17 0 37 0;
#X connect 17 0 43 1;
#X connect 17 1 13 1;
#X connect 17 1 36 0;
#X connect 18 0 72 0;
#X connect 19 0 20 0;
#X connect 19 0 24 0;
#X connect 20 0 39 0;
#X connect 20 1 18 1;
#X connect 20 1 38 0;
#X connect 21 0 20 1;
#X connect 25 0 27 2;
#X connect 26 0 27 1;
#X connect 27 0 2 0;
#X connect 28 0 31 0;
#X connect 28 1 26 0;
#X connect 28 2 25 0;
#X connect 29 0 13 0;
#X connect 29 0 12 0;
#X connect 29 1 17 0;
#X connect 29 2 14 0;
#X connect 30 0 31 1;
#X connect 31 0 27 0;
#X connect 32 0 31 1;
#X connect 33 0 31 1;
#X connect 40 0 77 0;
#X connect 41 0 42 0;
#X connect 42 0 76 0;
#X connect 42 1 51 0;
#X connect 42 1 68 0;
#X connect 43 0 41 0;
#X connect 44 0 43 0;
#X connect 45 0 46 0;
#X connect 46 0 52 0;
#X connect 46 0 26 1;
#X connect 46 1 53 0;
#X connect 46 1 61 0;
#X connect 47 0 49 1;
#X connect 48 0 49 1;
#X connect 49 0 45 0;
#X connect 49 0 57 0;
#X connect 50 0 49 0;
#X connect 50 1 45 1;
#X connect 51 0 76 0;
#X connect 51 1 48 0;
#X connect 51 2 76 0;
#X connect 51 3 47 0;
#X connect 54 0 55 0;
#X connect 55 0 59 0;
#X connect 55 1 58 0;
#X connect 56 0 28 0;
#X connect 56 1 28 0;
#X connect 58 0 28 0;
#X connect 59 0 60 0;
#X connect 60 0 54 1;
#X connect 60 0 56 0;
#X connect 61 0 28 0;
#X connect 61 1 30 0;
#X connect 61 2 25 1;
#X connect 62 0 73 1;
#X connect 66 0 54 0;
#X connect 67 0 54 0;
#X connect 69 0 71 1;
#X connect 70 0 78 0;
#X connect 70 0 79 0;
#X connect 71 0 23 0;
#X connect 71 0 19 1;
#X connect 72 0 19 0;
#X connect 72 1 22 0;
#X connect 72 1 71 0;
#X connect 72 2 69 0;
#X connect 73 0 40 1;
#X connect 73 0 65 0;
#X connect 74 0 75 1;
#X connect 75 0 40 2;
#X connect 75 0 64 0;
#X connect 76 0 40 0;
#X connect 76 1 73 0;
#X connect 76 2 75 0;
#X connect 77 0 50 0;
#X connect 78 0 69 1;
#X connect 79 0 69 2;
#X connect 80 0 81 0;
#X connect 80 0 88 0;
#X connect 80 1 89 0;
#X connect 80 1 101 0;
#X connect 81 0 98 0;
#X connect 82 0 83 0;
#X connect 82 0 87 0;
#X connect 83 0 91 0;
#X connect 83 0 103 0;
#X connect 83 1 90 0;
#X connect 83 1 127 0;
#X connect 84 0 83 1;
#X connect 92 0 94 1;
#X connect 92 0 102 0;
#X connect 93 0 95 0;
#X connect 93 0 99 0;
#X connect 93 0 97 0;
#X connect 94 0 86 0;
#X connect 94 0 82 1;
#X connect 95 0 92 1;
#X connect 96 0 100 0;
#X connect 97 0 96 1;
#X connect 98 0 82 0;
#X connect 98 1 85 0;
#X connect 98 1 94 0;
#X connect 99 0 92 2;
#X connect 100 0 92 0;
#X connect 100 1 97 0;
#X connect 101 0 84 0;
#X connect 101 1 96 0;
#X connect 103 0 63 0;
#X connect 103 1 26 1;
#X connect 103 2 76 0;
#X connect 103 3 97 0;
#X connect 104 0 105 0;
#X connect 104 0 111 0;
#X connect 104 1 112 0;
#X connect 104 1 124 0;
#X connect 105 0 121 0;
#X connect 106 0 114 0;
#X connect 106 0 129 0;
#X connect 106 1 113 0;
#X connect 106 1 128 0;
#X connect 107 0 106 1;
#X connect 115 0 117 1;
#X connect 115 0 125 0;
#X connect 116 0 118 0;
#X connect 116 0 122 0;
#X connect 116 0 120 0;
#X connect 117 0 109 0;
#X connect 117 0 126 1;
#X connect 118 0 115 1;
#X connect 119 0 123 0;
#X connect 120 0 119 1;
#X connect 121 0 126 0;
#X connect 121 1 108 0;
#X connect 121 1 117 0;
#X connect 122 0 115 2;
#X connect 123 0 115 0;
#X connect 123 1 120 0;
#X connect 124 0 107 0;
#X connect 124 1 119 0;
#X connect 126 0 106 0;
#X connect 126 0 110 0;
#X connect 127 0 63 0;
#X connect 127 1 26 1;
#X connect 127 2 81 1;
#X connect 128 0 63 0;
#X connect 128 1 76 0;
#X connect 128 2 26 1;
#X connect 128 3 105 1;
#X connect 128 4 120 0;
#X connect 129 0 63 0;
#X connect 129 1 26 1;
