#N canvas 650 53 1920 997 12;
#X obj 271 185 inlet;
#X obj 231 381 +;
#X obj 300 351 - 12;
#X obj 282 381 +;
#X obj 231 245 random 2;
#X obj 231 275 moses 1;
#X obj 231 295 bng 15 250 50 0 empty empty empty 17 7 0 10 #fcfcfc
#000000 #000000;
#X obj 269 295 bng 15 250 50 0 empty empty empty 17 7 0 10 #fcfcfc
#000000 #000000;
#X obj 293 321 inlet;
#X obj 231 351 f;
#X obj 269 351 f;
#X obj 271 215 t b f;
#X obj 251 434 outlet;
#X connect 0 0 11 0;
#X connect 1 0 12 0;
#X connect 2 0 3 1;
#X connect 3 0 12 0;
#X connect 4 0 5 0;
#X connect 5 0 6 0;
#X connect 5 1 7 0;
#X connect 6 0 9 0;
#X connect 7 0 10 0;
#X connect 8 0 2 0;
#X connect 8 0 1 1;
#X connect 9 0 1 0;
#X connect 10 0 3 0;
#X connect 11 0 4 0;
#X connect 11 1 10 1;
#X connect 11 1 9 1;
