#N canvas 831 0 958 988 12;
#X obj 191 79 array set \$0-caminho1;
#X msg 191 59 4 5 4 5;
#X obj 11 79 array define \$0-caminho1;
#X msg 11 59 resize 4;
#X obj 11 29 s lb;
#X obj 76 59 r lb;
#X obj 11 9 loadbang;
#X obj 249 59 r lb;
#X msg 11 99 resize 4;
#X obj 76 99 r lb;
#X obj 249 99 r lb;
#X msg 11 139 resize 4;
#X obj 76 139 r lb;
#X obj 249 139 r lb;
#X msg 11 179 resize 4;
#X obj 76 179 r lb;
#X obj 249 179 r lb;
#X msg 11 219 resize 4;
#X obj 76 219 r lb;
#X obj 249 219 r lb;
#X msg 11 259 resize 4;
#X obj 76 259 r lb;
#X obj 264 259 r lb;
#X msg 11 299 resize 4;
#X obj 76 299 r lb;
#X obj 249 299 r lb;
#X msg 11 339 resize 4;
#X obj 76 339 r lb;
#X obj 264 339 r lb;
#X msg 11 379 resize 4;
#X obj 76 379 r lb;
#X obj 249 379 r lb;
#X msg 11 419 resize 4;
#X obj 76 419 r lb;
#X obj 264 419 r lb;
#X msg 11 459 resize 4;
#X obj 76 459 r lb;
#X obj 249 459 r lb;
#X msg 11 499 resize 4;
#X obj 76 499 r lb;
#X obj 264 499 r lb;
#X obj 11 119 array define \$0-caminho1i;
#X obj 11 159 array define \$0-caminho2;
#X obj 11 199 array define \$0-caminho2i;
#X obj 11 239 array define \$0-caminho3;
#X obj 11 279 array define \$0-caminho3i;
#X obj 11 319 array define \$0-caminho4;
#X obj 11 359 array define \$0-caminho4i;
#X obj 11 399 array define \$0-caminho5;
#X obj 11 439 array define \$0-caminho5i;
#X obj 11 479 array define \$0-caminho6;
#X obj 11 519 array define \$0-caminho6i;
#X obj 191 119 array set \$0-caminho1i;
#X obj 191 159 array set \$0-caminho2;
#X obj 191 199 array set \$0-caminho2i;
#X obj 191 239 array set \$0-caminho3;
#X obj 191 279 array set \$0-caminho3i;
#X obj 191 319 array set \$0-caminho4;
#X obj 191 359 array set \$0-caminho4i;
#X obj 191 399 array set \$0-caminho5;
#X obj 191 439 array set \$0-caminho5i;
#X obj 191 479 array set \$0-caminho6;
#X obj 191 519 array set \$0-caminho6i;
#X msg 191 99 7 9 7 9;
#X msg 191 139 5 4 5 4;
#X msg 191 179 9 7 9 7;
#X msg 191 219 5 2 5 2;
#X msg 191 259 11 7 11 7;
#X msg 191 299 2 5 2 5;
#X msg 191 339 7 11 7 11;
#X msg 191 379 2 9 2 9;
#X msg 191 419 4 11 4 11;
#X msg 191 459 9 2 9 2;
#X msg 191 499 11 4 11 4;
#X obj 529 765 moses;
#X obj 561 745 + 1;
#X obj 561 725 r max;
#X obj 529 808 moses;
#X obj 561 788 r min;
#X obj 561 836 makenote;
#X obj 561 866 noteout;
#X msg 584 812 127;
#X msg 614 812 3000;
#X obj 529 695 choose-intervals;
#X obj 631 595 f;
#X obj 667 595 + 1;
#X obj 740 595 sel 0;
#X obj 901 285 route 0 1;
#X obj 703 595 mod;
#X msg 639 564 0;
#X msg 870 285 1;
#X obj 901 255 pack;
#X msg 839 285 0;
#X obj 901 225 f;
#X msg 710 645 1;
#X obj 740 645 r lb;
#X obj 595 595 f;
#X obj 529 665 f;
#X obj 431 43 s max;
#X obj 495 41 s min;
#X floatatom 670 700 5 0 0 0 - - - 0;
#X floatatom 430 715 5 0 0 0 - - - 0;
#X floatatom 456 784 5 0 0 0 - - - 0;
#X obj 631 534 array size \$0-caminho4i;
#X obj 638 665 array get \$0-caminho4i;
#X obj 529 533 t b b f;
#X obj 529 429 pack;
#X obj 529 399 f;
#X obj 599 487 t f b b;
#X obj 529 368 t b b;
#X obj 560 399 f;
#X floatatom 649 629 5 0 0 0 - - - 0;
#X floatatom 591 431 5 0 0 0 - - - 0;
#X floatatom 496 848 5 0 0 0 - - - 0;
#X floatatom 485 820 5 0 0 0 - - - 0;
#X msg 493 16 20;
#X msg 434 16 100;
#X obj 529 458 route 0;
#X msg 498 458 -1;
#X msg 468 458 0;
#X obj 529 280 pack;
#X obj 529 250 f;
#X obj 565 250 f;
#X msg 498 309 -1;
#X msg 468 309 0;
#X obj 529 339 t b f;
#X obj 529 309 route 0 1 2 3;
#X obj 529 196 t b b;
#X obj 529 167 t b f;
#X connect 1 0 0 0;
#X connect 3 0 2 0;
#X connect 5 0 3 0;
#X connect 6 0 4 0;
#X connect 7 0 1 0;
#X connect 8 0 41 0;
#X connect 9 0 8 0;
#X connect 10 0 63 0;
#X connect 11 0 42 0;
#X connect 12 0 11 0;
#X connect 13 0 64 0;
#X connect 14 0 43 0;
#X connect 15 0 14 0;
#X connect 16 0 65 0;
#X connect 17 0 44 0;
#X connect 18 0 17 0;
#X connect 19 0 66 0;
#X connect 20 0 45 0;
#X connect 21 0 20 0;
#X connect 22 0 67 0;
#X connect 23 0 46 0;
#X connect 24 0 23 0;
#X connect 25 0 68 0;
#X connect 26 0 47 0;
#X connect 27 0 26 0;
#X connect 28 0 69 0;
#X connect 29 0 48 0;
#X connect 30 0 29 0;
#X connect 31 0 70 0;
#X connect 32 0 49 0;
#X connect 33 0 32 0;
#X connect 34 0 71 0;
#X connect 35 0 50 0;
#X connect 36 0 35 0;
#X connect 37 0 72 0;
#X connect 38 0 51 0;
#X connect 39 0 38 0;
#X connect 40 0 73 0;
#X connect 63 0 52 0;
#X connect 64 0 53 0;
#X connect 65 0 54 0;
#X connect 66 0 55 0;
#X connect 67 0 56 0;
#X connect 68 0 57 0;
#X connect 69 0 58 0;
#X connect 70 0 59 0;
#X connect 71 0 60 0;
#X connect 72 0 61 0;
#X connect 73 0 62 0;
#X connect 74 0 77 0;
#X connect 74 0 114 0;
#X connect 75 0 74 1;
#X connect 76 0 75 0;
#X connect 77 0 113 0;
#X connect 77 1 79 0;
#X connect 77 1 110 1;
#X connect 78 0 77 1;
#X connect 79 0 80 0;
#X connect 79 1 80 1;
#X connect 81 0 79 1;
#X connect 82 0 79 2;
#X connect 83 0 74 0;
#X connect 83 0 102 0;
#X connect 84 0 85 0;
#X connect 84 0 96 1;
#X connect 84 0 104 0;
#X connect 84 0 111 0;
#X connect 85 0 88 0;
#X connect 86 0 118 0;
#X connect 86 1 84 1;
#X connect 88 0 86 0;
#X connect 89 0 84 1;
#X connect 90 0 93 1;
#X connect 91 0 87 0;
#X connect 92 0 93 1;
#X connect 93 0 91 0;
#X connect 94 0 104 1;
#X connect 95 0 94 0;
#X connect 96 0 84 1;
#X connect 97 0 83 0;
#X connect 97 0 101 0;
#X connect 103 0 88 1;
#X connect 103 0 89 0;
#X connect 104 0 83 1;
#X connect 104 0 100 0;
#X connect 105 0 97 0;
#X connect 105 1 84 0;
#X connect 105 2 97 1;
#X connect 106 0 117 0;
#X connect 107 0 106 0;
#X connect 108 0 105 0;
#X connect 108 1 103 0;
#X connect 108 2 119 0;
#X connect 109 0 107 0;
#X connect 109 1 110 0;
#X connect 110 0 106 1;
#X connect 110 0 112 0;
#X connect 115 0 99 0;
#X connect 116 0 98 0;
#X connect 117 0 105 0;
#X connect 117 1 108 0;
#X connect 118 0 107 1;
#X connect 119 0 107 1;
#X connect 120 0 126 0;
#X connect 121 0 120 0;
#X connect 122 0 120 1;
#X connect 123 0 121 1;
#X connect 124 0 121 1;
#X connect 125 0 109 0;
#X connect 125 1 110 1;
#X connect 126 0 125 0;
#X connect 127 0 121 0;
#X connect 127 1 122 0;
#X connect 128 0 127 0;
#X connect 128 1 122 1;
