#N canvas 665 181 287 376 12;
#X obj 126 342 noteout;
#X obj 94 132 metro;
#X obj 94 312 f;
#X obj 172 312 f;
#X msg 126 312 0;
#X msg 190 282 100;
#X obj 62 42 route stop bang start;
#X obj 94 282 t b b;
#X obj 134 282 t f f b;
#X obj 94 252 t f b;
#X obj 62 102 t b a;
#X obj 94 162 t b b;
#X obj 62 16 bng 15 250 50 0 empty empty empty 17 7 0 10 #fcfcfc #000000
#000000;
#X msg 88 12 stop;
#X msg 62 72 stop;
#X obj 94 192 random 89;
#X obj 94 222 + 21;
#X obj 144 162 + 25;
#X obj 144 132 random 0;
#X connect 1 0 11 0;
#X connect 2 0 0 0;
#X connect 3 0 0 1;
#X connect 4 0 0 1;
#X connect 5 0 3 1;
#X connect 6 0 14 0;
#X connect 6 1 1 0;
#X connect 6 2 1 0;
#X connect 7 0 2 0;
#X connect 7 1 4 0;
#X connect 8 0 2 1;
#X connect 8 1 0 0;
#X connect 8 2 3 0;
#X connect 9 0 8 0;
#X connect 9 1 7 0;
#X connect 10 0 7 0;
#X connect 10 1 1 0;
#X connect 11 0 15 0;
#X connect 11 1 18 0;
#X connect 12 0 6 0;
#X connect 13 0 6 0;
#X connect 14 0 10 0;
#X connect 15 0 16 0;
#X connect 16 0 9 0;
#X connect 17 0 1 1;
#X connect 18 0 17 0;
