#N canvas 953 0 958 988 12;
#X obj 310 61 r tonic;
#X obj 360 124 + 4;
#X obj 410 124 + 7;
#X obj 459 124 + 11;
#X obj 292 383 f;
#X obj 342 383 f;
#X obj 392 383 f;
#X obj 441 383 f;
#X obj 443 64 s tonic;
#X msg 635 91 60;
#X obj 82 207 f;
#X obj 132 207 f;
#X obj 182 207 f;
#X obj 231 207 f;
#X obj 92 61 f;
#X obj 128 61 + 1;
#X obj 164 61 mod 4;
#X obj 92 121 route 0 1 2 3;
#X obj 182 181 bng 15 250 50 0 empty empty empty 17 7 0 10 #fcfcfc
#000000 #000000;
#X obj 231 181 bng 15 250 50 0 empty empty empty 17 7 0 10 #fcfcfc
#000000 #000000;
#X obj 82 181 bng 15 250 50 0 empty empty empty 17 7 0 10 #fcfcfc #000000
#000000;
#X obj 132 181 bng 15 250 50 0 empty empty empty 17 7 0 10 #fcfcfc
#000000 #000000;
#X obj 92 91 t f f;
#X obj 192 293 moses;
#X obj 242 293 + 12;
#X obj 192 263 + 7;
#X obj 224 323 - 12;
#X obj 242 263 r tonic;
#X obj 156 383 pack;
#X obj 156 353 f;
#X obj 192 353 t b f;
#X obj 156 413 route 0 1 2 3;
#X floatatom 520 480 5 0 0 0 - - - 0;
#X floatatom 570 480 5 0 0 0 - - - 0;
#X floatatom 620 480 5 0 0 0 - - - 0;
#X floatatom 669 480 5 0 0 0 - - - 0;
#X obj 409 266 t b b;
#X floatatom 292 480 5 0 0 0 - - - 0;
#X floatatom 372 480 5 0 0 0 - - - 0;
#X floatatom 422 480 5 0 0 0 - - - 0;
#X floatatom 471 480 5 0 0 0 - - - 0;
#X obj 292 450 - 12;
#X obj 372 450 - 12;
#X obj 422 450 - 12;
#X obj 471 450 - 12;
#X obj 221 814 makenote;
#X obj 264 595 -;
#X obj 265 624 random;
#X obj 322 624 +;
#X obj 215 624 metro;
#X obj 200 565 r start;
#X obj 143 565 r stop;
#X obj 264 565 r Dmax;
#X obj 322 565 r Dmin;
#X obj 215 654 t b b;
#X obj 782 318 s start;
#X obj 782 286 bng 15 250 50 0 empty empty empty 17 7 0 10 #fcfcfc
#000000 #000000;
#X msg 859 285 stop;
#X obj 863 325 s stop;
#X obj 1002 260 r lb;
#X obj 969 361 s Dmax;
#X obj 1067 378 s Dmin;
#X floatatom 306 858 5 0 0 0 - - - 0;
#X floatatom 146 869 5 0 0 0 - - - 0;
#X floatatom 339 656 5 0 0 0 - - - 0;
#X obj 527 816 makenote;
#X obj 570 597 -;
#X obj 571 626 random;
#X obj 628 626 +;
#X obj 521 626 metro;
#X obj 506 567 r start;
#X obj 449 567 r stop;
#X obj 570 567 r Dmax;
#X obj 628 567 r Dmin;
#X obj 521 656 t b b;
#X floatatom 612 860 5 0 0 0 - - - 0;
#X floatatom 452 871 5 0 0 0 - - - 0;
#X floatatom 645 658 5 0 0 0 - - - 0;
#X obj 791 821 makenote;
#X obj 834 602 -;
#X obj 835 631 random;
#X obj 892 631 +;
#X obj 785 631 metro;
#X obj 770 572 r start;
#X obj 713 572 r stop;
#X obj 834 572 r Dmax;
#X obj 892 572 r Dmin;
#X obj 785 661 t b b;
#X floatatom 876 865 5 0 0 0 - - - 0;
#X floatatom 716 876 5 0 0 0 - - - 0;
#X floatatom 909 663 5 0 0 0 - - - 0;
#X obj 1097 823 makenote;
#X obj 1140 604 -;
#X obj 1141 633 random;
#X obj 1198 633 +;
#X obj 1091 633 metro;
#X obj 1076 574 r start;
#X obj 1019 574 r stop;
#X obj 1140 574 r Dmax;
#X obj 1198 574 r Dmin;
#X obj 1091 663 t b b;
#X floatatom 1182 867 5 0 0 0 - - - 0;
#X floatatom 1022 878 5 0 0 0 - - - 0;
#X floatatom 1215 665 5 0 0 0 - - - 0;
#X obj 197 1163 makenote;
#X obj 240 934 -;
#X obj 241 963 random;
#X obj 298 963 +;
#X obj 191 963 metro;
#X obj 176 904 r start;
#X obj 119 904 r stop;
#X obj 240 904 r Dmax;
#X obj 298 904 r Dmin;
#X obj 191 993 t b b;
#X floatatom 282 1207 5 0 0 0 - - - 0;
#X floatatom 122 1218 5 0 0 0 - - - 0;
#X floatatom 315 995 5 0 0 0 - - - 0;
#X obj 503 1165 makenote;
#X obj 546 936 -;
#X obj 547 965 random;
#X obj 604 965 +;
#X obj 497 965 metro;
#X obj 482 906 r start;
#X obj 425 906 r stop;
#X obj 546 906 r Dmax;
#X obj 604 906 r Dmin;
#X obj 497 995 t b b;
#X floatatom 588 1209 5 0 0 0 - - - 0;
#X floatatom 428 1220 5 0 0 0 - - - 0;
#X floatatom 621 997 5 0 0 0 - - - 0;
#X obj 767 1170 makenote;
#X obj 810 941 -;
#X obj 811 970 random;
#X obj 868 970 +;
#X obj 761 970 metro;
#X obj 746 911 r start;
#X obj 689 911 r stop;
#X obj 810 911 r Dmax;
#X obj 868 911 r Dmin;
#X obj 761 1000 t b b;
#X floatatom 852 1214 5 0 0 0 - - - 0;
#X floatatom 692 1225 5 0 0 0 - - - 0;
#X floatatom 885 1002 5 0 0 0 - - - 0;
#X obj 1073 1172 makenote;
#X obj 1116 943 -;
#X obj 1117 972 random;
#X obj 1174 972 +;
#X obj 1067 972 metro;
#X obj 1052 913 r start;
#X obj 995 913 r stop;
#X obj 1116 913 r Dmax;
#X obj 1174 913 r Dmin;
#X obj 1067 1002 t b b;
#X floatatom 1158 1216 5 0 0 0 - - - 0;
#X floatatom 998 1227 5 0 0 0 - - - 0;
#X floatatom 1191 1004 5 0 0 0 - - - 0;
#X obj 312 512 bng 15 250 50 0 empty empty empty 17 7 0 10 #fcfcfc
#000000 #000000;
#X obj 372 514 bng 15 250 50 0 empty empty empty 17 7 0 10 #fcfcfc
#000000 #000000;
#X obj 434 519 bng 15 250 50 0 empty empty empty 17 7 0 10 #fcfcfc
#000000 #000000;
#X obj 501 526 bng 15 250 50 0 empty empty empty 17 7 0 10 #fcfcfc
#000000 #000000;
#X obj 551 523 bng 15 250 50 0 empty empty empty 17 7 0 10 #fcfcfc
#000000 #000000;
#X obj 594 523 bng 15 250 50 0 empty empty empty 17 7 0 10 #fcfcfc
#000000 #000000;
#X obj 650 523 bng 15 250 50 0 empty empty empty 17 7 0 10 #fcfcfc
#000000 #000000;
#X obj 722 523 bng 15 250 50 0 empty empty empty 17 7 0 10 #fcfcfc
#000000 #000000;
#X obj 611 209 -;
#X obj 612 238 random;
#X obj 669 238 +;
#X obj 562 238 metro;
#X obj 547 179 r start;
#X obj 490 179 r stop;
#X obj 1164 179 s max;
#X obj 1215 179 s min;
#X obj 1269 180 s grain;
#X msg 1164 149 127;
#X floatatom 1197 406 5 0 0 0 - - - 0;
#X obj 1561 184 moses;
#X obj 1622 125 r max;
#X obj 1211 487 -;
#X obj 1212 516 random;
#X obj 1269 516 +;
#X obj 1211 457 r max;
#X obj 1269 457 r min;
#X obj 1561 124 r min;
#X obj 1569 568 -;
#X obj 1611 598 r min;
#X obj 1601 538 random;
#X obj 1640 508 r grain;
#X obj 1569 508 t f b;
#X obj 1434 568 +;
#X obj 1466 538 random;
#X obj 1505 508 r grain;
#X obj 1434 508 t f b;
#X obj 1518 596 bng 15 250 50 0 empty empty empty 17 7 0 10 #fcfcfc
#000000 #000000;
#X obj 1561 274 moses;
#X obj 1593 244 r min;
#X obj 1514 478 route 0 1;
#X obj 1534 213 t f b;
#X obj 1582 418 f;
#X obj 1535 388 t b f;
#X obj 1514 304 t f b;
#X msg 1599 213 1;
#X msg 1565 304 0;
#X floatatom 1340 343 5 0 0 0 - - - 0;
#X floatatom 1651 296 5 0 0 0 - - - 0;
#X msg 1215 149 10;
#X floatatom 1590 444 5 0 0 0 - - - 0;
#X floatatom 1642 477 5 0 0 0 - - - 0;
#X floatatom 1618 327 5 0 0 0 - - - 0;
#X obj 1514 448 pack 0 f;
#X obj 1434 598 min;
#X obj 1470 568 r max;
#X obj 1605 568 r min;
#X obj 1569 598 max;
#X floatatom 1463 304 5 0 0 0 - - - 0;
#X obj 1458 475 bng 15 250 50 0 empty empty empty 17 7 0 10 #fcfcfc
#000000 #000000;
#X obj 1671 453 bng 15 250 50 0 empty empty empty 17 7 0 10 #fcfcfc
#000000 #000000;
#X obj 1401 444 bng 15 250 50 0 empty empty empty 17 7 0 10 #fcfcfc
#000000 #000000;
#X obj 1498 260 bng 15 250 50 0 empty empty empty 17 7 0 10 #fcfcfc
#000000 #000000;
#X obj 1652 238 + 1;
#X msg 1269 150 20;
#X obj 1538 881 -;
#X obj 1539 910 random;
#X obj 1596 910 +;
#X obj 1486 728 / 2;
#X obj 1468 758 +;
#X obj 1468 788 i;
#X obj 1599 719 / 2;
#X obj 1581 779 i;
#X obj 1581 749 -;
#X obj 1593 822 t b f;
#X obj 1471 894 bng 15 250 50 0 empty empty empty 17 7 0 10 #fcfcfc
#000000 #000000;
#X obj 1506 634 f;
#X floatatom 1512 953 5 0 0 0 - - - 0;
#X msg 618 170 100;
#X msg 685 196 200;
#X obj 969 128 s lb;
#X obj 970 90 loadbang;
#X obj 221 844 noteout 9;
#X obj 527 846 noteout 9;
#X msg 966 326 200;
#X msg 1069 342 100;
#X obj 791 851 noteout 9;
#X obj 1097 853 noteout 9;
#X obj 197 1193 noteout 9;
#X obj 503 1195 noteout 9;
#X obj 767 1200 noteout 9;
#X obj 1073 1202 noteout 9;
#X obj 392 228 bng 15 250 50 0 empty empty empty 17 7 0 10 #fcfcfc
#000000 #000000;
#X obj 523 745 random-around;
#X msg 610 720 0.5;
#X msg 580 720 20;
#X obj 523 695 r drum-intensity;
#X obj 801 465 bng 15 250 50 0 empty empty empty 17 7 0 10 #fcfcfc
#000000 #000000;
#X obj 523 770 min;
#X msg 549 770 127;
#X obj 579 770 max;
#X msg 605 770 0;
#X obj 619 745 r lb;
#X obj 238 749 random-around;
#X msg 325 724 0.5;
#X msg 295 724 20;
#X obj 238 699 r drum-intensity;
#X obj 238 774 min;
#X msg 264 774 127;
#X obj 294 774 max;
#X msg 320 774 0;
#X obj 334 749 r lb;
#X obj 771 749 random-around;
#X msg 858 724 0.5;
#X msg 828 724 20;
#X obj 771 699 r drum-intensity;
#X obj 771 774 min;
#X msg 797 774 127;
#X obj 827 774 max;
#X msg 853 774 0;
#X obj 867 749 r lb;
#X obj 1083 744 random-around;
#X msg 1170 719 0.5;
#X msg 1140 719 20;
#X obj 1083 694 r drum-intensity;
#X obj 1083 769 min;
#X msg 1109 769 127;
#X obj 1139 769 max;
#X msg 1165 769 0;
#X obj 1179 744 r lb;
#X obj 186 1086 random-around;
#X msg 273 1061 0.5;
#X msg 243 1061 20;
#X obj 186 1036 r drum-intensity;
#X obj 186 1111 min;
#X msg 212 1111 127;
#X obj 242 1111 max;
#X msg 268 1111 0;
#X obj 282 1086 r lb;
#X obj 508 1084 random-around;
#X msg 595 1059 0.5;
#X msg 565 1059 20;
#X obj 508 1034 r drum-intensity;
#X obj 508 1109 min;
#X msg 534 1109 127;
#X obj 564 1109 max;
#X msg 590 1109 0;
#X obj 604 1084 r lb;
#X obj 764 1091 random-around;
#X msg 851 1066 0.5;
#X msg 821 1066 20;
#X obj 764 1041 r drum-intensity;
#X obj 764 1116 min;
#X msg 790 1116 127;
#X obj 820 1116 max;
#X msg 846 1116 0;
#X obj 860 1091 r lb;
#X obj 1057 1086 random-around;
#X msg 1144 1061 0.5;
#X msg 1114 1061 20;
#X obj 1057 1036 r drum-intensity;
#X obj 1057 1111 min;
#X msg 1083 1111 127;
#X obj 1113 1111 max;
#X msg 1139 1111 0;
#X obj 1153 1086 r lb;
#X obj 262 724 - 50;
#X obj 547 720 - 50;
#X obj 795 724 - 50;
#X obj 1107 719 - 50;
#X obj 1081 1061 - 50;
#X obj 788 1066 - 50;
#X obj 532 1059 - 50;
#X obj 210 1061 - 50;
#X connect 0 0 1 0;
#X connect 0 0 2 0;
#X connect 0 0 3 0;
#X connect 0 0 4 1;
#X connect 1 0 5 1;
#X connect 2 0 6 1;
#X connect 3 0 7 1;
#X connect 4 0 10 1;
#X connect 4 0 32 0;
#X connect 4 0 41 0;
#X connect 5 0 11 1;
#X connect 5 0 33 0;
#X connect 5 0 42 0;
#X connect 6 0 12 1;
#X connect 6 0 34 0;
#X connect 6 0 43 0;
#X connect 7 0 13 1;
#X connect 7 0 35 0;
#X connect 7 0 44 0;
#X connect 9 0 8 0;
#X connect 10 0 25 0;
#X connect 11 0 25 0;
#X connect 12 0 25 0;
#X connect 13 0 25 0;
#X connect 14 0 15 0;
#X connect 14 0 22 0;
#X connect 15 0 16 0;
#X connect 16 0 14 1;
#X connect 17 0 18 0;
#X connect 17 1 19 0;
#X connect 17 2 20 0;
#X connect 17 3 21 0;
#X connect 18 0 12 0;
#X connect 19 0 13 0;
#X connect 20 0 10 0;
#X connect 21 0 11 0;
#X connect 22 0 17 0;
#X connect 22 1 29 1;
#X connect 23 0 30 0;
#X connect 23 1 26 0;
#X connect 24 0 23 1;
#X connect 25 0 23 0;
#X connect 26 0 30 0;
#X connect 27 0 24 0;
#X connect 28 0 31 0;
#X connect 29 0 28 0;
#X connect 30 0 29 0;
#X connect 30 1 28 1;
#X connect 31 0 4 1;
#X connect 31 1 5 1;
#X connect 31 2 6 1;
#X connect 31 3 7 1;
#X connect 32 0 104 0;
#X connect 32 0 160 0;
#X connect 33 0 117 0;
#X connect 33 0 161 0;
#X connect 34 0 130 0;
#X connect 34 0 162 0;
#X connect 35 0 143 0;
#X connect 35 0 163 0;
#X connect 36 0 14 0;
#X connect 36 1 7 0;
#X connect 36 1 6 0;
#X connect 36 1 5 0;
#X connect 36 1 4 0;
#X connect 37 0 45 0;
#X connect 37 0 156 0;
#X connect 38 0 65 0;
#X connect 38 0 157 0;
#X connect 39 0 78 0;
#X connect 39 0 158 0;
#X connect 40 0 91 0;
#X connect 40 0 159 0;
#X connect 41 0 37 0;
#X connect 42 0 38 0;
#X connect 43 0 39 0;
#X connect 44 0 40 0;
#X connect 45 0 63 0;
#X connect 45 0 237 0;
#X connect 45 1 62 0;
#X connect 45 1 237 1;
#X connect 46 0 47 1;
#X connect 47 0 48 0;
#X connect 48 0 49 1;
#X connect 48 0 45 2;
#X connect 48 0 64 0;
#X connect 49 0 47 0;
#X connect 49 0 54 0;
#X connect 50 0 49 0;
#X connect 51 0 49 0;
#X connect 52 0 46 0;
#X connect 53 0 46 1;
#X connect 53 0 48 1;
#X connect 54 0 37 0;
#X connect 54 1 258 0;
#X connect 56 0 55 0;
#X connect 57 0 58 0;
#X connect 59 0 239 0;
#X connect 59 0 240 0;
#X connect 59 0 234 0;
#X connect 59 0 9 0;
#X connect 59 0 233 0;
#X connect 65 0 76 0;
#X connect 65 0 238 0;
#X connect 65 1 75 0;
#X connect 65 1 238 1;
#X connect 66 0 67 1;
#X connect 67 0 68 0;
#X connect 68 0 69 1;
#X connect 68 0 65 2;
#X connect 68 0 77 0;
#X connect 69 0 67 0;
#X connect 69 0 74 0;
#X connect 70 0 69 0;
#X connect 71 0 69 0;
#X connect 72 0 66 0;
#X connect 73 0 66 1;
#X connect 73 0 68 1;
#X connect 74 0 38 0;
#X connect 74 1 248 0;
#X connect 78 0 89 0;
#X connect 78 0 241 0;
#X connect 78 1 88 0;
#X connect 78 1 241 1;
#X connect 79 0 80 1;
#X connect 80 0 81 0;
#X connect 81 0 82 1;
#X connect 81 0 78 2;
#X connect 81 0 90 0;
#X connect 82 0 80 0;
#X connect 82 0 87 0;
#X connect 83 0 82 0;
#X connect 84 0 82 0;
#X connect 85 0 79 0;
#X connect 86 0 79 1;
#X connect 86 0 81 1;
#X connect 87 0 39 0;
#X connect 87 1 267 0;
#X connect 91 0 102 0;
#X connect 91 0 242 0;
#X connect 91 1 101 0;
#X connect 91 1 242 1;
#X connect 92 0 93 1;
#X connect 93 0 94 0;
#X connect 94 0 95 1;
#X connect 94 0 91 2;
#X connect 94 0 103 0;
#X connect 95 0 93 0;
#X connect 95 0 100 0;
#X connect 96 0 95 0;
#X connect 97 0 95 0;
#X connect 98 0 92 0;
#X connect 99 0 92 1;
#X connect 99 0 94 1;
#X connect 100 0 40 0;
#X connect 100 1 276 0;
#X connect 104 0 115 0;
#X connect 104 0 243 0;
#X connect 104 1 114 0;
#X connect 104 1 243 1;
#X connect 105 0 106 1;
#X connect 106 0 107 0;
#X connect 107 0 108 1;
#X connect 107 0 104 2;
#X connect 107 0 116 0;
#X connect 108 0 106 0;
#X connect 108 0 113 0;
#X connect 109 0 108 0;
#X connect 110 0 108 0;
#X connect 111 0 105 0;
#X connect 112 0 105 1;
#X connect 112 0 107 1;
#X connect 113 0 32 0;
#X connect 113 1 285 0;
#X connect 117 0 128 0;
#X connect 117 0 244 0;
#X connect 117 1 127 0;
#X connect 117 1 244 1;
#X connect 118 0 119 1;
#X connect 119 0 120 0;
#X connect 120 0 121 1;
#X connect 120 0 117 2;
#X connect 120 0 129 0;
#X connect 121 0 119 0;
#X connect 121 0 126 0;
#X connect 122 0 121 0;
#X connect 123 0 121 0;
#X connect 124 0 118 0;
#X connect 125 0 118 1;
#X connect 125 0 120 1;
#X connect 126 0 33 0;
#X connect 126 1 294 0;
#X connect 130 0 141 0;
#X connect 130 0 245 0;
#X connect 130 1 140 0;
#X connect 130 1 245 1;
#X connect 131 0 132 1;
#X connect 132 0 133 0;
#X connect 133 0 134 1;
#X connect 133 0 130 2;
#X connect 133 0 142 0;
#X connect 134 0 132 0;
#X connect 134 0 139 0;
#X connect 135 0 134 0;
#X connect 136 0 134 0;
#X connect 137 0 131 0;
#X connect 138 0 131 1;
#X connect 138 0 133 1;
#X connect 139 0 34 0;
#X connect 139 1 303 0;
#X connect 143 0 154 0;
#X connect 143 0 246 0;
#X connect 143 1 153 0;
#X connect 143 1 246 1;
#X connect 144 0 145 1;
#X connect 145 0 146 0;
#X connect 146 0 143 2;
#X connect 146 0 155 0;
#X connect 146 0 147 1;
#X connect 147 0 145 0;
#X connect 147 0 152 0;
#X connect 148 0 147 0;
#X connect 149 0 147 0;
#X connect 150 0 144 0;
#X connect 151 0 144 1;
#X connect 151 0 146 1;
#X connect 152 0 35 0;
#X connect 152 1 312 0;
#X connect 164 0 165 1;
#X connect 165 0 166 0;
#X connect 166 0 167 1;
#X connect 167 0 165 0;
#X connect 168 0 167 0;
#X connect 169 0 167 0;
#X connect 173 0 170 0;
#X connect 175 0 193 0;
#X connect 175 0 203 0;
#X connect 175 1 196 0;
#X connect 176 0 175 1;
#X connect 177 0 178 1;
#X connect 178 0 179 0;
#X connect 180 0 177 0;
#X connect 181 0 177 1;
#X connect 181 0 179 1;
#X connect 182 0 175 0;
#X connect 183 0 212 0;
#X connect 185 0 183 1;
#X connect 185 0 223 0;
#X connect 185 0 226 0;
#X connect 186 0 185 1;
#X connect 187 0 183 0;
#X connect 187 1 185 0;
#X connect 188 0 209 0;
#X connect 189 0 188 1;
#X connect 189 0 226 0;
#X connect 189 0 223 0;
#X connect 190 0 189 1;
#X connect 191 0 188 0;
#X connect 191 1 189 0;
#X connect 192 0 231 0;
#X connect 193 0 199 0;
#X connect 193 0 213 0;
#X connect 193 0 217 0;
#X connect 193 1 207 0;
#X connect 193 1 198 0;
#X connect 194 0 218 0;
#X connect 195 0 191 0;
#X connect 195 0 205 0;
#X connect 195 0 214 0;
#X connect 195 1 187 0;
#X connect 195 1 206 0;
#X connect 195 1 215 0;
#X connect 196 0 198 0;
#X connect 196 1 200 0;
#X connect 197 0 208 0;
#X connect 197 0 216 0;
#X connect 198 0 197 0;
#X connect 198 1 208 1;
#X connect 199 0 198 0;
#X connect 199 1 201 0;
#X connect 200 0 197 1;
#X connect 201 0 197 1;
#X connect 202 0 175 0;
#X connect 204 0 171 0;
#X connect 208 0 195 0;
#X connect 209 0 224 0;
#X connect 209 0 228 0;
#X connect 209 0 231 1;
#X connect 210 0 209 1;
#X connect 211 0 212 1;
#X connect 212 0 224 0;
#X connect 212 0 228 0;
#X connect 212 0 231 1;
#X connect 218 0 193 1;
#X connect 219 0 172 0;
#X connect 220 0 221 1;
#X connect 221 0 222 0;
#X connect 221 0 232 0;
#X connect 223 0 224 1;
#X connect 224 0 225 1;
#X connect 225 0 220 0;
#X connect 226 0 228 1;
#X connect 227 0 229 0;
#X connect 228 0 227 0;
#X connect 229 0 225 0;
#X connect 229 1 222 1;
#X connect 229 1 220 1;
#X connect 230 0 221 0;
#X connect 231 0 202 0;
#X connect 233 0 164 0;
#X connect 234 0 166 1;
#X connect 234 0 164 1;
#X connect 236 0 235 0;
#X connect 239 0 60 0;
#X connect 240 0 61 0;
#X connect 247 0 36 0;
#X connect 248 0 253 0;
#X connect 249 0 248 3;
#X connect 250 0 248 2;
#X connect 251 0 322 0;
#X connect 253 0 255 0;
#X connect 254 0 253 1;
#X connect 255 0 65 1;
#X connect 256 0 255 1;
#X connect 257 0 256 0;
#X connect 257 0 254 0;
#X connect 257 0 249 0;
#X connect 257 0 250 0;
#X connect 258 0 262 0;
#X connect 259 0 258 3;
#X connect 260 0 258 2;
#X connect 261 0 321 0;
#X connect 262 0 264 0;
#X connect 263 0 262 1;
#X connect 264 0 45 1;
#X connect 265 0 264 1;
#X connect 266 0 265 0;
#X connect 266 0 263 0;
#X connect 266 0 259 0;
#X connect 266 0 260 0;
#X connect 267 0 271 0;
#X connect 268 0 267 3;
#X connect 269 0 267 2;
#X connect 270 0 323 0;
#X connect 271 0 273 0;
#X connect 272 0 271 1;
#X connect 273 0 78 1;
#X connect 274 0 273 1;
#X connect 275 0 274 0;
#X connect 275 0 272 0;
#X connect 275 0 268 0;
#X connect 275 0 269 0;
#X connect 276 0 280 0;
#X connect 277 0 276 3;
#X connect 278 0 276 2;
#X connect 279 0 324 0;
#X connect 280 0 282 0;
#X connect 281 0 280 1;
#X connect 282 0 91 1;
#X connect 283 0 282 1;
#X connect 284 0 283 0;
#X connect 284 0 281 0;
#X connect 284 0 277 0;
#X connect 284 0 278 0;
#X connect 285 0 289 0;
#X connect 286 0 285 3;
#X connect 287 0 285 2;
#X connect 288 0 328 0;
#X connect 289 0 291 0;
#X connect 290 0 289 1;
#X connect 291 0 104 1;
#X connect 292 0 291 1;
#X connect 293 0 292 0;
#X connect 293 0 290 0;
#X connect 293 0 286 0;
#X connect 293 0 287 0;
#X connect 294 0 298 0;
#X connect 295 0 294 3;
#X connect 296 0 294 2;
#X connect 297 0 327 0;
#X connect 298 0 300 0;
#X connect 299 0 298 1;
#X connect 300 0 117 1;
#X connect 301 0 300 1;
#X connect 302 0 301 0;
#X connect 302 0 299 0;
#X connect 302 0 295 0;
#X connect 302 0 296 0;
#X connect 303 0 307 0;
#X connect 304 0 303 3;
#X connect 305 0 303 2;
#X connect 306 0 326 0;
#X connect 307 0 309 0;
#X connect 308 0 307 1;
#X connect 309 0 130 1;
#X connect 310 0 309 1;
#X connect 311 0 310 0;
#X connect 311 0 308 0;
#X connect 311 0 304 0;
#X connect 311 0 305 0;
#X connect 312 0 316 0;
#X connect 313 0 312 3;
#X connect 314 0 312 2;
#X connect 315 0 325 0;
#X connect 316 0 318 0;
#X connect 317 0 316 1;
#X connect 318 0 143 1;
#X connect 319 0 318 1;
#X connect 320 0 319 0;
#X connect 320 0 317 0;
#X connect 320 0 313 0;
#X connect 320 0 314 0;
#X connect 321 0 258 1;
#X connect 322 0 248 1;
#X connect 323 0 267 1;
#X connect 324 0 276 1;
#X connect 325 0 312 1;
#X connect 326 0 303 1;
#X connect 327 0 294 1;
#X connect 328 0 285 1;
